{
date = "2013-03-12 14:10:06 +0200";
familyName = "Open Sans Hebrew";
fontMaster = (
{
alignmentZones = (
"{3209, 20}",
"{1462, 23}",
"{1290, 30}",
"{1118, 20}",
"{0, 20}",
"{-492, 0}",
"{-1008, 20}"
);
ascender = 3209;
capHeight = 1462;
customParameters = (
{
name = postscriptUnderlinePosition;
value = "-205";
},
{
name = postscriptUnderlineThickness;
value = 102;
}
);
descender = "-1008";
horizontalStems = (
219,
258,
340
);
id = "2BEA1A6F-25C4-4A40-9A7D-95BA05285D07";
verticalStems = (
252,
305,
350
);
weight = Light;
weightValue = 300;
widthValue = 5;
xHeight = 1118;
}
);
glyphs = (
{
glyphname = A;
lastChange = "2013-03-07 06:46:41 +0200";
layers = (
{
anchors = (
{
name = ogonek;
position = "{1106, 10}";
},
{
name = top;
position = "{615, 1462}";
}
);
layerId = "2BEA1A6F-25C4-4A40-9A7D-95BA05285D07";
name = Light;
paths = (
{
closed = 1;
nodes = (
"588 1468 LINE",
"0 0 LINE",
"113 0 LINE",
"317 516 LINE",
"911 516 LINE",
"1114 0 LINE",
"1229 0 LINE",
"653 1468 LINE"
);
},
{
closed = 1;
nodes = (
"641 1234 OFFCURVE",
"661 1176 OFFCURVE",
"678 1135 CURVE SMOOTH",
"877 608 LINE",
"354 608 LINE",
"559 1133 LINE SMOOTH",
"580 1185 OFFCURVE",
"600 1243 OFFCURVE",
"618 1307 CURVE"
);
}
);
width = 1229;
}
);
unicode = 0041;
},
{
glyphname = Aacute;
lastChange = "2013-03-07 06:46:41 +0200";
layers = (
{
layerId = "2BEA1A6F-25C4-4A40-9A7D-95BA05285D07";
name = Light;
paths = (
{
closed = 1;
nodes = (
"588 1468 LINE",
"0 0 LINE",
"113 0 LINE",
"317 516 LINE",
"911 516 LINE",
"1114 0 LINE",
"1229 0 LINE",
"653 1468 LINE"
);
},
{
closed = 1;
nodes = (
"641 1234 OFFCURVE",
"661 1176 OFFCURVE",
"678 1135 CURVE SMOOTH",
"877 608 LINE",
"354 608 LINE",
"559 1133 LINE SMOOTH",
"580 1185 OFFCURVE",
"600 1243 OFFCURVE",
"618 1307 CURVE"
);
},
{
closed = 1;
nodes = (
"746 1907 LINE",
"711 1843 OFFCURVE",
"601 1700 OFFCURVE",
"504 1595 CURVE",
"504 1579 LINE",
"574 1579 LINE",
"713 1695 OFFCURVE",
"839 1821 OFFCURVE",
"887 1890 CURVE",
"887 1907 LINE"
);
}
);
width = 1229;
}
);
unicode = 00C1;
},
{
glyphname = Acircumflex;
lastChange = "2013-03-07 06:46:41 +0200";
layers = (
{
layerId = "2BEA1A6F-25C4-4A40-9A7D-95BA05285D07";
name = Light;
paths = (
{
closed = 1;
nodes = (
"588 1468 LINE",
"0 0 LINE",
"113 0 LINE",
"317 516 LINE",
"911 516 LINE",
"1114 0 LINE",
"1229 0 LINE",
"653 1468 LINE"
);
},
{
closed = 1;
nodes = (
"641 1234 OFFCURVE",
"661 1176 OFFCURVE",
"678 1135 CURVE SMOOTH",
"877 608 LINE",
"354 608 LINE",
"559 1133 LINE SMOOTH",
"580 1185 OFFCURVE",
"600 1243 OFFCURVE",
"618 1307 CURVE"
);
},
{
closed = 1;
nodes = (
"570 1907 LINE",
"515 1818 OFFCURVE",
"411 1684 OFFCURVE",
"328 1595 CURVE",
"328 1579 LINE",
"398 1579 LINE",
"473 1641 OFFCURVE",
"547 1710 OFFCURVE",
"619 1786 CURVE",
"685 1715 OFFCURVE",
"759 1646 OFFCURVE",
"840 1579 CURVE",
"910 1579 LINE",
"910 1595 LINE",
"794 1723 OFFCURVE",
"713 1827 OFFCURVE",
"668 1907 CURVE"
);
}
);
width = 1229;
}
);
unicode = 00C2;
},
{
glyphname = Adieresis;
lastChange = "2013-03-07 06:46:41 +0200";
layers = (
{
layerId = "2BEA1A6F-25C4-4A40-9A7D-95BA05285D07";
name = Light;
paths = (
{
closed = 1;
nodes = (
"588 1468 LINE",
"0 0 LINE",
"113 0 LINE",
"317 516 LINE",
"911 516 LINE",
"1114 0 LINE",
"1229 0 LINE",
"653 1468 LINE"
);
},
{
closed = 1;
nodes = (
"641 1234 OFFCURVE",
"661 1176 OFFCURVE",
"678 1135 CURVE SMOOTH",
"877 608 LINE",
"354 608 LINE",
"559 1133 LINE SMOOTH",
"580 1185 OFFCURVE",
"600 1243 OFFCURVE",
"618 1307 CURVE"
);
},
{
closed = 1;
nodes = (
"387 1813 OFFCURVE",
"367 1788 OFFCURVE",
"367 1727 CURVE SMOOTH",
"367 1670 OFFCURVE",
"388 1641 OFFCURVE",
"430 1641 CURVE SMOOTH",
"473 1641 OFFCURVE",
"494 1670 OFFCURVE",
"494 1727 CURVE SMOOTH",
"494 1784 OFFCURVE",
"473 1813 OFFCURVE",
"430 1813 CURVE SMOOTH"
);
},
{
closed = 1;
nodes = (
"768 1813 OFFCURVE",
"748 1788 OFFCURVE",
"748 1727 CURVE SMOOTH",
"748 1670 OFFCURVE",
"769 1641 OFFCURVE",
"811 1641 CURVE SMOOTH",
"854 1641 OFFCURVE",
"875 1670 OFFCURVE",
"875 1727 CURVE SMOOTH",
"875 1784 OFFCURVE",
"854 1813 OFFCURVE",
"811 1813 CURVE SMOOTH"
);
}
);
width = 1229;
}
);
unicode = 00C4;
},
{
glyphname = Agrave;
lastChange = "2013-03-07 06:46:41 +0200";
layers = (
{
layerId = "2BEA1A6F-25C4-4A40-9A7D-95BA05285D07";
name = Light;
paths = (
{
closed = 1;
nodes = (
"588 1468 LINE",
"0 0 LINE",
"113 0 LINE",
"317 516 LINE",
"911 516 LINE",
"1114 0 LINE",
"1229 0 LINE",
"653 1468 LINE"
);
},
{
closed = 1;
nodes = (
"641 1234 OFFCURVE",
"661 1176 OFFCURVE",
"678 1135 CURVE SMOOTH",
"877 608 LINE",
"354 608 LINE",
"559 1133 LINE SMOOTH",
"580 1185 OFFCURVE",
"600 1243 OFFCURVE",
"618 1307 CURVE"
);
},
{
closed = 1;
nodes = (
"337 1907 LINE",
"337 1890 LINE",
"381 1827 OFFCURVE",
"523 1684 OFFCURVE",
"651 1579 CURVE",
"720 1579 LINE",
"720 1595 LINE",
"627 1696 OFFCURVE",
"514 1843 OFFCURVE",
"479 1907 CURVE"
);
}
);
width = 1229;
}
);
unicode = 00C0;
},
{
glyphname = Aring;
lastChange = "2013-03-07 06:46:41 +0200";
layers = (
{
layerId = "2BEA1A6F-25C4-4A40-9A7D-95BA05285D07";
name = Light;
paths = (
{
closed = 1;
nodes = (
"588 1468 LINE",
"0 0 LINE",
"113 0 LINE",
"317 516 LINE",
"911 516 LINE",
"1114 0 LINE",
"1229 0 LINE",
"653 1468 LINE"
);
},
{
closed = 1;
nodes = (
"641 1234 OFFCURVE",
"661 1176 OFFCURVE",
"678 1135 CURVE SMOOTH",
"877 608 LINE",
"354 608 LINE",
"559 1133 LINE SMOOTH",
"580 1185 OFFCURVE",
"600 1243 OFFCURVE",
"618 1307 CURVE"
);
},
{
closed = 1;
nodes = (
"490 1821 OFFCURVE",
"402 1735 OFFCURVE",
"402 1610 CURVE SMOOTH",
"402 1481 OFFCURVE",
"490 1397 OFFCURVE",
"619 1397 CURVE SMOOTH",
"748 1397 OFFCURVE",
"836 1481 OFFCURVE",
"836 1610 CURVE SMOOTH",
"836 1734 OFFCURVE",
"748 1821 OFFCURVE",
"619 1821 CURVE SMOOTH"
);
},
{
closed = 1;
nodes = (
"698 1749 OFFCURVE",
"756 1695 OFFCURVE",
"756 1610 CURVE SMOOTH",
"756 1522 OFFCURVE",
"702 1469 OFFCURVE",
"619 1469 CURVE SMOOTH",
"536 1469 OFFCURVE",
"482 1522 OFFCURVE",
"482 1610 CURVE SMOOTH",
"482 1694 OFFCURVE",
"536 1749 OFFCURVE",
"619 1749 CURVE SMOOTH"
);
}
);
width = 1229;
}
);
unicode = 00C5;
},
{
glyphname = Atilde;
lastChange = "2013-03-07 06:46:41 +0200";
layers = (
{
layerId = "2BEA1A6F-25C4-4A40-9A7D-95BA05285D07";
name = Light;
paths = (
{
closed = 1;
nodes = (
"588 1468 LINE",
"0 0 LINE",
"113 0 LINE",
"317 516 LINE",
"911 516 LINE",
"1114 0 LINE",
"1229 0 LINE",
"653 1468 LINE"
);
},
{
closed = 1;
nodes = (
"641 1234 OFFCURVE",
"661 1176 OFFCURVE",
"678 1135 CURVE SMOOTH",
"877 608 LINE",
"354 608 LINE",
"559 1133 LINE SMOOTH",
"580 1185 OFFCURVE",
"600 1243 OFFCURVE",
"618 1307 CURVE"
);
},
{
closed = 1;
nodes = (
"909 1819 LINE",
"886 1708 OFFCURVE",
"845 1663 OFFCURVE",
"784 1663 CURVE SMOOTH",
"745 1663 OFFCURVE",
"702 1698 OFFCURVE",
"657 1735 CURVE SMOOTH",
"601 1780 OFFCURVE",
"551 1819 OFFCURVE",
"487 1819 CURVE SMOOTH",
"375 1819 OFFCURVE",
"300 1729 OFFCURVE",
"287 1581 CURVE",
"360 1581 LINE",
"384 1697 OFFCURVE",
"423 1737 OFFCURVE",
"483 1737 CURVE SMOOTH",
"526 1737 OFFCURVE",
"565 1706 OFFCURVE",
"608 1671 CURVE SMOOTH",
"691 1600 OFFCURVE",
"736 1581 OFFCURVE",
"784 1581 CURVE SMOOTH",
"889 1581 OFFCURVE",
"964 1664 OFFCURVE",
"985 1819 CURVE"
);
}
);
width = 1229;
}
);
unicode = 00C3;
},
{
glyphname = AE;
lastChange = "2013-03-07 06:46:41 +0200";
layers = (
{
layerId = "2BEA1A6F-25C4-4A40-9A7D-95BA05285D07";
name = Light;
paths = (
{
closed = 1;
nodes = (
"651 1462 LINE",
"-2 0 LINE",
"109 0 LINE",
"336 516 LINE",
"811 516 LINE",
"811 0 LINE",
"1528 0 LINE",
"1528 94 LINE",
"913 94 LINE",
"913 721 LINE",
"1489 721 LINE",
"1489 815 LINE",
"913 815 LINE",
"913 1368 LINE",
"1528 1368 LINE",
"1528 1462 LINE"
);
},
{
closed = 1;
nodes = (
"811 608 LINE",
"377 608 LINE",
"711 1368 LINE",
"811 1368 LINE"
);
}
);
width = 1653;
}
);
unicode = 00C6;
},
{
glyphname = B;
lastChange = "2013-03-07 06:46:41 +0200";
layers = (
{
layerId = "2BEA1A6F-25C4-4A40-9A7D-95BA05285D07";
name = Light;
paths = (
{
closed = 1;
nodes = (
"207 1462 LINE",
"207 0 LINE",
"655 0 LINE SMOOTH",
"819 0 OFFCURVE",
"946 36 OFFCURVE",
"1035 109 CURVE SMOOTH",
"1124 182 OFFCURVE",
"1169 285 OFFCURVE",
"1169 420 CURVE SMOOTH",
"1169 621 OFFCURVE",
"1062 731 OFFCURVE",
"829 766 CURVE",
"829 772 LINE",
"1028 804 OFFCURVE",
"1133 923 OFFCURVE",
"1133 1092 CURVE SMOOTH",
"1133 1340 OFFCURVE",
"968 1462 OFFCURVE",
"608 1462 CURVE SMOOTH"
);
},
{
closed = 1;
nodes = (
"916 721 OFFCURVE",
"1059 621 OFFCURVE",
"1059 420 CURVE SMOOTH",
"1059 200 OFFCURVE",
"924 90 OFFCURVE",
"653 90 CURVE SMOOTH",
"309 90 LINE",
"309 721 LINE",
"631 721 LINE SMOOTH"
);
},
{
closed = 1;
nodes = (
"883 1372 OFFCURVE",
"1024 1289 OFFCURVE",
"1024 1094 CURVE SMOOTH",
"1024 899 OFFCURVE",
"906 811 OFFCURVE",
"631 811 CURVE SMOOTH",
"309 811 LINE",
"309 1372 LINE",
"604 1372 LINE SMOOTH"
);
}
);
width = 1284;
}
);
unicode = 0042;
},
{
glyphname = C;
lastChange = "2013-03-07 06:46:41 +0200";
layers = (
{
anchors = (
{
name = bottom;
position = "{636, 0}";
},
{
name = top;
position = "{636, 1462}";
}
);
layerId = "2BEA1A6F-25C4-4A40-9A7D-95BA05285D07";
name = Light;
paths = (
{
closed = 1;
nodes = (
"405 1489 OFFCURVE",
"123 1180 OFFCURVE",
"129 735 CURVE SMOOTH",
"129 497 OFFCURVE",
"188 312 OFFCURVE",
"306 179 CURVE SMOOTH",
"424 46 OFFCURVE",
"586 -20 OFFCURVE",
"791 -20 CURVE SMOOTH",
"936 -20 OFFCURVE",
"1056 -3 OFFCURVE",
"1153 31 CURVE",
"1153 121 LINE",
"1050 90 OFFCURVE",
"938 74 OFFCURVE",
"815 74 CURVE SMOOTH",
"630 74 OFFCURVE",
"488 132 OFFCURVE",
"389 247 CURVE SMOOTH",
"290 362 OFFCURVE",
"240 524 OFFCURVE",
"240 733 CURVE SMOOTH",
"240 937 OFFCURVE",
"293 1098 OFFCURVE",
"398 1215 CURVE SMOOTH",
"503 1332 OFFCURVE",
"648 1391 OFFCURVE",
"831 1391 CURVE SMOOTH",
"948 1391 OFFCURVE",
"1060 1364 OFFCURVE",
"1167 1311 CURVE",
"1208 1403 LINE",
"1095 1456 OFFCURVE",
"967 1483 OFFCURVE",
"825 1483 CURVE SMOOTH"
);
}
);
width = 1272;
}
);
unicode = 0043;
},
{
glyphname = Ccedilla;
lastChange = "2013-03-07 06:46:41 +0200";
layers = (
{
layerId = "2BEA1A6F-25C4-4A40-9A7D-95BA05285D07";
name = Light;
paths = (
{
closed = 1;
nodes = (
"685 1483 OFFCURVE",
"562 1452 OFFCURVE",
"457 1391 CURVE SMOOTH",
"245 1267 OFFCURVE",
"129 1032 OFFCURVE",
"129 735 CURVE SMOOTH",
"129 259 OFFCURVE",
"380 -20 OFFCURVE",
"791 -20 CURVE SMOOTH",
"936 -20 OFFCURVE",
"1056 -3 OFFCURVE",
"1153 31 CURVE",
"1153 121 LINE",
"1050 90 OFFCURVE",
"938 74 OFFCURVE",
"815 74 CURVE SMOOTH",
"446 74 OFFCURVE",
"240 316 OFFCURVE",
"240 733 CURVE SMOOTH",
"240 1141 OFFCURVE",
"464 1391 OFFCURVE",
"831 1391 CURVE SMOOTH",
"948 1391 OFFCURVE",
"1060 1364 OFFCURVE",
"1167 1311 CURVE",
"1208 1403 LINE",
"1095 1456 OFFCURVE",
"968 1483 OFFCURVE",
"825 1483 CURVE SMOOTH"
);
},
{
closed = 1;
nodes = (
"713 0 LINE",
"620 -174 LINE",
"749 -192 OFFCURVE",
"813 -232 OFFCURVE",
"813 -295 CURVE SMOOTH",
"813 -364 OFFCURVE",
"757 -403 OFFCURVE",
"653 -403 CURVE SMOOTH",
"612 -403 OFFCURVE",
"581 -400 OFFCURVE",
"561 -393 CURVE",
"561 -481 LINE",
"578 -488 OFFCURVE",
"610 -492 OFFCURVE",
"655 -492 CURVE SMOOTH",
"816 -492 OFFCURVE",
"911 -424 OFFCURVE",
"911 -291 CURVE SMOOTH",
"911 -200 OFFCURVE",
"855 -142 OFFCURVE",
"743 -117 CURVE",
"809 0 LINE"
);
}
);
width = 1272;
}
);
unicode = 00C7;
},
{
glyphname = D;
lastChange = "2013-03-07 06:46:41 +0200";
layers = (
{
anchors = (
{
name = center;
position = "{723, 731}";
},
{
name = top;
position = "{723, 1462}";
}
);
layerId = "2BEA1A6F-25C4-4A40-9A7D-95BA05285D07";
name = Light;
paths = (
{
closed = 1;
nodes = (
"207 1462 LINE",
"207 0 LINE",
"557 0 LINE SMOOTH",
"1056 0 OFFCURVE",
"1317 254 OFFCURVE",
"1317 745 CURVE SMOOTH",
"1317 1213 OFFCURVE",
"1069 1462 OFFCURVE",
"602 1462 CURVE SMOOTH"
);
},
{
closed = 1;
nodes = (
"989 1372 OFFCURVE",
"1206 1160 OFFCURVE",
"1206 741 CURVE SMOOTH",
"1206 307 OFFCURVE",
"987 90 OFFCURVE",
"551 90 CURVE SMOOTH",
"309 90 LINE",
"309 1372 LINE",
"578 1372 LINE SMOOTH"
);
}
);
width = 1446;
}
);
unicode = 0044;
},
{
glyphname = Eth;
lastChange = "2013-03-07 06:46:41 +0200";
layers = (
{
layerId = "2BEA1A6F-25C4-4A40-9A7D-95BA05285D07";
name = Light;
paths = (
{
closed = 1;
nodes = (
"207 1462 LINE",
"207 772 LINE",
"47 772 LINE",
"47 678 LINE",
"207 678 LINE",
"207 0 LINE",
"557 0 LINE SMOOTH",
"1056 0 OFFCURVE",
"1317 254 OFFCURVE",
"1317 745 CURVE SMOOTH",
"1317 1213 OFFCURVE",
"1069 1462 OFFCURVE",
"602 1462 CURVE SMOOTH"
);
},
{
closed = 1;
nodes = (
"990 1372 OFFCURVE",
"1206 1160 OFFCURVE",
"1206 741 CURVE SMOOTH",
"1206 307 OFFCURVE",
"988 90 OFFCURVE",
"551 90 CURVE SMOOTH",
"309 90 LINE",
"309 678 LINE",
"715 678 LINE",
"715 772 LINE",
"309 772 LINE",
"309 1372 LINE",
"578 1372 LINE SMOOTH"
);
}
);
width = 1466;
}
);
unicode = 00D0;
},
{
glyphname = E;
lastChange = "2013-03-07 06:46:41 +0200";
layers = (
{
anchors = (
{
name = bottom;
position = "{565, 0}";
},
{
name = ogonek;
position = "{1017, 10}";
},
{
name = top;
position = "{565, 1462}";
}
);
layerId = "2BEA1A6F-25C4-4A40-9A7D-95BA05285D07";
name = Light;
paths = (
{
closed = 1;
nodes = (
"207 1462 LINE",
"207 0 LINE",
"1006 0 LINE",
"1006 93 LINE",
"309 93 LINE",
"309 721 LINE",
"967 721 LINE",
"967 815 LINE",
"309 815 LINE",
"309 1368 LINE",
"1006 1368 LINE",
"1006 1462 LINE"
);
}
);
width = 1130;
}
);
unicode = 0045;
},
{
glyphname = Eacute;
lastChange = "2013-03-07 06:46:41 +0200";
layers = (
{
layerId = "2BEA1A6F-25C4-4A40-9A7D-95BA05285D07";
name = Light;
paths = (
{
closed = 1;
nodes = (
"207 1462 LINE",
"207 0 LINE",
"1006 0 LINE",
"1006 94 LINE",
"309 94 LINE",
"309 721 LINE",
"967 721 LINE",
"967 815 LINE",
"309 815 LINE",
"309 1368 LINE",
"1006 1368 LINE",
"1006 1462 LINE"
);
},
{
closed = 1;
nodes = (
"705 1907 LINE",
"670 1843 OFFCURVE",
"560 1700 OFFCURVE",
"463 1595 CURVE",
"463 1579 LINE",
"533 1579 LINE",
"672 1695 OFFCURVE",
"798 1821 OFFCURVE",
"846 1890 CURVE",
"846 1907 LINE"
);
}
);
width = 1130;
}
);
unicode = 00C9;
},
{
glyphname = Ecircumflex;
lastChange = "2013-03-07 06:46:41 +0200";
layers = (
{
layerId = "2BEA1A6F-25C4-4A40-9A7D-95BA05285D07";
name = Light;
paths = (
{
closed = 1;
nodes = (
"207 1462 LINE",
"207 0 LINE",
"1006 0 LINE",
"1006 94 LINE",
"309 94 LINE",
"309 721 LINE",
"967 721 LINE",
"967 815 LINE",
"309 815 LINE",
"309 1368 LINE",
"1006 1368 LINE",
"1006 1462 LINE"
);
},
{
closed = 1;
nodes = (
"557 1907 LINE",
"502 1818 OFFCURVE",
"398 1684 OFFCURVE",
"315 1595 CURVE",
"315 1579 LINE",
"385 1579 LINE",
"460 1641 OFFCURVE",
"534 1710 OFFCURVE",
"606 1786 CURVE",
"672 1715 OFFCURVE",
"746 1646 OFFCURVE",
"827 1579 CURVE",
"897 1579 LINE",
"897 1595 LINE",
"781 1723 OFFCURVE",
"700 1827 OFFCURVE",
"655 1907 CURVE"
);
}
);
width = 1130;
}
);
unicode = 00CA;
},
{
glyphname = Edieresis;
lastChange = "2013-03-07 06:46:41 +0200";
layers = (
{
layerId = "2BEA1A6F-25C4-4A40-9A7D-95BA05285D07";
name = Light;
paths = (
{
closed = 1;
nodes = (
"207 1462 LINE",
"207 0 LINE",
"1006 0 LINE",
"1006 94 LINE",
"309 94 LINE",
"309 721 LINE",
"967 721 LINE",
"967 815 LINE",
"309 815 LINE",
"309 1368 LINE",
"1006 1368 LINE",
"1006 1462 LINE"
);
},
{
closed = 1;
nodes = (
"374 1813 OFFCURVE",
"354 1788 OFFCURVE",
"354 1727 CURVE SMOOTH",
"354 1670 OFFCURVE",
"375 1641 OFFCURVE",
"417 1641 CURVE SMOOTH",
"460 1641 OFFCURVE",
"481 1670 OFFCURVE",
"481 1727 CURVE SMOOTH",
"481 1784 OFFCURVE",
"460 1813 OFFCURVE",
"417 1813 CURVE SMOOTH"
);
},
{
closed = 1;
nodes = (
"755 1813 OFFCURVE",
"735 1788 OFFCURVE",
"735 1727 CURVE SMOOTH",
"735 1670 OFFCURVE",
"756 1641 OFFCURVE",
"798 1641 CURVE SMOOTH",
"841 1641 OFFCURVE",
"862 1670 OFFCURVE",
"862 1727 CURVE SMOOTH",
"862 1784 OFFCURVE",
"841 1813 OFFCURVE",
"798 1813 CURVE SMOOTH"
);
}
);
width = 1130;
}
);
unicode = 00CB;
},
{
glyphname = Egrave;
lastChange = "2013-03-07 06:46:41 +0200";
layers = (
{
layerId = "2BEA1A6F-25C4-4A40-9A7D-95BA05285D07";
name = Light;
paths = (
{
closed = 1;
nodes = (
"207 1462 LINE",
"207 0 LINE",
"1006 0 LINE",
"1006 94 LINE",
"309 94 LINE",
"309 721 LINE",
"967 721 LINE",
"967 815 LINE",
"309 815 LINE",
"309 1368 LINE",
"1006 1368 LINE",
"1006 1462 LINE"
);
},
{
closed = 1;
nodes = (
"314 1907 LINE",
"314 1890 LINE",
"358 1827 OFFCURVE",
"500 1684 OFFCURVE",
"628 1579 CURVE",
"697 1579 LINE",
"697 1595 LINE",
"604 1696 OFFCURVE",
"491 1843 OFFCURVE",
"456 1907 CURVE"
);
}
);
width = 1130;
}
);
unicode = 00C8;
},
{
glyphname = F;
lastChange = "2013-03-07 06:46:41 +0200";
layers = (
{
layerId = "2BEA1A6F-25C4-4A40-9A7D-95BA05285D07";
name = Light;
paths = (
{
closed = 1;
nodes = (
"207 1462 LINE",
"207 0 LINE",
"309 0 LINE",
"309 653 LINE",
"968 653 LINE",
"968 748 LINE",
"309 748 LINE",
"309 1368 LINE",
"1008 1368 LINE",
"1008 1462 LINE"
);
}
);
width = 1028;
}
);
unicode = 0046;
},
{
glyphname = G;
lastChange = "2013-03-07 06:46:41 +0200";
layers = (
{
anchors = (
{
name = bottom;
position = "{741, 0}";
},
{
name = top;
position = "{741, 1462}";
}
);
layerId = "2BEA1A6F-25C4-4A40-9A7D-95BA05285D07";
name = Light;
paths = (
{
closed = 1;
nodes = (
"727 1485 OFFCURVE",
"596 1454 OFFCURVE",
"482 1391 CURVE SMOOTH",
"369 1328 OFFCURVE",
"281 1239 OFFCURVE",
"220 1124 CURVE SMOOTH",
"159 1009 OFFCURVE",
"129 878 OFFCURVE",
"129 729 CURVE SMOOTH",
"129 490 OFFCURVE",
"190 306 OFFCURVE",
"313 175 CURVE SMOOTH",
"436 45 OFFCURVE",
"613 -20 OFFCURVE",
"844 -20 CURVE SMOOTH",
"1021 -20 OFFCURVE",
"1180 9 OFFCURVE",
"1321 70 CURVE",
"1321 737 LINE",
"782 737 LINE",
"782 641 LINE",
"1217 641 LINE",
"1217 127 LINE",
"1123 89 OFFCURVE",
"1009 70 OFFCURVE",
"874 70 CURVE SMOOTH",
"458 70 OFFCURVE",
"240 293 OFFCURVE",
"240 733 CURVE SMOOTH",
"240 935 OFFCURVE",
"296 1095 OFFCURVE",
"409 1214 CURVE SMOOTH",
"522 1333 OFFCURVE",
"675 1393 OFFCURVE",
"868 1393 CURVE SMOOTH",
"1004 1393 OFFCURVE",
"1135 1364 OFFCURVE",
"1262 1305 CURVE",
"1303 1397 LINE",
"1176 1456 OFFCURVE",
"1033 1485 OFFCURVE",
"874 1485 CURVE SMOOTH"
);
}
);
width = 1481;
}
);
unicode = 0047;
},
{
glyphname = H;
lastChange = "2013-03-07 06:46:41 +0200";
layers = (
{
anchors = (
{
name = center;
position = "{737, 731}";
},
{
name = top;
position = "{737, 1462}";
}
);
layerId = "2BEA1A6F-25C4-4A40-9A7D-95BA05285D07";
name = Light;
paths = (
{
closed = 1;
nodes = (
"1163 1462 LINE",
"1163 813 LINE",
"309 813 LINE",
"309 1462 LINE",
"207 1462 LINE",
"207 0 LINE",
"309 0 LINE",
"309 719 LINE",
"1163 719 LINE",
"1163 0 LINE",
"1266 0 LINE",
"1266 1462 LINE"
);
}
);
width = 1473;
}
);
unicode = 0048;
},
{
glyphname = I;
lastChange = "2013-03-07 06:46:41 +0200";
layers = (
{
anchors = (
{
name = ogonek;
position = "{464, 10}";
},
{
name = top;
position = "{258, 1462}";
}
);
layerId = "2BEA1A6F-25C4-4A40-9A7D-95BA05285D07";
name = Light;
paths = (
{
closed = 1;
nodes = (
"207 1462 LINE",
"207 0 LINE",
"309 0 LINE",
"309 1462 LINE"
);
}
);
width = 516;
}
);
unicode = 0049;
},
{
glyphname = Iacute;
lastChange = "2013-03-07 06:46:41 +0200";
layers = (
{
layerId = "2BEA1A6F-25C4-4A40-9A7D-95BA05285D07";
name = Light;
paths = (
{
closed = 1;
nodes = (
"207 1462 LINE",
"207 0 LINE",
"309 0 LINE",
"309 1462 LINE"
);
},
{
closed = 1;
nodes = (
"433 1907 LINE",
"398 1843 OFFCURVE",
"288 1700 OFFCURVE",
"191 1595 CURVE",
"191 1579 LINE",
"261 1579 LINE",
"400 1695 OFFCURVE",
"526 1821 OFFCURVE",
"574 1890 CURVE",
"574 1907 LINE"
);
}
);
width = 516;
}
);
unicode = 00CD;
},
{
glyphname = Icircumflex;
lastChange = "2013-03-07 06:46:41 +0200";
layers = (
{
layerId = "2BEA1A6F-25C4-4A40-9A7D-95BA05285D07";
name = Light;
paths = (
{
closed = 1;
nodes = (
"210 1907 LINE",
"155 1818 OFFCURVE",
"51 1684 OFFCURVE",
"-32 1595 CURVE",
"-32 1579 LINE",
"38 1579 LINE",
"113 1641 OFFCURVE",
"187 1710 OFFCURVE",
"259 1786 CURVE",
"325 1715 OFFCURVE",
"399 1646 OFFCURVE",
"480 1579 CURVE",
"550 1579 LINE",
"550 1595 LINE",
"434 1723 OFFCURVE",
"353 1827 OFFCURVE",
"308 1907 CURVE"
);
},
{
closed = 1;
nodes = (
"207 1462 LINE",
"207 0 LINE",
"309 0 LINE",
"309 1462 LINE"
);
}
);
width = 516;
}
);
unicode = 00CE;
},
{
glyphname = Idieresis;
lastChange = "2013-03-07 06:46:41 +0200";
layers = (
{
layerId = "2BEA1A6F-25C4-4A40-9A7D-95BA05285D07";
name = Light;
paths = (
{
closed = 1;
nodes = (
"207 1462 LINE",
"207 0 LINE",
"309 0 LINE",
"309 1462 LINE"
);
},
{
closed = 1;
nodes = (
"25 1813 OFFCURVE",
"5 1788 OFFCURVE",
"5 1727 CURVE SMOOTH",
"5 1670 OFFCURVE",
"26 1641 OFFCURVE",
"68 1641 CURVE SMOOTH",
"111 1641 OFFCURVE",
"132 1670 OFFCURVE",
"132 1727 CURVE SMOOTH",
"132 1784 OFFCURVE",
"111 1813 OFFCURVE",
"68 1813 CURVE SMOOTH"
);
},
{
closed = 1;
nodes = (
"406 1813 OFFCURVE",
"386 1788 OFFCURVE",
"386 1727 CURVE SMOOTH",
"386 1670 OFFCURVE",
"407 1641 OFFCURVE",
"449 1641 CURVE SMOOTH",
"492 1641 OFFCURVE",
"513 1670 OFFCURVE",
"513 1727 CURVE SMOOTH",
"513 1784 OFFCURVE",
"492 1813 OFFCURVE",
"449 1813 CURVE SMOOTH"
);
}
);
width = 516;
}
);
unicode = 00CF;
},
{
glyphname = Igrave;
lastChange = "2013-03-07 06:46:41 +0200";
layers = (
{
layerId = "2BEA1A6F-25C4-4A40-9A7D-95BA05285D07";
name = Light;
paths = (
{
closed = 1;
nodes = (
"207 1462 LINE",
"207 0 LINE",
"309 0 LINE",
"309 1462 LINE"
);
},
{
closed = 1;
nodes = (
"-63 1907 LINE",
"-63 1890 LINE",
"-19 1827 OFFCURVE",
"123 1684 OFFCURVE",
"251 1579 CURVE",
"320 1579 LINE",
"320 1595 LINE",
"227 1696 OFFCURVE",
"114 1843 OFFCURVE",
"79 1907 CURVE"
);
}
);
width = 516;
}
);
unicode = 00CC;
},
{
glyphname = J;
lastChange = "2013-03-07 06:46:41 +0200";
layers = (
{
anchors = (
{
name = top;
position = "{253, 1462}";
}
);
layerId = "2BEA1A6F-25C4-4A40-9A7D-95BA05285D07";
name = Light;
paths = (
{
closed = 1;
nodes = (
"207 1462 LINE",
"207 -9 LINE SMOOTH",
"207 -186 OFFCURVE",
"126 -274 OFFCURVE",
"-35 -274 CURVE SMOOTH",
"-82 -274 OFFCURVE",
"-132 -267 OFFCURVE",
"-184 -254 CURVE",
"-184 -342 LINE",
"-145 -360 OFFCURVE",
"-93 -369 OFFCURVE",
"-33 -369 CURVE SMOOTH",
"195 -369 OFFCURVE",
"309 -246 OFFCURVE",
"309 0 CURVE SMOOTH",
"309 1462 LINE"
);
}
);
width = 506;
}
);
unicode = 004A;
},
{
glyphname = K;
lastChange = "2013-03-07 06:46:41 +0200";
layers = (
{
anchors = (
{
name = bottom;
position = "{595, 0}";
},
{
name = top;
position = "{595, 1462}";
}
);
layerId = "2BEA1A6F-25C4-4A40-9A7D-95BA05285D07";
name = Light;
paths = (
{
closed = 1;
nodes = (
"1044 1462 LINE",
"471 864 LINE",
"309 702 LINE",
"309 1462 LINE",
"207 1462 LINE",
"207 0 LINE",
"309 0 LINE",
"309 600 LINE",
"504 772 LINE",
"1065 0 LINE",
"1190 0 LINE",
"575 844 LINE",
"1174 1462 LINE"
);
}
);
width = 1190;
}
);
unicode = 004B;
},
{
glyphname = L;
lastChange = "2013-03-07 06:46:41 +0200";
layers = (
{
anchors = (
{
name = bottom;
position = "{526, 0}";
},
{
name = top;
position = "{526, 1462}";
}
);
layerId = "2BEA1A6F-25C4-4A40-9A7D-95BA05285D07";
name = Light;
paths = (
{
closed = 1;
nodes = (
"207 1462 LINE",
"207 0 LINE",
"1006 0 LINE",
"1006 95 LINE",
"309 95 LINE",
"309 1462 LINE"
);
}
);
width = 1051;
}
);
unicode = 004C;
},
{
glyphname = M;
lastChange = "2013-03-07 06:46:41 +0200";
layers = (
{
layerId = "2BEA1A6F-25C4-4A40-9A7D-95BA05285D07";
name = Light;
paths = (
{
closed = 1;
nodes = (
"1407 1462 LINE",
"889 176 LINE",
"883 176 LINE",
"365 1462 LINE",
"207 1462 LINE",
"207 0 LINE",
"305 0 LINE",
"305 1096 LINE SMOOTH",
"305 1183 OFFCURVE",
"302 1267 OFFCURVE",
"297 1350 CURVE",
"305 1350 LINE",
"850 0 LINE",
"915 0 LINE",
"1462 1348 LINE",
"1470 1348 LINE",
"1462 1265 OFFCURVE",
"1458 1185 OFFCURVE",
"1458 1108 CURVE SMOOTH",
"1458 0 LINE",
"1561 0 LINE",
"1561 1462 LINE"
);
}
);
width = 1767;
}
);
unicode = 004D;
},
{
glyphname = N;
lastChange = "2013-03-07 06:46:41 +0200";
layers = (
{
anchors = (
{
name = bottom;
position = "{739, 0}";
},
{
name = top;
position = "{739, 1462}";
}
);
layerId = "2BEA1A6F-25C4-4A40-9A7D-95BA05285D07";
name = Light;
paths = (
{
closed = 1;
nodes = (
"1171 1462 LINE",
"1171 508 LINE SMOOTH",
"1171 400 OFFCURVE",
"1174 286 OFFCURVE",
"1180 166 CURVE",
"1174 166 LINE",
"309 1462 LINE",
"207 1462 LINE",
"207 0 LINE",
"305 0 LINE",
"305 948 LINE SMOOTH",
"305 1027 OFFCURVE",
"301 1143 OFFCURVE",
"293 1298 CURVE",
"301 1298 LINE",
"1167 0 LINE",
"1270 0 LINE",
"1270 1462 LINE"
);
}
);
width = 1477;
}
);
unicode = 004E;
},
{
glyphname = Ntilde;
lastChange = "2013-03-07 06:46:41 +0200";
layers = (
{
layerId = "2BEA1A6F-25C4-4A40-9A7D-95BA05285D07";
name = Light;
paths = (
{
closed = 1;
nodes = (
"1171 1462 LINE",
"1171 508 LINE SMOOTH",
"1171 400 OFFCURVE",
"1174 286 OFFCURVE",
"1180 166 CURVE",
"1174 166 LINE",
"309 1462 LINE",
"207 1462 LINE",
"207 0 LINE",
"305 0 LINE",
"305 948 LINE SMOOTH",
"305 1027 OFFCURVE",
"301 1143 OFFCURVE",
"293 1298 CURVE",
"301 1298 LINE",
"1167 0 LINE",
"1270 0 LINE",
"1270 1462 LINE"
);
},
{
closed = 1;
nodes = (
"1022 1819 LINE",
"999 1708 OFFCURVE",
"958 1663 OFFCURVE",
"897 1663 CURVE SMOOTH",
"858 1663 OFFCURVE",
"815 1698 OFFCURVE",
"770 1735 CURVE SMOOTH",
"714 1780 OFFCURVE",
"664 1819 OFFCURVE",
"600 1819 CURVE SMOOTH",
"488 1819 OFFCURVE",
"413 1729 OFFCURVE",
"400 1581 CURVE",
"473 1581 LINE",
"497 1697 OFFCURVE",
"536 1737 OFFCURVE",
"596 1737 CURVE SMOOTH",
"639 1737 OFFCURVE",
"678 1706 OFFCURVE",
"721 1671 CURVE SMOOTH",
"804 1600 OFFCURVE",
"849 1581 OFFCURVE",
"897 1581 CURVE SMOOTH",
"1002 1581 OFFCURVE",
"1077 1664 OFFCURVE",
"1098 1819 CURVE"
);
}
);
width = 1477;
}
);
unicode = 00D1;
},
{
glyphname = O;
lastChange = "2013-03-07 06:46:41 +0200";
layers = (
{
anchors = (
{
name = top;
position = "{783, 1462}";
}
);
layerId = "2BEA1A6F-25C4-4A40-9A7D-95BA05285D07";
name = Light;
paths = (
{
closed = 1;
nodes = (
"581 1485 OFFCURVE",
"421 1418 OFFCURVE",
"304 1284 CURVE SMOOTH",
"187 1151 OFFCURVE",
"129 967 OFFCURVE",
"129 735 CURVE SMOOTH",
"129 502 OFFCURVE",
"187 317 OFFCURVE",
"303 182 CURVE SMOOTH",
"419 47 OFFCURVE",
"579 -20 OFFCURVE",
"782 -20 CURVE SMOOTH",
"985 -20 OFFCURVE",
"1146 47 OFFCURVE",
"1262 182 CURVE SMOOTH",
"1378 317 OFFCURVE",
"1436 501 OFFCURVE",
"1436 733 CURVE SMOOTH",
"1436 966 OFFCURVE",
"1378 1149 OFFCURVE",
"1263 1283 CURVE SMOOTH",
"1148 1418 OFFCURVE",
"987 1485 OFFCURVE",
"784 1485 CURVE SMOOTH"
);
},
{
closed = 1;
nodes = (
"1133 1386 OFFCURVE",
"1325 1154 OFFCURVE",
"1325 733 CURVE SMOOTH",
"1325 522 OFFCURVE",
"1278 359 OFFCURVE",
"1185 246 CURVE SMOOTH",
"1092 133 OFFCURVE",
"958 76 OFFCURVE",
"782 76 CURVE SMOOTH",
"607 76 OFFCURVE",
"473 133 OFFCURVE",
"380 247 CURVE SMOOTH",
"287 362 OFFCURVE",
"240 524 OFFCURVE",
"240 733 CURVE SMOOTH",
"240 942 OFFCURVE",
"287 1103 OFFCURVE",
"381 1216 CURVE SMOOTH",
"476 1329 OFFCURVE",
"610 1386 OFFCURVE",
"784 1386 CURVE SMOOTH"
);
}
);
width = 1565;
}
);
unicode = 004F;
},
{
glyphname = Oacute;
lastChange = "2013-03-07 06:46:41 +0200";
layers = (
{
layerId = "2BEA1A6F-25C4-4A40-9A7D-95BA05285D07";
name = Light;
paths = (
{
closed = 1;
nodes = (
"379 1485 OFFCURVE",
"129 1200 OFFCURVE",
"129 735 CURVE SMOOTH",
"129 268 OFFCURVE",
"375 -20 OFFCURVE",
"782 -20 CURVE SMOOTH",
"1190 -20 OFFCURVE",
"1436 269 OFFCURVE",
"1436 733 CURVE SMOOTH",
"1436 1198 OFFCURVE",
"1192 1485 OFFCURVE",
"784 1485 CURVE SMOOTH"
);
},
{
closed = 1;
nodes = (
"1133 1386 OFFCURVE",
"1325 1154 OFFCURVE",
"1325 733 CURVE SMOOTH",
"1325 310 OFFCURVE",
"1134 76 OFFCURVE",
"782 76 CURVE SMOOTH",
"433 76 OFFCURVE",
"240 314 OFFCURVE",
"240 733 CURVE SMOOTH",
"240 1150 OFFCURVE",
"436 1386 OFFCURVE",
"784 1386 CURVE SMOOTH"
);
},
{
closed = 1;
nodes = (
"928 1907 LINE",
"893 1843 OFFCURVE",
"783 1700 OFFCURVE",
"686 1595 CURVE",
"686 1579 LINE",
"756 1579 LINE",
"895 1695 OFFCURVE",
"1021 1821 OFFCURVE",
"1069 1890 CURVE",
"1069 1907 LINE"
);
}
);
width = 1565;
}
);
unicode = 00D3;
},
{
glyphname = Ocircumflex;
lastChange = "2013-03-07 06:46:41 +0200";
layers = (
{
layerId = "2BEA1A6F-25C4-4A40-9A7D-95BA05285D07";
name = Light;
paths = (
{
closed = 1;
nodes = (
"379 1485 OFFCURVE",
"129 1200 OFFCURVE",
"129 735 CURVE SMOOTH",
"129 268 OFFCURVE",
"375 -20 OFFCURVE",
"782 -20 CURVE SMOOTH",
"1190 -20 OFFCURVE",
"1436 269 OFFCURVE",
"1436 733 CURVE SMOOTH",
"1436 1198 OFFCURVE",
"1192 1485 OFFCURVE",
"784 1485 CURVE SMOOTH"
);
},
{
closed = 1;
nodes = (
"1133 1386 OFFCURVE",
"1325 1154 OFFCURVE",
"1325 733 CURVE SMOOTH",
"1325 310 OFFCURVE",
"1134 76 OFFCURVE",
"782 76 CURVE SMOOTH",
"433 76 OFFCURVE",
"240 314 OFFCURVE",
"240 733 CURVE SMOOTH",
"240 1150 OFFCURVE",
"436 1386 OFFCURVE",
"784 1386 CURVE SMOOTH"
);
},
{
closed = 1;
nodes = (
"734 1907 LINE",
"679 1818 OFFCURVE",
"575 1684 OFFCURVE",
"492 1595 CURVE",
"492 1579 LINE",
"562 1579 LINE",
"637 1641 OFFCURVE",
"711 1710 OFFCURVE",
"783 1786 CURVE",
"849 1715 OFFCURVE",
"923 1646 OFFCURVE",
"1004 1579 CURVE",
"1074 1579 LINE",
"1074 1595 LINE",
"958 1723 OFFCURVE",
"877 1827 OFFCURVE",
"832 1907 CURVE"
);
}
);
width = 1565;
}
);
unicode = 00D4;
},
{
glyphname = Odieresis;
lastChange = "2013-03-07 06:46:41 +0200";
layers = (
{
layerId = "2BEA1A6F-25C4-4A40-9A7D-95BA05285D07";
name = Light;
paths = (
{
closed = 1;
nodes = (
"379 1485 OFFCURVE",
"129 1200 OFFCURVE",
"129 735 CURVE SMOOTH",
"129 268 OFFCURVE",
"375 -20 OFFCURVE",
"782 -20 CURVE SMOOTH",
"1190 -20 OFFCURVE",
"1436 269 OFFCURVE",
"1436 733 CURVE SMOOTH",
"1436 1198 OFFCURVE",
"1192 1485 OFFCURVE",
"784 1485 CURVE SMOOTH"
);
},
{
closed = 1;
nodes = (
"1133 1386 OFFCURVE",
"1325 1154 OFFCURVE",
"1325 733 CURVE SMOOTH",
"1325 310 OFFCURVE",
"1134 76 OFFCURVE",
"782 76 CURVE SMOOTH",
"433 76 OFFCURVE",
"240 314 OFFCURVE",
"240 733 CURVE SMOOTH",
"240 1150 OFFCURVE",
"436 1386 OFFCURVE",
"784 1386 CURVE SMOOTH"
);
},
{
closed = 1;
nodes = (
"549 1813 OFFCURVE",
"529 1788 OFFCURVE",
"529 1727 CURVE SMOOTH",
"529 1670 OFFCURVE",
"550 1641 OFFCURVE",
"592 1641 CURVE SMOOTH",
"635 1641 OFFCURVE",
"656 1670 OFFCURVE",
"656 1727 CURVE SMOOTH",
"656 1784 OFFCURVE",
"635 1813 OFFCURVE",
"592 1813 CURVE SMOOTH"
);
},
{
closed = 1;
nodes = (
"930 1813 OFFCURVE",
"910 1788 OFFCURVE",
"910 1727 CURVE SMOOTH",
"910 1670 OFFCURVE",
"931 1641 OFFCURVE",
"973 1641 CURVE SMOOTH",
"1016 1641 OFFCURVE",
"1037 1670 OFFCURVE",
"1037 1727 CURVE SMOOTH",
"1037 1784 OFFCURVE",
"1016 1813 OFFCURVE",
"973 1813 CURVE SMOOTH"
);
}
);
width = 1565;
}
);
unicode = 00D6;
},
{
glyphname = Ograve;
lastChange = "2013-03-07 06:46:41 +0200";
layers = (
{
layerId = "2BEA1A6F-25C4-4A40-9A7D-95BA05285D07";
name = Light;
paths = (
{
closed = 1;
nodes = (
"379 1485 OFFCURVE",
"129 1200 OFFCURVE",
"129 735 CURVE SMOOTH",
"129 268 OFFCURVE",
"375 -20 OFFCURVE",
"782 -20 CURVE SMOOTH",
"1190 -20 OFFCURVE",
"1436 269 OFFCURVE",
"1436 733 CURVE SMOOTH",
"1436 1198 OFFCURVE",
"1192 1485 OFFCURVE",
"784 1485 CURVE SMOOTH"
);
},
{
closed = 1;
nodes = (
"1133 1386 OFFCURVE",
"1325 1154 OFFCURVE",
"1325 733 CURVE SMOOTH",
"1325 310 OFFCURVE",
"1134 76 OFFCURVE",
"782 76 CURVE SMOOTH",
"433 76 OFFCURVE",
"240 314 OFFCURVE",
"240 733 CURVE SMOOTH",
"240 1150 OFFCURVE",
"436 1386 OFFCURVE",
"784 1386 CURVE SMOOTH"
);
},
{
closed = 1;
nodes = (
"502 1907 LINE",
"502 1890 LINE",
"546 1827 OFFCURVE",
"688 1684 OFFCURVE",
"816 1579 CURVE",
"885 1579 LINE",
"885 1595 LINE",
"792 1696 OFFCURVE",
"679 1843 OFFCURVE",
"644 1907 CURVE"
);
}
);
width = 1565;
}
);
unicode = 00D2;
},
{
glyphname = Oslash;
lastChange = "2013-03-07 06:46:41 +0200";
layers = (
{
layerId = "2BEA1A6F-25C4-4A40-9A7D-95BA05285D07";
name = Light;
paths = (
{
closed = 1;
nodes = (
"1176 1364 LINE",
"1069 1445 OFFCURVE",
"939 1485 OFFCURVE",
"784 1485 CURVE SMOOTH",
"379 1485 OFFCURVE",
"129 1200 OFFCURVE",
"129 735 CURVE SMOOTH",
"129 489 OFFCURVE",
"192 299 OFFCURVE",
"317 166 CURVE",
"227 39 LINE",
"301 -20 LINE",
"387 100 LINE",
"493 20 OFFCURVE",
"625 -20 OFFCURVE",
"782 -20 CURVE SMOOTH",
"1190 -20 OFFCURVE",
"1436 269 OFFCURVE",
"1436 733 CURVE SMOOTH",
"1436 975 OFFCURVE",
"1372 1165 OFFCURVE",
"1245 1303 CURVE",
"1356 1456 LINE",
"1284 1516 LINE"
);
},
{
closed = 1;
nodes = (
"918 1386 OFFCURVE",
"1029 1352 OFFCURVE",
"1118 1284 CURVE",
"379 250 LINE",
"286 364 OFFCURVE",
"240 525 OFFCURVE",
"240 733 CURVE SMOOTH",
"240 1150 OFFCURVE",
"436 1386 OFFCURVE",
"784 1386 CURVE SMOOTH"
);
},
{
closed = 1;
nodes = (
"1279 1105 OFFCURVE",
"1325 943 OFFCURVE",
"1325 733 CURVE SMOOTH",
"1325 310 OFFCURVE",
"1134 76 OFFCURVE",
"782 76 CURVE SMOOTH",
"645 76 OFFCURVE",
"533 111 OFFCURVE",
"444 182 CURVE",
"1186 1219 LINE"
);
}
);
width = 1565;
}
);
unicode = 00D8;
},
{
glyphname = Otilde;
lastChange = "2013-03-07 06:46:41 +0200";
layers = (
{
layerId = "2BEA1A6F-25C4-4A40-9A7D-95BA05285D07";
name = Light;
paths = (
{
closed = 1;
nodes = (
"379 1485 OFFCURVE",
"129 1200 OFFCURVE",
"129 735 CURVE SMOOTH",
"129 268 OFFCURVE",
"375 -20 OFFCURVE",
"782 -20 CURVE SMOOTH",
"1190 -20 OFFCURVE",
"1436 269 OFFCURVE",
"1436 733 CURVE SMOOTH",
"1436 1198 OFFCURVE",
"1192 1485 OFFCURVE",
"784 1485 CURVE SMOOTH"
);
},
{
closed = 1;
nodes = (
"1133 1386 OFFCURVE",
"1325 1154 OFFCURVE",
"1325 733 CURVE SMOOTH",
"1325 310 OFFCURVE",
"1134 76 OFFCURVE",
"782 76 CURVE SMOOTH",
"433 76 OFFCURVE",
"240 314 OFFCURVE",
"240 733 CURVE SMOOTH",
"240 1150 OFFCURVE",
"436 1386 OFFCURVE",
"784 1386 CURVE SMOOTH"
);
},
{
closed = 1;
nodes = (
"1065 1819 LINE",
"1042 1708 OFFCURVE",
"1001 1663 OFFCURVE",
"940 1663 CURVE SMOOTH",
"901 1663 OFFCURVE",
"858 1698 OFFCURVE",
"813 1735 CURVE SMOOTH",
"757 1780 OFFCURVE",
"707 1819 OFFCURVE",
"643 1819 CURVE SMOOTH",
"531 1819 OFFCURVE",
"456 1729 OFFCURVE",
"443 1581 CURVE",
"516 1581 LINE",
"540 1697 OFFCURVE",
"579 1737 OFFCURVE",
"639 1737 CURVE SMOOTH",
"682 1737 OFFCURVE",
"721 1706 OFFCURVE",
"764 1671 CURVE SMOOTH",
"847 1600 OFFCURVE",
"892 1581 OFFCURVE",
"940 1581 CURVE SMOOTH",
"1045 1581 OFFCURVE",
"1120 1664 OFFCURVE",
"1141 1819 CURVE"
);
}
);
width = 1565;
}
);
unicode = 00D5;
},
{
glyphname = OE;
lastChange = "2013-03-07 06:46:41 +0200";
layers = (
{
layerId = "2BEA1A6F-25C4-4A40-9A7D-95BA05285D07";
name = Light;
paths = (
{
closed = 1;
nodes = (
"376 1479 OFFCURVE",
"129 1198 OFFCURVE",
"129 735 CURVE SMOOTH",
"129 267 OFFCURVE",
"375 -16 OFFCURVE",
"782 -16 CURVE SMOOTH",
"849 -16 OFFCURVE",
"907 -11 OFFCURVE",
"958 0 CURVE",
"1714 0 LINE",
"1714 94 LINE",
"1059 94 LINE",
"1059 721 LINE",
"1675 721 LINE",
"1675 815 LINE",
"1059 815 LINE",
"1059 1368 LINE",
"1714 1368 LINE",
"1714 1462 LINE",
"967 1462 LINE",
"897 1473 OFFCURVE",
"836 1479 OFFCURVE",
"784 1479 CURVE SMOOTH"
);
},
{
closed = 1;
nodes = (
"857 1380 OFFCURVE",
"915 1375 OFFCURVE",
"956 1364 CURVE",
"956 98 LINE",
"913 86 OFFCURVE",
"855 80 OFFCURVE",
"782 80 CURVE SMOOTH",
"434 80 OFFCURVE",
"240 313 OFFCURVE",
"240 733 CURVE SMOOTH",
"240 1149 OFFCURVE",
"435 1380 OFFCURVE",
"784 1380 CURVE SMOOTH"
);
}
);
width = 1839;
}
);
unicode = 0152;
},
{
glyphname = P;
lastChange = "2013-03-07 06:46:41 +0200";
layers = (
{
layerId = "2BEA1A6F-25C4-4A40-9A7D-95BA05285D07";
name = Light;
paths = (
{
closed = 1;
nodes = (
"207 1462 LINE",
"207 0 LINE",
"309 0 LINE",
"309 604 LINE",
"535 604 LINE SMOOTH",
"711 604 OFFCURVE",
"847 642 OFFCURVE",
"943 717 CURVE SMOOTH",
"1039 792 OFFCURVE",
"1087 901 OFFCURVE",
"1087 1042 CURVE SMOOTH",
"1087 1322 OFFCURVE",
"913 1462 OFFCURVE",
"565 1462 CURVE SMOOTH"
);
},
{
closed = 1;
nodes = (
"842 1370 OFFCURVE",
"976 1263 OFFCURVE",
"976 1038 CURVE SMOOTH",
"976 916 OFFCURVE",
"940 828 OFFCURVE",
"867 773 CURVE SMOOTH",
"794 719 OFFCURVE",
"675 692 OFFCURVE",
"510 692 CURVE SMOOTH",
"309 692 LINE",
"309 1370 LINE",
"551 1370 LINE SMOOTH"
);
}
);
width = 1198;
}
);
unicode = 0050;
},
{
glyphname = Thorn;
lastChange = "2013-03-07 06:46:41 +0200";
layers = (
{
layerId = "2BEA1A6F-25C4-4A40-9A7D-95BA05285D07";
name = Light;
paths = (
{
closed = 1;
nodes = (
"207 1462 LINE",
"207 0 LINE",
"309 0 LINE",
"309 340 LINE",
"535 340 LINE SMOOTH",
"887 340 OFFCURVE",
"1087 495 OFFCURVE",
"1087 778 CURVE SMOOTH",
"1087 1058 OFFCURVE",
"913 1198 OFFCURVE",
"565 1198 CURVE SMOOTH",
"309 1198 LINE",
"309 1462 LINE"
);
},
{
closed = 1;
nodes = (
"842 1106 OFFCURVE",
"977 999 OFFCURVE",
"977 774 CURVE SMOOTH",
"977 530 OFFCURVE",
"839 428 OFFCURVE",
"510 428 CURVE SMOOTH",
"309 428 LINE",
"309 1106 LINE",
"551 1106 LINE SMOOTH"
);
}
);
width = 1198;
}
);
unicode = 00DE;
},
{
glyphname = Q;
lastChange = "2013-03-07 06:46:41 +0200";
layers = (
{
layerId = "2BEA1A6F-25C4-4A40-9A7D-95BA05285D07";
name = Light;
paths = (
{
closed = 1;
nodes = (
"581 1485 OFFCURVE",
"421 1418 OFFCURVE",
"304 1284 CURVE SMOOTH",
"187 1151 OFFCURVE",
"129 967 OFFCURVE",
"129 735 CURVE SMOOTH",
"129 502 OFFCURVE",
"187 317 OFFCURVE",
"303 182 CURVE SMOOTH",
"419 47 OFFCURVE",
"579 -20 OFFCURVE",
"782 -20 CURVE SMOOTH",
"813 -20 LINE",
"846 -18 LINE",
"1128 -348 LINE",
"1294 -348 LINE",
"961 0 LINE",
"1110 36 OFFCURVE",
"1226 118 OFFCURVE",
"1310 246 CURVE SMOOTH",
"1394 375 OFFCURVE",
"1436 537 OFFCURVE",
"1436 733 CURVE SMOOTH",
"1436 966 OFFCURVE",
"1378 1149 OFFCURVE",
"1263 1283 CURVE SMOOTH",
"1148 1418 OFFCURVE",
"987 1485 OFFCURVE",
"784 1485 CURVE SMOOTH"
);
},
{
closed = 1;
nodes = (
"1133 1386 OFFCURVE",
"1325 1154 OFFCURVE",
"1325 733 CURVE SMOOTH",
"1325 522 OFFCURVE",
"1278 359 OFFCURVE",
"1185 246 CURVE SMOOTH",
"1092 133 OFFCURVE",
"958 76 OFFCURVE",
"782 76 CURVE SMOOTH",
"607 76 OFFCURVE",
"473 133 OFFCURVE",
"380 247 CURVE SMOOTH",
"287 362 OFFCURVE",
"240 524 OFFCURVE",
"240 733 CURVE SMOOTH",
"240 942 OFFCURVE",
"287 1103 OFFCURVE",
"381 1216 CURVE SMOOTH",
"476 1329 OFFCURVE",
"610 1386 OFFCURVE",
"784 1386 CURVE SMOOTH"
);
}
);
width = 1565;
}
);
unicode = 0051;
},
{
glyphname = R;
lastChange = "2013-03-07 06:46:41 +0200";
layers = (
{
anchors = (
{
name = bottom;
position = "{609, 0}";
},
{
name = top;
position = "{609, 1462}";
}
);
layerId = "2BEA1A6F-25C4-4A40-9A7D-95BA05285D07";
name = Light;
paths = (
{
closed = 1;
nodes = (
"207 1462 LINE",
"207 0 LINE",
"309 0 LINE",
"309 637 LINE",
"672 637 LINE",
"1049 0 LINE",
"1171 0 LINE",
"774 666 LINE",
"984 725 OFFCURVE",
"1087 863 OFFCURVE",
"1087 1059 CURVE SMOOTH",
"1087 1328 OFFCURVE",
"918 1462 OFFCURVE",
"555 1462 CURVE SMOOTH"
);
},
{
closed = 1;
nodes = (
"702 1370 OFFCURVE",
"810 1345 OFFCURVE",
"877 1294 CURVE SMOOTH",
"944 1243 OFFCURVE",
"976 1162 OFFCURVE",
"976 1051 CURVE SMOOTH",
"976 836 OFFCURVE",
"835 725 OFFCURVE",
"588 725 CURVE SMOOTH",
"309 725 LINE",
"309 1370 LINE",
"551 1370 LINE SMOOTH"
);
}
);
width = 1217;
}
);
unicode = 0052;
},
{
glyphname = S;
lastChange = "2013-03-07 06:46:41 +0200";
layers = (
{
anchors = (
{
name = bottom;
position = "{558, 0}";
},
{
name = top;
position = "{558, 1462}";
}
);
layerId = "2BEA1A6F-25C4-4A40-9A7D-95BA05285D07";
name = Light;
paths = (
{
closed = 1;
nodes = (
"453 1483 OFFCURVE",
"343 1448 OFFCURVE",
"257 1379 CURVE SMOOTH",
"172 1310 OFFCURVE",
"129 1221 OFFCURVE",
"129 1112 CURVE SMOOTH",
"129 1013 OFFCURVE",
"157 933 OFFCURVE",
"214 873 CURVE SMOOTH",
"271 814 OFFCURVE",
"375 758 OFFCURVE",
"524 707 CURVE SMOOTH",
"626 672 OFFCURVE",
"703 640 OFFCURVE",
"756 610 CURVE SMOOTH",
"809 580 OFFCURVE",
"847 547 OFFCURVE",
"870 510 CURVE SMOOTH",
"893 474 OFFCURVE",
"905 428 OFFCURVE",
"905 373 CURVE SMOOTH",
"905 284 OFFCURVE",
"870 211 OFFCURVE",
"799 156 CURVE SMOOTH",
"729 101 OFFCURVE",
"634 74 OFFCURVE",
"514 74 CURVE SMOOTH",
"351 74 OFFCURVE",
"216 95 OFFCURVE",
"111 141 CURVE",
"111 39 LINE",
"206 0 OFFCURVE",
"343 -20 OFFCURVE",
"522 -20 CURVE SMOOTH",
"671 -20 OFFCURVE",
"790 16 OFFCURVE",
"879 87 CURVE SMOOTH",
"968 158 OFFCURVE",
"1014 255 OFFCURVE",
"1014 377 CURVE SMOOTH",
"1014 510 OFFCURVE",
"964 600 OFFCURVE",
"849 673 CURVE SMOOTH",
"792 710 OFFCURVE",
"706 749 OFFCURVE",
"592 788 CURVE SMOOTH",
"483 827 OFFCURVE",
"407 860 OFFCURVE",
"362 887 CURVE SMOOTH",
"317 915 OFFCURVE",
"285 946 OFFCURVE",
"265 980 CURVE",
"246 1016 OFFCURVE",
"236 1060 OFFCURVE",
"236 1114 CURVE SMOOTH",
"236 1200 OFFCURVE",
"268 1268 OFFCURVE",
"332 1318 CURVE SMOOTH",
"396 1368 OFFCURVE",
"482 1393 OFFCURVE",
"590 1393 CURVE SMOOTH",
"701 1393 OFFCURVE",
"817 1368 OFFCURVE",
"938 1317 CURVE",
"974 1405 LINE",
"854 1457 OFFCURVE",
"725 1483 OFFCURVE",
"588 1483 CURVE SMOOTH"
);
}
);
width = 1116;
}
);
unicode = 0053;
},
{
glyphname = Scaron;
lastChange = "2013-03-07 06:46:41 +0200";
layers = (
{
layerId = "2BEA1A6F-25C4-4A40-9A7D-95BA05285D07";
name = Light;
paths = (
{
closed = 1;
nodes = (
"319 1483 OFFCURVE",
"129 1331 OFFCURVE",
"129 1112 CURVE SMOOTH",
"129 913 OFFCURVE",
"225 810 OFFCURVE",
"524 707 CURVE SMOOTH",
"626 672 OFFCURVE",
"703 640 OFFCURVE",
"756 610 CURVE SMOOTH",
"861 550 OFFCURVE",
"905 484 OFFCURVE",
"905 373 CURVE SMOOTH",
"905 194 OFFCURVE",
"754 74 OFFCURVE",
"514 74 CURVE SMOOTH",
"351 74 OFFCURVE",
"216 96 OFFCURVE",
"111 141 CURVE",
"111 39 LINE",
"206 0 OFFCURVE",
"343 -20 OFFCURVE",
"522 -20 CURVE SMOOTH",
"819 -20 OFFCURVE",
"1014 133 OFFCURVE",
"1014 377 CURVE SMOOTH",
"1014 444 OFFCURVE",
"1001 501 OFFCURVE",
"975 548 CURVE SMOOTH",
"922 642 OFFCURVE",
"820 709 OFFCURVE",
"592 788 CURVE SMOOTH",
"483 827 OFFCURVE",
"407 860 OFFCURVE",
"362 888 CURVE SMOOTH",
"273 943 OFFCURVE",
"236 1006 OFFCURVE",
"236 1114 CURVE SMOOTH",
"236 1286 OFFCURVE",
"374 1393 OFFCURVE",
"590 1393 CURVE SMOOTH",
"701 1393 OFFCURVE",
"817 1368 OFFCURVE",
"938 1317 CURVE",
"975 1405 LINE",
"854 1457 OFFCURVE",
"725 1483 OFFCURVE",
"588 1483 CURVE SMOOTH"
);
},
{
closed = 1;
nodes = (
"789 1907 LINE",
"714 1845 OFFCURVE",
"640 1776 OFFCURVE",
"568 1700 CURVE",
"497 1775 OFFCURVE",
"423 1844 OFFCURVE",
"347 1907 CURVE",
"277 1907 LINE",
"277 1890 LINE",
"388 1768 OFFCURVE",
"468 1664 OFFCURVE",
"519 1579 CURVE",
"617 1579 LINE",
"665 1661 OFFCURVE",
"746 1765 OFFCURVE",
"859 1890 CURVE",
"859 1907 LINE"
);
}
);
width = 1116;
}
);
unicode = 0160;
},
{
glyphname = T;
lastChange = "2013-03-07 06:46:41 +0200";
layers = (
{
anchors = (
{
name = bottom;
position = "{537, 0}";
},
{
name = center;
position = "{537, 731}";
},
{
name = top;
position = "{537, 1462}";
}
);
layerId = "2BEA1A6F-25C4-4A40-9A7D-95BA05285D07";
name = Light;
paths = (
{
closed = 1;
nodes = (
"9 1462 LINE",
"9 1366 LINE",
"485 1366 LINE",
"485 0 LINE",
"588 0 LINE",
"588 1366 LINE",
"1063 1366 LINE",
"1063 1462 LINE"
);
}
);
width = 1073;
}
);
unicode = 0054;
},
{
glyphname = U;
lastChange = "2013-03-07 06:46:41 +0200";
layers = (
{
anchors = (
{
name = ogonek;
position = "{1326, 10}";
},
{
name = top;
position = "{737, 1462}";
}
);
layerId = "2BEA1A6F-25C4-4A40-9A7D-95BA05285D07";
name = Light;
paths = (
{
closed = 1;
nodes = (
"1180 1462 LINE",
"1180 506 LINE SMOOTH",
"1180 369 OFFCURVE",
"1142 262 OFFCURVE",
"1065 185 CURVE SMOOTH",
"987 108 OFFCURVE",
"880 70 OFFCURVE",
"741 70 CURVE SMOOTH",
"598 70 OFFCURVE",
"488 109 OFFCURVE",
"410 187 CURVE SMOOTH",
"332 266 OFFCURVE",
"293 375 OFFCURVE",
"293 516 CURVE SMOOTH",
"293 1462 LINE",
"190 1462 LINE",
"190 520 LINE SMOOTH",
"190 350 OFFCURVE",
"237 217 OFFCURVE",
"332 122 CURVE SMOOTH",
"427 27 OFFCURVE",
"560 -20 OFFCURVE",
"729 -20 CURVE SMOOTH",
"903 -20 OFFCURVE",
"1039 27 OFFCURVE",
"1136 122 CURVE SMOOTH",
"1233 217 OFFCURVE",
"1282 348 OFFCURVE",
"1282 516 CURVE SMOOTH",
"1282 1462 LINE"
);
}
);
width = 1473;
}
);
unicode = 0055;
},
{
glyphname = Uacute;
lastChange = "2013-03-07 06:46:41 +0200";
layers = (
{
layerId = "2BEA1A6F-25C4-4A40-9A7D-95BA05285D07";
name = Light;
paths = (
{
closed = 1;
nodes = (
"1180 1462 LINE",
"1180 506 LINE SMOOTH",
"1180 233 OFFCURVE",
"1020 70 OFFCURVE",
"741 70 CURVE SMOOTH",
"456 70 OFFCURVE",
"293 235 OFFCURVE",
"293 516 CURVE SMOOTH",
"293 1462 LINE",
"190 1462 LINE",
"190 520 LINE SMOOTH",
"190 180 OFFCURVE",
"390 -20 OFFCURVE",
"729 -20 CURVE SMOOTH",
"1077 -20 OFFCURVE",
"1282 180 OFFCURVE",
"1282 516 CURVE SMOOTH",
"1282 1462 LINE"
);
},
{
closed = 1;
nodes = (
"875 1907 LINE",
"840 1843 OFFCURVE",
"730 1700 OFFCURVE",
"633 1595 CURVE",
"633 1579 LINE",
"703 1579 LINE",
"842 1695 OFFCURVE",
"968 1821 OFFCURVE",
"1016 1890 CURVE",
"1016 1907 LINE"
);
}
);
width = 1473;
}
);
unicode = 00DA;
},
{
glyphname = Ucircumflex;
lastChange = "2013-03-07 06:46:41 +0200";
layers = (
{
layerId = "2BEA1A6F-25C4-4A40-9A7D-95BA05285D07";
name = Light;
paths = (
{
closed = 1;
nodes = (
"1180 1462 LINE",
"1180 506 LINE SMOOTH",
"1180 233 OFFCURVE",
"1020 70 OFFCURVE",
"741 70 CURVE SMOOTH",
"456 70 OFFCURVE",
"293 235 OFFCURVE",
"293 516 CURVE SMOOTH",
"293 1462 LINE",
"190 1462 LINE",
"190 520 LINE SMOOTH",
"190 180 OFFCURVE",
"390 -20 OFFCURVE",
"729 -20 CURVE SMOOTH",
"1077 -20 OFFCURVE",
"1282 180 OFFCURVE",
"1282 516 CURVE SMOOTH",
"1282 1462 LINE"
);
},
{
closed = 1;
nodes = (
"686 1907 LINE",
"631 1818 OFFCURVE",
"527 1684 OFFCURVE",
"444 1595 CURVE",
"444 1579 LINE",
"514 1579 LINE",
"589 1641 OFFCURVE",
"663 1710 OFFCURVE",
"735 1786 CURVE",
"801 1715 OFFCURVE",
"875 1646 OFFCURVE",
"956 1579 CURVE",
"1026 1579 LINE",
"1026 1595 LINE",
"910 1723 OFFCURVE",
"829 1827 OFFCURVE",
"784 1907 CURVE"
);
}
);
width = 1473;
}
);
unicode = 00DB;
},
{
glyphname = Udieresis;
lastChange = "2013-03-07 06:46:41 +0200";
layers = (
{
layerId = "2BEA1A6F-25C4-4A40-9A7D-95BA05285D07";
name = Light;
paths = (
{
closed = 1;
nodes = (
"1180 1462 LINE",
"1180 506 LINE SMOOTH",
"1180 233 OFFCURVE",
"1020 70 OFFCURVE",
"741 70 CURVE SMOOTH",
"456 70 OFFCURVE",
"293 235 OFFCURVE",
"293 516 CURVE SMOOTH",
"293 1462 LINE",
"190 1462 LINE",
"190 520 LINE SMOOTH",
"190 180 OFFCURVE",
"390 -20 OFFCURVE",
"729 -20 CURVE SMOOTH",
"1077 -20 OFFCURVE",
"1282 180 OFFCURVE",
"1282 516 CURVE SMOOTH",
"1282 1462 LINE"
);
},
{
closed = 1;
nodes = (
"501 1813 OFFCURVE",
"481 1788 OFFCURVE",
"481 1727 CURVE SMOOTH",
"481 1670 OFFCURVE",
"502 1641 OFFCURVE",
"544 1641 CURVE SMOOTH",
"587 1641 OFFCURVE",
"608 1670 OFFCURVE",
"608 1727 CURVE SMOOTH",
"608 1784 OFFCURVE",
"587 1813 OFFCURVE",
"544 1813 CURVE SMOOTH"
);
},
{
closed = 1;
nodes = (
"882 1813 OFFCURVE",
"862 1788 OFFCURVE",
"862 1727 CURVE SMOOTH",
"862 1670 OFFCURVE",
"883 1641 OFFCURVE",
"925 1641 CURVE SMOOTH",
"968 1641 OFFCURVE",
"989 1670 OFFCURVE",
"989 1727 CURVE SMOOTH",
"989 1784 OFFCURVE",
"968 1813 OFFCURVE",
"925 1813 CURVE SMOOTH"
);
}
);
width = 1473;
}
);
unicode = 00DC;
},
{
glyphname = Ugrave;
lastChange = "2013-03-07 06:46:41 +0200";
layers = (
{
layerId = "2BEA1A6F-25C4-4A40-9A7D-95BA05285D07";
name = Light;
paths = (
{
closed = 1;
nodes = (
"1180 1462 LINE",
"1180 506 LINE SMOOTH",
"1180 233 OFFCURVE",
"1020 70 OFFCURVE",
"741 70 CURVE SMOOTH",
"456 70 OFFCURVE",
"293 235 OFFCURVE",
"293 516 CURVE SMOOTH",
"293 1462 LINE",
"190 1462 LINE",
"190 520 LINE SMOOTH",
"190 180 OFFCURVE",
"390 -20 OFFCURVE",
"729 -20 CURVE SMOOTH",
"1077 -20 OFFCURVE",
"1282 180 OFFCURVE",
"1282 516 CURVE SMOOTH",
"1282 1462 LINE"
);
},
{
closed = 1;
nodes = (
"450 1907 LINE",
"450 1890 LINE",
"494 1827 OFFCURVE",
"636 1684 OFFCURVE",
"764 1579 CURVE",
"833 1579 LINE",
"833 1595 LINE",
"740 1696 OFFCURVE",
"627 1843 OFFCURVE",
"592 1907 CURVE"
);
}
);
width = 1473;
}
);
unicode = 00D9;
},
{
glyphname = V;
lastChange = "2013-03-07 06:46:41 +0200";
layers = (
{
layerId = "2BEA1A6F-25C4-4A40-9A7D-95BA05285D07";
name = Light;
paths = (
{
closed = 1;
nodes = (
"1071 1462 LINE",
"669 362 LINE SMOOTH",
"630 257 OFFCURVE",
"603 179 OFFCURVE",
"590 129 CURVE",
"571 204 OFFCURVE",
"533 317 OFFCURVE",
"477 467 CURVE SMOOTH",
"109 1462 LINE",
"0 1462 LINE",
"545 0 LINE",
"635 0 LINE",
"1182 1462 LINE"
);
}
);
width = 1182;
}
);
unicode = 0056;
},
{
glyphname = W;
lastChange = "2013-03-07 06:46:41 +0200";
layers = (
{
anchors = (
{
name = top;
position = "{914, 1462}";
}
);
layerId = "2BEA1A6F-25C4-4A40-9A7D-95BA05285D07";
name = Light;
paths = (
{
closed = 1;
nodes = (
"1673 1462 LINE",
"1481 750 OFFCURVE",
"1378 367 OFFCURVE",
"1364 313 CURVE SMOOTH",
"1351 259 OFFCURVE",
"1340 208 OFFCURVE",
"1331 160 CURVE",
"1316 232 OFFCURVE",
"1292 327 OFFCURVE",
"1258 444 CURVE SMOOTH",
"965 1462 LINE",
"852 1462 LINE",
"602 575 LINE SMOOTH",
"550 390 OFFCURVE",
"516 253 OFFCURVE",
"500 162 CURVE",
"481 269 OFFCURVE",
"454 367 OFFCURVE",
"414 520 CURVE SMOOTH",
"158 1462 LINE",
"51 1462 LINE",
"453 0 LINE",
"539 0 LINE",
"734 695 OFFCURVE",
"842 1081 OFFCURVE",
"861 1156 CURVE SMOOTH",
"881 1231 OFFCURVE",
"896 1298 OFFCURVE",
"907 1356 CURVE",
"920 1297 OFFCURVE",
"940 1221 OFFCURVE",
"967 1128 CURVE SMOOTH",
"1288 0 LINE",
"1372 0 LINE",
"1776 1462 LINE"
);
}
);
width = 1827;
}
);
unicode = 0057;
},
{
glyphname = X;
lastChange = "2013-03-07 06:46:41 +0200";
layers = (
{
layerId = "2BEA1A6F-25C4-4A40-9A7D-95BA05285D07";
name = Light;
paths = (
{
closed = 1;
nodes = (
"956 1462 LINE",
"555 836 LINE",
"160 1462 LINE",
"45 1462 LINE",
"492 762 LINE",
"0 0 LINE",
"113 0 LINE",
"553 682 LINE",
"984 0 LINE",
"1102 0 LINE",
"612 764 LINE",
"1065 1462 LINE"
);
}
);
width = 1102;
}
);
unicode = 0058;
},
{
glyphname = Y;
lastChange = "2013-03-07 06:46:41 +0200";
layers = (
{
anchors = (
{
name = top;
position = "{541, 1462}";
}
);
layerId = "2BEA1A6F-25C4-4A40-9A7D-95BA05285D07";
name = Light;
paths = (
{
closed = 1;
nodes = (
"970 1462 LINE",
"543 662 LINE",
"117 1462 LINE",
"0 1462 LINE",
"489 557 LINE",
"489 0 LINE",
"594 0 LINE",
"594 565 LINE",
"1081 1462 LINE"
);
}
);
width = 1081;
}
);
unicode = 0059;
},
{
glyphname = Yacute;
lastChange = "2013-03-07 06:46:41 +0200";
layers = (
{
layerId = "2BEA1A6F-25C4-4A40-9A7D-95BA05285D07";
name = Light;
paths = (
{
closed = 1;
nodes = (
"971 1462 LINE",
"543 662 LINE",
"117 1462 LINE",
"0 1462 LINE",
"489 557 LINE",
"489 0 LINE",
"594 0 LINE",
"594 565 LINE",
"1081 1462 LINE"
);
},
{
closed = 1;
nodes = (
"676 1907 LINE",
"641 1843 OFFCURVE",
"531 1700 OFFCURVE",
"434 1595 CURVE",
"434 1579 LINE",
"504 1579 LINE",
"643 1695 OFFCURVE",
"769 1821 OFFCURVE",
"817 1890 CURVE",
"817 1907 LINE"
);
}
);
width = 1081;
}
);
unicode = 00DD;
},
{
glyphname = Ydieresis;
lastChange = "2013-03-07 06:46:41 +0200";
layers = (
{
layerId = "2BEA1A6F-25C4-4A40-9A7D-95BA05285D07";
name = Light;
paths = (
{
closed = 1;
nodes = (
"971 1462 LINE",
"543 662 LINE",
"117 1462 LINE",
"0 1462 LINE",
"489 557 LINE",
"489 0 LINE",
"594 0 LINE",
"594 565 LINE",
"1081 1462 LINE"
);
},
{
closed = 1;
nodes = (
"308 1813 OFFCURVE",
"288 1788 OFFCURVE",
"288 1727 CURVE SMOOTH",
"288 1670 OFFCURVE",
"309 1641 OFFCURVE",
"351 1641 CURVE SMOOTH",
"394 1641 OFFCURVE",
"415 1670 OFFCURVE",
"415 1727 CURVE SMOOTH",
"415 1784 OFFCURVE",
"394 1813 OFFCURVE",
"351 1813 CURVE SMOOTH"
);
},
{
closed = 1;
nodes = (
"689 1813 OFFCURVE",
"669 1788 OFFCURVE",
"669 1727 CURVE SMOOTH",
"669 1670 OFFCURVE",
"690 1641 OFFCURVE",
"732 1641 CURVE SMOOTH",
"775 1641 OFFCURVE",
"796 1670 OFFCURVE",
"796 1727 CURVE SMOOTH",
"796 1784 OFFCURVE",
"775 1813 OFFCURVE",
"732 1813 CURVE SMOOTH"
);
}
);
width = 1081;
}
);
unicode = 0178;
},
{
glyphname = Z;
lastChange = "2013-03-07 06:46:41 +0200";
layers = (
{
anchors = (
{
name = top;
position = "{590, 1462}";
}
);
layerId = "2BEA1A6F-25C4-4A40-9A7D-95BA05285D07";
name = Light;
paths = (
{
closed = 1;
nodes = (
"121 1462 LINE",
"121 1366 LINE",
"938 1366 LINE",
"82 76 LINE",
"82 0 LINE",
"1098 0 LINE",
"1098 95 LINE",
"217 95 LINE",
"1075 1386 LINE",
"1075 1462 LINE"
);
}
);
width = 1180;
}
);
unicode = 005A;
},
{
glyphname = Zcaron;
lastChange = "2013-03-07 06:46:41 +0200";
layers = (
{
layerId = "2BEA1A6F-25C4-4A40-9A7D-95BA05285D07";
name = Light;
paths = (
{
closed = 1;
nodes = (
"121 1462 LINE",
"121 1366 LINE",
"938 1366 LINE",
"82 76 LINE",
"82 0 LINE",
"1098 0 LINE",
"1098 96 LINE",
"217 96 LINE",
"1075 1386 LINE",
"1075 1462 LINE"
);
},
{
closed = 1;
nodes = (
"821 1907 LINE",
"746 1845 OFFCURVE",
"672 1776 OFFCURVE",
"600 1700 CURVE",
"529 1775 OFFCURVE",
"455 1844 OFFCURVE",
"379 1907 CURVE",
"309 1907 LINE",
"309 1890 LINE",
"420 1768 OFFCURVE",
"500 1664 OFFCURVE",
"551 1579 CURVE",
"649 1579 LINE",
"697 1661 OFFCURVE",
"778 1765 OFFCURVE",
"891 1890 CURVE",
"891 1907 LINE"
);
}
);
width = 1180;
}
);
unicode = 017D;
},
{
glyphname = a;
lastChange = "2013-03-07 06:46:41 +0200";
layers = (
{
anchors = (
{
name = ogonek;
position = "{977, 10}";
},
{
name = top;
position = "{543, 1118}";
}
);
layerId = "2BEA1A6F-25C4-4A40-9A7D-95BA05285D07";
name = Light;
paths = (
{
closed = 1;
nodes = (
"442 1106 OFFCURVE",
"324 1078 OFFCURVE",
"205 1022 CURVE",
"242 936 LINE",
"350 991 OFFCURVE",
"454 1020 OFFCURVE",
"555 1020 CURVE SMOOTH",
"742 1020 OFFCURVE",
"821 914 OFFCURVE",
"821 707 CURVE SMOOTH",
"821 635 LINE",
"614 629 LINE SMOOTH",
"279 622 OFFCURVE",
"97 501 OFFCURVE",
"97 289 CURVE SMOOTH",
"97 95 OFFCURVE",
"223 -20 OFFCURVE",
"436 -20 CURVE SMOOTH",
"515 -20 OFFCURVE",
"583 -6 OFFCURVE",
"640 23 CURVE SMOOTH",
"698 52 OFFCURVE",
"754 102 OFFCURVE",
"809 172 CURVE",
"817 172 LINE",
"842 0 LINE",
"915 0 LINE",
"915 723 LINE SMOOTH",
"915 985 OFFCURVE",
"798 1106 OFFCURVE",
"559 1106 CURVE SMOOTH"
);
},
{
closed = 1;
nodes = (
"817 446 LINE SMOOTH",
"817 328 OFFCURVE",
"783 236 OFFCURVE",
"716 169 CURVE SMOOTH",
"649 103 OFFCURVE",
"558 70 OFFCURVE",
"442 70 CURVE SMOOTH",
"290 70 OFFCURVE",
"203 149 OFFCURVE",
"203 285 CURVE SMOOTH",
"203 370 OFFCURVE",
"235 433 OFFCURVE",
"300 473 CURVE SMOOTH",
"365 514 OFFCURVE",
"474 538 OFFCURVE",
"627 545 CURVE SMOOTH",
"817 553 LINE"
);
}
);
width = 1085;
}
);
unicode = 0061;
},
{
glyphname = aacute;
lastChange = "2013-03-07 06:46:41 +0200";
layers = (
{
layerId = "2BEA1A6F-25C4-4A40-9A7D-95BA05285D07";
name = Light;
paths = (
{
closed = 1;
nodes = (
"442 1106 OFFCURVE",
"324 1078 OFFCURVE",
"205 1022 CURVE",
"242 936 LINE",
"350 992 OFFCURVE",
"454 1020 OFFCURVE",
"555 1020 CURVE SMOOTH",
"742 1020 OFFCURVE",
"821 914 OFFCURVE",
"821 707 CURVE SMOOTH",
"821 635 LINE",
"614 629 LINE SMOOTH",
"279 622 OFFCURVE",
"98 501 OFFCURVE",
"98 289 CURVE SMOOTH",
"98 96 OFFCURVE",
"223 -20 OFFCURVE",
"436 -20 CURVE SMOOTH",
"593 -20 OFFCURVE",
"700 32 OFFCURVE",
"809 172 CURVE",
"817 172 LINE",
"842 0 LINE",
"915 0 LINE",
"915 723 LINE SMOOTH",
"915 986 OFFCURVE",
"798 1106 OFFCURVE",
"559 1106 CURVE SMOOTH"
);
},
{
closed = 1;
nodes = (
"817 446 LINE SMOOTH",
"817 210 OFFCURVE",
"674 70 OFFCURVE",
"442 70 CURVE SMOOTH",
"290 70 OFFCURVE",
"203 149 OFFCURVE",
"203 285 CURVE SMOOTH",
"203 456 OFFCURVE",
"322 530 OFFCURVE",
"627 545 CURVE SMOOTH",
"817 553 LINE"
);
},
{
closed = 1;
nodes = (
"664 1569 LINE",
"629 1505 OFFCURVE",
"519 1362 OFFCURVE",
"422 1257 CURVE",
"422 1241 LINE",
"492 1241 LINE",
"631 1357 OFFCURVE",
"757 1483 OFFCURVE",
"805 1552 CURVE",
"805 1569 LINE"
);
}
);
width = 1085;
}
);
unicode = 00E1;
},
{
glyphname = acircumflex;
lastChange = "2013-03-07 06:46:41 +0200";
layers = (
{
layerId = "2BEA1A6F-25C4-4A40-9A7D-95BA05285D07";
name = Light;
paths = (
{
closed = 1;
nodes = (
"442 1106 OFFCURVE",
"324 1078 OFFCURVE",
"205 1022 CURVE",
"242 936 LINE",
"350 992 OFFCURVE",
"454 1020 OFFCURVE",
"555 1020 CURVE SMOOTH",
"742 1020 OFFCURVE",
"821 914 OFFCURVE",
"821 707 CURVE SMOOTH",
"821 635 LINE",
"614 629 LINE SMOOTH",
"279 622 OFFCURVE",
"98 501 OFFCURVE",
"98 289 CURVE SMOOTH",
"98 96 OFFCURVE",
"223 -20 OFFCURVE",
"436 -20 CURVE SMOOTH",
"593 -20 OFFCURVE",
"700 32 OFFCURVE",
"809 172 CURVE",
"817 172 LINE",
"842 0 LINE",
"915 0 LINE",
"915 723 LINE SMOOTH",
"915 986 OFFCURVE",
"798 1106 OFFCURVE",
"559 1106 CURVE SMOOTH"
);
},
{
closed = 1;
nodes = (
"817 446 LINE SMOOTH",
"817 210 OFFCURVE",
"674 70 OFFCURVE",
"442 70 CURVE SMOOTH",
"290 70 OFFCURVE",
"203 149 OFFCURVE",
"203 285 CURVE SMOOTH",
"203 456 OFFCURVE",
"322 530 OFFCURVE",
"627 545 CURVE SMOOTH",
"817 553 LINE"
);
},
{
closed = 1;
nodes = (
"493 1569 LINE",
"438 1480 OFFCURVE",
"334 1346 OFFCURVE",
"251 1257 CURVE",
"251 1241 LINE",
"321 1241 LINE",
"396 1303 OFFCURVE",
"470 1372 OFFCURVE",
"542 1448 CURVE",
"608 1377 OFFCURVE",
"682 1308 OFFCURVE",
"763 1241 CURVE",
"833 1241 LINE",
"833 1257 LINE",
"717 1385 OFFCURVE",
"636 1489 OFFCURVE",
"591 1569 CURVE"
);
}
);
width = 1085;
}
);
unicode = 00E2;
},
{
glyphname = adieresis;
lastChange = "2013-03-07 06:46:41 +0200";
layers = (
{
layerId = "2BEA1A6F-25C4-4A40-9A7D-95BA05285D07";
name = Light;
paths = (
{
closed = 1;
nodes = (
"442 1106 OFFCURVE",
"324 1078 OFFCURVE",
"205 1022 CURVE",
"242 936 LINE",
"350 992 OFFCURVE",
"454 1020 OFFCURVE",
"555 1020 CURVE SMOOTH",
"742 1020 OFFCURVE",
"821 914 OFFCURVE",
"821 707 CURVE SMOOTH",
"821 635 LINE",
"614 629 LINE SMOOTH",
"279 622 OFFCURVE",
"98 501 OFFCURVE",
"98 289 CURVE SMOOTH",
"98 96 OFFCURVE",
"223 -20 OFFCURVE",
"436 -20 CURVE SMOOTH",
"593 -20 OFFCURVE",
"700 32 OFFCURVE",
"809 172 CURVE",
"817 172 LINE",
"842 0 LINE",
"915 0 LINE",
"915 723 LINE SMOOTH",
"915 986 OFFCURVE",
"798 1106 OFFCURVE",
"559 1106 CURVE SMOOTH"
);
},
{
closed = 1;
nodes = (
"817 446 LINE SMOOTH",
"817 210 OFFCURVE",
"674 70 OFFCURVE",
"442 70 CURVE SMOOTH",
"290 70 OFFCURVE",
"203 149 OFFCURVE",
"203 285 CURVE SMOOTH",
"203 456 OFFCURVE",
"322 530 OFFCURVE",
"627 545 CURVE SMOOTH",
"817 553 LINE"
);
},
{
closed = 1;
nodes = (
"302 1475 OFFCURVE",
"282 1450 OFFCURVE",
"282 1389 CURVE SMOOTH",
"282 1332 OFFCURVE",
"303 1303 OFFCURVE",
"345 1303 CURVE SMOOTH",
"388 1303 OFFCURVE",
"409 1332 OFFCURVE",
"409 1389 CURVE SMOOTH",
"409 1446 OFFCURVE",
"388 1475 OFFCURVE",
"345 1475 CURVE SMOOTH"
);
},
{
closed = 1;
nodes = (
"683 1475 OFFCURVE",
"663 1450 OFFCURVE",
"663 1389 CURVE SMOOTH",
"663 1332 OFFCURVE",
"684 1303 OFFCURVE",
"726 1303 CURVE SMOOTH",
"769 1303 OFFCURVE",
"790 1332 OFFCURVE",
"790 1389 CURVE SMOOTH",
"790 1446 OFFCURVE",
"769 1475 OFFCURVE",
"726 1475 CURVE SMOOTH"
);
}
);
width = 1085;
}
);
unicode = 00E4;
},
{
glyphname = agrave;
lastChange = "2013-03-07 06:46:41 +0200";
layers = (
{
layerId = "2BEA1A6F-25C4-4A40-9A7D-95BA05285D07";
name = Light;
paths = (
{
closed = 1;
nodes = (
"442 1106 OFFCURVE",
"324 1078 OFFCURVE",
"205 1022 CURVE",
"242 936 LINE",
"350 992 OFFCURVE",
"454 1020 OFFCURVE",
"555 1020 CURVE SMOOTH",
"742 1020 OFFCURVE",
"821 914 OFFCURVE",
"821 707 CURVE SMOOTH",
"821 635 LINE",
"614 629 LINE SMOOTH",
"279 622 OFFCURVE",
"98 501 OFFCURVE",
"98 289 CURVE SMOOTH",
"98 96 OFFCURVE",
"223 -20 OFFCURVE",
"436 -20 CURVE SMOOTH",
"593 -20 OFFCURVE",
"700 32 OFFCURVE",
"809 172 CURVE",
"817 172 LINE",
"842 0 LINE",
"915 0 LINE",
"915 723 LINE SMOOTH",
"915 986 OFFCURVE",
"798 1106 OFFCURVE",
"559 1106 CURVE SMOOTH"
);
},
{
closed = 1;
nodes = (
"817 446 LINE SMOOTH",
"817 210 OFFCURVE",
"674 70 OFFCURVE",
"442 70 CURVE SMOOTH",
"290 70 OFFCURVE",
"203 149 OFFCURVE",
"203 285 CURVE SMOOTH",
"203 456 OFFCURVE",
"322 530 OFFCURVE",
"627 545 CURVE SMOOTH",
"817 553 LINE"
);
},
{
closed = 1;
nodes = (
"255 1569 LINE",
"255 1552 LINE",
"299 1489 OFFCURVE",
"441 1346 OFFCURVE",
"569 1241 CURVE",
"638 1241 LINE",
"638 1257 LINE",
"545 1358 OFFCURVE",
"432 1505 OFFCURVE",
"397 1569 CURVE"
);
}
);
width = 1085;
}
);
unicode = 00E0;
},
{
glyphname = aring;
lastChange = "2013-03-07 06:46:41 +0200";
layers = (
{
layerId = "2BEA1A6F-25C4-4A40-9A7D-95BA05285D07";
name = Light;
paths = (
{
closed = 1;
nodes = (
"442 1106 OFFCURVE",
"324 1078 OFFCURVE",
"205 1022 CURVE",
"242 936 LINE",
"350 992 OFFCURVE",
"454 1020 OFFCURVE",
"555 1020 CURVE SMOOTH",
"742 1020 OFFCURVE",
"821 914 OFFCURVE",
"821 707 CURVE SMOOTH",
"821 635 LINE",
"614 629 LINE SMOOTH",
"279 622 OFFCURVE",
"98 501 OFFCURVE",
"98 289 CURVE SMOOTH",
"98 96 OFFCURVE",
"223 -20 OFFCURVE",
"436 -20 CURVE SMOOTH",
"593 -20 OFFCURVE",
"700 32 OFFCURVE",
"809 172 CURVE",
"817 172 LINE",
"842 0 LINE",
"915 0 LINE",
"915 723 LINE SMOOTH",
"915 986 OFFCURVE",
"798 1106 OFFCURVE",
"559 1106 CURVE SMOOTH"
);
},
{
closed = 1;
nodes = (
"817 446 LINE SMOOTH",
"817 210 OFFCURVE",
"674 70 OFFCURVE",
"442 70 CURVE SMOOTH",
"290 70 OFFCURVE",
"203 149 OFFCURVE",
"203 285 CURVE SMOOTH",
"203 456 OFFCURVE",
"322 530 OFFCURVE",
"627 545 CURVE SMOOTH",
"817 553 LINE"
);
},
{
closed = 1;
nodes = (
"413 1667 OFFCURVE",
"325 1581 OFFCURVE",
"325 1456 CURVE SMOOTH",
"325 1327 OFFCURVE",
"413 1243 OFFCURVE",
"542 1243 CURVE SMOOTH",
"671 1243 OFFCURVE",
"759 1327 OFFCURVE",
"759 1456 CURVE SMOOTH",
"759 1580 OFFCURVE",
"671 1667 OFFCURVE",
"542 1667 CURVE SMOOTH"
);
},
{
closed = 1;
nodes = (
"621 1595 OFFCURVE",
"679 1541 OFFCURVE",
"679 1456 CURVE SMOOTH",
"679 1368 OFFCURVE",
"625 1315 OFFCURVE",
"542 1315 CURVE SMOOTH",
"459 1315 OFFCURVE",
"405 1368 OFFCURVE",
"405 1456 CURVE SMOOTH",
"405 1540 OFFCURVE",
"459 1595 OFFCURVE",
"542 1595 CURVE SMOOTH"
);
}
);
width = 1085;
}
);
unicode = 00E5;
},
{
glyphname = atilde;
lastChange = "2013-03-07 06:46:41 +0200";
layers = (
{
layerId = "2BEA1A6F-25C4-4A40-9A7D-95BA05285D07";
name = Light;
paths = (
{
closed = 1;
nodes = (
"442 1106 OFFCURVE",
"324 1078 OFFCURVE",
"205 1022 CURVE",
"242 936 LINE",
"350 992 OFFCURVE",
"454 1020 OFFCURVE",
"555 1020 CURVE SMOOTH",
"742 1020 OFFCURVE",
"821 914 OFFCURVE",
"821 707 CURVE SMOOTH",
"821 635 LINE",
"614 629 LINE SMOOTH",
"279 622 OFFCURVE",
"98 501 OFFCURVE",
"98 289 CURVE SMOOTH",
"98 96 OFFCURVE",
"223 -20 OFFCURVE",
"436 -20 CURVE SMOOTH",
"593 -20 OFFCURVE",
"700 32 OFFCURVE",
"809 172 CURVE",
"817 172 LINE",
"842 0 LINE",
"915 0 LINE",
"915 723 LINE SMOOTH",
"915 986 OFFCURVE",
"798 1106 OFFCURVE",
"559 1106 CURVE SMOOTH"
);
},
{
closed = 1;
nodes = (
"817 446 LINE SMOOTH",
"817 210 OFFCURVE",
"674 70 OFFCURVE",
"442 70 CURVE SMOOTH",
"290 70 OFFCURVE",
"203 149 OFFCURVE",
"203 285 CURVE SMOOTH",
"203 456 OFFCURVE",
"322 530 OFFCURVE",
"627 545 CURVE SMOOTH",
"817 553 LINE"
);
},
{
closed = 1;
nodes = (
"822 1481 LINE",
"799 1370 OFFCURVE",
"758 1325 OFFCURVE",
"697 1325 CURVE SMOOTH",
"658 1325 OFFCURVE",
"615 1360 OFFCURVE",
"570 1397 CURVE SMOOTH",
"514 1442 OFFCURVE",
"464 1481 OFFCURVE",
"400 1481 CURVE SMOOTH",
"288 1481 OFFCURVE",
"213 1391 OFFCURVE",
"200 1243 CURVE",
"273 1243 LINE",
"297 1359 OFFCURVE",
"336 1399 OFFCURVE",
"396 1399 CURVE SMOOTH",
"439 1399 OFFCURVE",
"478 1368 OFFCURVE",
"521 1333 CURVE SMOOTH",
"604 1262 OFFCURVE",
"649 1243 OFFCURVE",
"697 1243 CURVE SMOOTH",
"802 1243 OFFCURVE",
"877 1326 OFFCURVE",
"898 1481 CURVE"
);
}
);
width = 1085;
}
);
unicode = 00E3;
},
{
glyphname = ae;
lastChange = "2013-03-07 06:46:41 +0200";
layers = (
{
layerId = "2BEA1A6F-25C4-4A40-9A7D-95BA05285D07";
name = Light;
paths = (
{
closed = 1;
nodes = (
"1060 1108 OFFCURVE",
"944 1037 OFFCURVE",
"870 895 CURVE",
"827 1036 OFFCURVE",
"719 1106 OFFCURVE",
"545 1106 CURVE SMOOTH",
"430 1106 OFFCURVE",
"314 1078 OFFCURVE",
"199 1022 CURVE",
"236 936 LINE",
"341 992 OFFCURVE",
"442 1020 OFFCURVE",
"541 1020 CURVE SMOOTH",
"724 1020 OFFCURVE",
"801 914 OFFCURVE",
"801 707 CURVE SMOOTH",
"801 635 LINE",
"600 629 LINE SMOOTH",
"264 618 OFFCURVE",
"98 494 OFFCURVE",
"98 289 CURVE SMOOTH",
"98 97 OFFCURVE",
"218 -20 OFFCURVE",
"426 -20 CURVE SMOOTH",
"629 -20 OFFCURVE",
"755 59 OFFCURVE",
"846 236 CURVE",
"914 65 OFFCURVE",
"1046 -20 OFFCURVE",
"1243 -20 CURVE SMOOTH",
"1360 -20 OFFCURVE",
"1446 -6 OFFCURVE",
"1569 49 CURVE",
"1569 139 LINE",
"1424 79 OFFCURVE",
"1358 70 OFFCURVE",
"1245 70 CURVE SMOOTH",
"1013 70 OFFCURVE",
"897 223 OFFCURVE",
"897 530 CURVE",
"1612 530 LINE",
"1612 610 LINE SMOOTH",
"1612 915 OFFCURVE",
"1462 1108 OFFCURVE",
"1217 1108 CURVE SMOOTH"
);
},
{
closed = 1;
nodes = (
"797 446 LINE SMOOTH",
"797 210 OFFCURVE",
"659 70 OFFCURVE",
"434 70 CURVE SMOOTH",
"289 70 OFFCURVE",
"203 149 OFFCURVE",
"203 285 CURVE SMOOTH",
"203 456 OFFCURVE",
"318 530 OFFCURVE",
"610 545 CURVE SMOOTH",
"797 553 LINE"
);
},
{
closed = 1;
nodes = (
"1397 1020 OFFCURVE",
"1507 869 OFFCURVE",
"1507 618 CURVE",
"903 618 LINE",
"923 886 OFFCURVE",
"1028 1020 OFFCURVE",
"1217 1020 CURVE SMOOTH"
);
}
);
width = 1731;
}
);
unicode = 00E6;
},
{
glyphname = b;
lastChange = "2013-03-07 06:46:41 +0200";
layers = (
{
layerId = "2BEA1A6F-25C4-4A40-9A7D-95BA05285D07";
name = Light;
paths = (
{
closed = 1;
nodes = (
"182 1556 LINE",
"182 0 LINE",
"244 0 LINE",
"272 164 LINE",
"281 164 LINE",
"353 47 OFFCURVE",
"482 -20 OFFCURVE",
"637 -20 CURVE SMOOTH",
"784 -20 OFFCURVE",
"897 29 OFFCURVE",
"977 127 CURVE SMOOTH",
"1059 225 OFFCURVE",
"1100 364 OFFCURVE",
"1100 545 CURVE SMOOTH",
"1100 913 OFFCURVE",
"945 1108 OFFCURVE",
"641 1108 CURVE SMOOTH",
"477 1108 OFFCURVE",
"364 1049 OFFCURVE",
"281 918 CURVE",
"274 918 LINE",
"277 1003 LINE SMOOTH",
"280 1052 OFFCURVE",
"281 1106 OFFCURVE",
"281 1165 CURVE SMOOTH",
"281 1556 LINE"
);
},
{
closed = 1;
nodes = (
"876 1018 OFFCURVE",
"994 861 OFFCURVE",
"994 547 CURVE SMOOTH",
"994 240 OFFCURVE",
"874 68 OFFCURVE",
"637 68 CURVE SMOOTH",
"515 68 OFFCURVE",
"425 104 OFFCURVE",
"367 175 CURVE SMOOTH",
"310 246 OFFCURVE",
"281 364 OFFCURVE",
"281 528 CURVE SMOOTH",
"281 545 LINE SMOOTH",
"281 714 OFFCURVE",
"309 835 OFFCURVE",
"364 908 CURVE SMOOTH",
"419 980 OFFCURVE",
"511 1018 OFFCURVE",
"639 1018 CURVE SMOOTH"
);
}
);
width = 1219;
}
);
unicode = 0062;
},
{
glyphname = c;
lastChange = "2013-03-07 06:46:41 +0200";
layers = (
{
anchors = (
{
name = bottom;
position = "{486, 0}";
},
{
name = top;
position = "{486, 1118}";
}
);
layerId = "2BEA1A6F-25C4-4A40-9A7D-95BA05285D07";
name = Light;
paths = (
{
closed = 1;
nodes = (
"472 1108 OFFCURVE",
"347 1058 OFFCURVE",
"256 957 CURVE SMOOTH",
"165 857 OFFCURVE",
"119 717 OFFCURVE",
"119 537 CURVE SMOOTH",
"119 362 OFFCURVE",
"163 225 OFFCURVE",
"251 127 CURVE SMOOTH",
"339 29 OFFCURVE",
"461 -20 OFFCURVE",
"616 -20 CURVE SMOOTH",
"729 -20 OFFCURVE",
"820 -3 OFFCURVE",
"889 31 CURVE",
"889 123 LINE",
"804 88 OFFCURVE",
"713 70 OFFCURVE",
"614 70 CURVE SMOOTH",
"491 70 OFFCURVE",
"395 111 OFFCURVE",
"326 194 CURVE SMOOTH",
"257 277 OFFCURVE",
"223 392 OFFCURVE",
"223 539 CURVE SMOOTH",
"223 848 OFFCURVE",
"362 1018 OFFCURVE",
"629 1018 CURVE SMOOTH",
"698 1018 OFFCURVE",
"780 1002 OFFCURVE",
"874 970 CURVE",
"901 1059 LINE",
"815 1092 OFFCURVE",
"725 1108 OFFCURVE",
"631 1108 CURVE SMOOTH"
);
}
);
width = 972;
}
);
unicode = 0063;
},
{
glyphname = ccedilla;
lastChange = "2013-03-07 06:46:41 +0200";
layers = (
{
layerId = "2BEA1A6F-25C4-4A40-9A7D-95BA05285D07";
name = Light;
paths = (
{
closed = 1;
nodes = (
"314 1108 OFFCURVE",
"119 897 OFFCURVE",
"119 537 CURVE SMOOTH",
"119 186 OFFCURVE",
"305 -20 OFFCURVE",
"616 -20 CURVE SMOOTH",
"729 -20 OFFCURVE",
"820 -3 OFFCURVE",
"889 31 CURVE",
"889 123 LINE",
"804 88 OFFCURVE",
"713 70 OFFCURVE",
"614 70 CURVE SMOOTH",
"367 70 OFFCURVE",
"223 246 OFFCURVE",
"223 539 CURVE SMOOTH",
"223 848 OFFCURVE",
"362 1018 OFFCURVE",
"629 1018 CURVE SMOOTH",
"698 1018 OFFCURVE",
"780 1002 OFFCURVE",
"874 971 CURVE",
"901 1059 LINE",
"815 1092 OFFCURVE",
"725 1108 OFFCURVE",
"631 1108 CURVE SMOOTH"
);
},
{
closed = 1;
nodes = (
"525 0 LINE",
"432 -174 LINE",
"561 -192 OFFCURVE",
"625 -232 OFFCURVE",
"625 -295 CURVE SMOOTH",
"625 -364 OFFCURVE",
"569 -403 OFFCURVE",
"465 -403 CURVE SMOOTH",
"424 -403 OFFCURVE",
"393 -400 OFFCURVE",
"373 -393 CURVE",
"373 -481 LINE",
"390 -488 OFFCURVE",
"422 -492 OFFCURVE",
"467 -492 CURVE SMOOTH",
"628 -492 OFFCURVE",
"723 -424 OFFCURVE",
"723 -291 CURVE SMOOTH",
"723 -200 OFFCURVE",
"667 -142 OFFCURVE",
"555 -117 CURVE",
"621 0 LINE"
);
}
);
width = 973;
}
);
unicode = 00E7;
},
{
glyphname = d;
lastChange = "2013-03-07 06:46:41 +0200";
layers = (
{
anchors = (
{
name = center;
position = "{610, 559}";
}
);
layerId = "2BEA1A6F-25C4-4A40-9A7D-95BA05285D07";
name = Light;
paths = (
{
closed = 1;
nodes = (
"938 1556 LINE",
"938 1165 LINE SMOOTH",
"938 1084 OFFCURVE",
"940 1002 OFFCURVE",
"944 918 CURVE",
"938 918 LINE",
"847 1057 OFFCURVE",
"737 1108 OFFCURVE",
"580 1108 CURVE SMOOTH",
"280 1108 OFFCURVE",
"119 904 OFFCURVE",
"119 528 CURVE SMOOTH",
"119 171 OFFCURVE",
"282 -20 OFFCURVE",
"582 -20 CURVE SMOOTH",
"737 -20 OFFCURVE",
"855 42 OFFCURVE",
"938 166 CURVE",
"946 166 LINE",
"970 0 LINE",
"1036 0 LINE",
"1036 1556 LINE"
);
},
{
closed = 1;
nodes = (
"706 1018 OFFCURVE",
"797 980 OFFCURVE",
"853 907 CURVE SMOOTH",
"910 834 OFFCURVE",
"938 713 OFFCURVE",
"938 545 CURVE SMOOTH",
"938 528 LINE SMOOTH",
"938 364 OFFCURVE",
"909 246 OFFCURVE",
"852 175 CURVE SMOOTH",
"795 104 OFFCURVE",
"705 68 OFFCURVE",
"582 68 CURVE SMOOTH",
"343 68 OFFCURVE",
"223 222 OFFCURVE",
"223 530 CURVE SMOOTH",
"223 847 OFFCURVE",
"343 1018 OFFCURVE",
"580 1018 CURVE SMOOTH"
);
}
);
width = 1219;
}
);
unicode = 0064;
},
{
glyphname = eth;
lastChange = "2013-03-07 06:46:41 +0200";
layers = (
{
layerId = "2BEA1A6F-25C4-4A40-9A7D-95BA05285D07";
name = Light;
paths = (
{
closed = 1;
nodes = (
"383 1475 LINE",
"458 1437 OFFCURVE",
"525 1397 OFFCURVE",
"582 1356 CURVE",
"338 1210 LINE",
"387 1133 LINE",
"657 1290 LINE",
"794 1164 OFFCURVE",
"883 1011 OFFCURVE",
"926 831 CURVE",
"922 829 LINE",
"830 913 OFFCURVE",
"730 958 OFFCURVE",
"586 958 CURVE SMOOTH",
"298 958 OFFCURVE",
"117 775 OFFCURVE",
"117 471 CURVE SMOOTH",
"117 163 OFFCURVE",
"297 -20 OFFCURVE",
"582 -20 CURVE SMOOTH",
"882 -20 OFFCURVE",
"1055 191 OFFCURVE",
"1055 559 CURVE SMOOTH",
"1055 864 OFFCURVE",
"953 1142 OFFCURVE",
"748 1343 CURVE",
"950 1464 LINE",
"901 1548 LINE",
"676 1411 LINE",
"609 1462 OFFCURVE",
"526 1510 OFFCURVE",
"428 1556 CURVE"
);
},
{
closed = 1;
nodes = (
"813 868 OFFCURVE",
"950 752 OFFCURVE",
"950 557 CURVE SMOOTH",
"950 236 OFFCURVE",
"823 70 OFFCURVE",
"584 70 CURVE SMOOTH",
"352 70 OFFCURVE",
"221 215 OFFCURVE",
"221 463 CURVE SMOOTH",
"221 735 OFFCURVE",
"339 868 OFFCURVE",
"586 868 CURVE SMOOTH"
);
}
);
width = 1174;
}
);
unicode = 00F0;
},
{
glyphname = e;
lastChange = "2013-03-07 06:46:41 +0200";
layers = (
{
anchors = (
{
name = bottom;
position = "{562, 0}";
},
{
name = ogonek;
position = "{1012, 10}";
},
{
name = top;
position = "{562, 1118}";
}
);
layerId = "2BEA1A6F-25C4-4A40-9A7D-95BA05285D07";
name = Light;
paths = (
{
closed = 1;
nodes = (
"447 1108 OFFCURVE",
"332 1056 OFFCURVE",
"247 951 CURVE SMOOTH",
"162 847 OFFCURVE",
"119 708 OFFCURVE",
"119 535 CURVE SMOOTH",
"119 360 OFFCURVE",
"163 223 OFFCURVE",
"251 126 CURVE SMOOTH",
"340 29 OFFCURVE",
"463 -20 OFFCURVE",
"621 -20 CURVE SMOOTH",
"684 -20 OFFCURVE",
"741 -15 OFFCURVE",
"793 -5 CURVE SMOOTH",
"845 4 OFFCURVE",
"902 22 OFFCURVE",
"963 49 CURVE",
"963 139 LINE",
"891 110 OFFCURVE",
"831 92 OFFCURVE",
"784 83 CURVE SMOOTH",
"737 74 OFFCURVE",
"683 70 OFFCURVE",
"621 70 CURVE SMOOTH",
"366 70 OFFCURVE",
"226 231 OFFCURVE",
"223 530 CURVE",
"1006 530 LINE",
"1006 610 LINE SMOOTH",
"1006 763 OFFCURVE",
"968 885 OFFCURVE",
"895 973 CURVE SMOOTH",
"821 1063 OFFCURVE",
"720 1108 OFFCURVE",
"592 1108 CURVE SMOOTH"
);
},
{
closed = 1;
nodes = (
"689 1020 OFFCURVE",
"764 983 OFFCURVE",
"819 913 CURVE SMOOTH",
"874 842 OFFCURVE",
"901 744 OFFCURVE",
"901 618 CURVE",
"229 618 LINE",
"250 878 OFFCURVE",
"383 1020 OFFCURVE",
"592 1020 CURVE SMOOTH"
);
}
);
width = 1124;
}
);
unicode = 0065;
},
{
glyphname = eacute;
lastChange = "2013-03-07 06:46:41 +0200";
layers = (
{
layerId = "2BEA1A6F-25C4-4A40-9A7D-95BA05285D07";
name = Light;
paths = (
{
closed = 1;
nodes = (
"303 1108 OFFCURVE",
"119 882 OFFCURVE",
"119 535 CURVE SMOOTH",
"119 184 OFFCURVE",
"305 -20 OFFCURVE",
"621 -20 CURVE SMOOTH",
"746 -20 OFFCURVE",
"840 -4 OFFCURVE",
"963 49 CURVE",
"963 139 LINE",
"819 82 OFFCURVE",
"745 70 OFFCURVE",
"621 70 CURVE SMOOTH",
"366 70 OFFCURVE",
"226 231 OFFCURVE",
"223 530 CURVE",
"1006 530 LINE",
"1006 610 LINE SMOOTH",
"1006 917 OFFCURVE",
"848 1108 OFFCURVE",
"592 1108 CURVE SMOOTH"
);
},
{
closed = 1;
nodes = (
"785 1020 OFFCURVE",
"901 870 OFFCURVE",
"901 618 CURVE",
"229 618 LINE",
"250 878 OFFCURVE",
"383 1020 OFFCURVE",
"592 1020 CURVE SMOOTH"
);
},
{
closed = 1;
nodes = (
"694 1569 LINE",
"659 1505 OFFCURVE",
"549 1362 OFFCURVE",
"452 1257 CURVE",
"452 1241 LINE",
"522 1241 LINE",
"661 1357 OFFCURVE",
"787 1483 OFFCURVE",
"835 1552 CURVE",
"835 1569 LINE"
);
}
);
width = 1124;
}
);
unicode = 00E9;
},
{
glyphname = ecircumflex;
lastChange = "2013-03-07 06:46:41 +0200";
layers = (
{
layerId = "2BEA1A6F-25C4-4A40-9A7D-95BA05285D07";
name = Light;
paths = (
{
closed = 1;
nodes = (
"303 1108 OFFCURVE",
"119 882 OFFCURVE",
"119 535 CURVE SMOOTH",
"119 184 OFFCURVE",
"305 -20 OFFCURVE",
"621 -20 CURVE SMOOTH",
"746 -20 OFFCURVE",
"840 -4 OFFCURVE",
"963 49 CURVE",
"963 139 LINE",
"819 82 OFFCURVE",
"745 70 OFFCURVE",
"621 70 CURVE SMOOTH",
"366 70 OFFCURVE",
"226 231 OFFCURVE",
"223 530 CURVE",
"1006 530 LINE",
"1006 610 LINE SMOOTH",
"1006 917 OFFCURVE",
"848 1108 OFFCURVE",
"592 1108 CURVE SMOOTH"
);
},
{
closed = 1;
nodes = (
"785 1020 OFFCURVE",
"901 870 OFFCURVE",
"901 618 CURVE",
"229 618 LINE",
"250 878 OFFCURVE",
"383 1020 OFFCURVE",
"592 1020 CURVE SMOOTH"
);
},
{
closed = 1;
nodes = (
"532 1569 LINE",
"477 1480 OFFCURVE",
"373 1346 OFFCURVE",
"290 1257 CURVE",
"290 1241 LINE",
"360 1241 LINE",
"435 1303 OFFCURVE",
"509 1372 OFFCURVE",
"581 1448 CURVE",
"647 1377 OFFCURVE",
"721 1308 OFFCURVE",
"802 1241 CURVE",
"872 1241 LINE",
"872 1257 LINE",
"756 1385 OFFCURVE",
"675 1489 OFFCURVE",
"630 1569 CURVE"
);
}
);
width = 1124;
}
);
unicode = 00EA;
},
{
glyphname = edieresis;
lastChange = "2013-03-07 06:46:41 +0200";
layers = (
{
layerId = "2BEA1A6F-25C4-4A40-9A7D-95BA05285D07";
name = Light;
paths = (
{
closed = 1;
nodes = (
"303 1108 OFFCURVE",
"119 882 OFFCURVE",
"119 535 CURVE SMOOTH",
"119 184 OFFCURVE",
"305 -20 OFFCURVE",
"621 -20 CURVE SMOOTH",
"746 -20 OFFCURVE",
"840 -4 OFFCURVE",
"963 49 CURVE",
"963 139 LINE",
"819 82 OFFCURVE",
"745 70 OFFCURVE",
"621 70 CURVE SMOOTH",
"366 70 OFFCURVE",
"226 231 OFFCURVE",
"223 530 CURVE",
"1006 530 LINE",
"1006 610 LINE SMOOTH",
"1006 917 OFFCURVE",
"848 1108 OFFCURVE",
"592 1108 CURVE SMOOTH"
);
},
{
closed = 1;
nodes = (
"785 1020 OFFCURVE",
"901 870 OFFCURVE",
"901 618 CURVE",
"229 618 LINE",
"250 878 OFFCURVE",
"383 1020 OFFCURVE",
"592 1020 CURVE SMOOTH"
);
},
{
closed = 1;
nodes = (
"351 1475 OFFCURVE",
"331 1450 OFFCURVE",
"331 1389 CURVE SMOOTH",
"331 1332 OFFCURVE",
"352 1303 OFFCURVE",
"394 1303 CURVE SMOOTH",
"437 1303 OFFCURVE",
"458 1332 OFFCURVE",
"458 1389 CURVE SMOOTH",
"458 1446 OFFCURVE",
"437 1475 OFFCURVE",
"394 1475 CURVE SMOOTH"
);
},
{
closed = 1;
nodes = (
"732 1475 OFFCURVE",
"712 1450 OFFCURVE",
"712 1389 CURVE SMOOTH",
"712 1332 OFFCURVE",
"733 1303 OFFCURVE",
"775 1303 CURVE SMOOTH",
"818 1303 OFFCURVE",
"839 1332 OFFCURVE",
"839 1389 CURVE SMOOTH",
"839 1446 OFFCURVE",
"818 1475 OFFCURVE",
"775 1475 CURVE SMOOTH"
);
}
);
width = 1124;
}
);
unicode = 00EB;
},
{
glyphname = egrave;
lastChange = "2013-03-07 06:46:41 +0200";
layers = (
{
layerId = "2BEA1A6F-25C4-4A40-9A7D-95BA05285D07";
name = Light;
paths = (
{
closed = 1;
nodes = (
"303 1108 OFFCURVE",
"119 882 OFFCURVE",
"119 535 CURVE SMOOTH",
"119 184 OFFCURVE",
"305 -20 OFFCURVE",
"621 -20 CURVE SMOOTH",
"746 -20 OFFCURVE",
"840 -4 OFFCURVE",
"963 49 CURVE",
"963 139 LINE",
"819 82 OFFCURVE",
"745 70 OFFCURVE",
"621 70 CURVE SMOOTH",
"366 70 OFFCURVE",
"226 231 OFFCURVE",
"223 530 CURVE",
"1006 530 LINE",
"1006 610 LINE SMOOTH",
"1006 917 OFFCURVE",
"848 1108 OFFCURVE",
"592 1108 CURVE SMOOTH"
);
},
{
closed = 1;
nodes = (
"785 1020 OFFCURVE",
"901 870 OFFCURVE",
"901 618 CURVE",
"229 618 LINE",
"250 878 OFFCURVE",
"383 1020 OFFCURVE",
"592 1020 CURVE SMOOTH"
);
},
{
closed = 1;
nodes = (
"302 1569 LINE",
"302 1552 LINE",
"346 1489 OFFCURVE",
"488 1346 OFFCURVE",
"616 1241 CURVE",
"685 1241 LINE",
"685 1257 LINE",
"592 1358 OFFCURVE",
"479 1505 OFFCURVE",
"444 1569 CURVE"
);
}
);
width = 1124;
}
);
unicode = 00E8;
},
{
glyphname = f;
lastChange = "2013-03-07 06:46:41 +0200";
layers = (
{
layerId = "2BEA1A6F-25C4-4A40-9A7D-95BA05285D07";
name = Light;
paths = (
{
closed = 1;
nodes = (
"322 1567 OFFCURVE",
"231 1447 OFFCURVE",
"231 1180 CURVE SMOOTH",
"231 1096 LINE",
"29 1059 LINE",
"29 1001 LINE",
"231 1001 LINE",
"231 0 LINE",
"330 0 LINE",
"330 1001 LINE",
"586 1001 LINE",
"586 1087 LINE",
"330 1087 LINE",
"330 1188 LINE SMOOTH",
"330 1291 OFFCURVE",
"346 1365 OFFCURVE",
"378 1410 CURVE SMOOTH",
"411 1456 OFFCURVE",
"466 1479 OFFCURVE",
"543 1479 CURVE SMOOTH",
"596 1479 OFFCURVE",
"649 1471 OFFCURVE",
"702 1454 CURVE",
"725 1540 LINE",
"665 1558 OFFCURVE",
"605 1567 OFFCURVE",
"545 1567 CURVE SMOOTH"
);
}
);
width = 614;
}
);
unicode = 0066;
},
{
glyphname = g;
lastChange = "2013-03-07 06:46:41 +0200";
layers = (
{
anchors = (
{
name = top;
position = "{536, 1118}";
}
);
layerId = "2BEA1A6F-25C4-4A40-9A7D-95BA05285D07";
name = Light;
paths = (
{
closed = 1;
nodes = (
"399 1108 OFFCURVE",
"305 1075 OFFCURVE",
"236 1009 CURVE SMOOTH",
"167 944 OFFCURVE",
"133 857 OFFCURVE",
"133 748 CURVE SMOOTH",
"133 604 OFFCURVE",
"207 486 OFFCURVE",
"334 434 CURVE",
"241 379 OFFCURVE",
"195 315 OFFCURVE",
"195 242 CURVE SMOOTH",
"195 175 OFFCURVE",
"238 122 OFFCURVE",
"303 93 CURVE",
"144 58 OFFCURVE",
"45 -44 OFFCURVE",
"45 -193 CURVE SMOOTH",
"45 -381 OFFCURVE",
"202 -492 OFFCURVE",
"475 -492 CURVE SMOOTH",
"819 -492 OFFCURVE",
"1012 -362 OFFCURVE",
"1012 -133 CURVE SMOOTH",
"1012 54 OFFCURVE",
"883 150 OFFCURVE",
"647 150 CURVE SMOOTH",
"457 150 LINE SMOOTH",
"333 150 OFFCURVE",
"285 181 OFFCURVE",
"285 250 CURVE SMOOTH",
"285 313 OFFCURVE",
"327 371 OFFCURVE",
"406 412 CURVE",
"426 408 OFFCURVE",
"461 406 OFFCURVE",
"510 406 CURVE SMOOTH",
"627 406 OFFCURVE",
"721 438 OFFCURVE",
"790 503 CURVE SMOOTH",
"860 568 OFFCURVE",
"895 653 OFFCURVE",
"895 758 CURVE SMOOTH",
"895 847 OFFCURVE",
"865 929 OFFCURVE",
"805 1004 CURVE",
"1030 1018 LINE",
"1030 1087 LINE",
"682 1087 LINE",
"643 1101 OFFCURVE",
"587 1108 OFFCURVE",
"516 1108 CURVE SMOOTH"
);
},
{
closed = 1;
nodes = (
"827 51 OFFCURVE",
"911 -4 OFFCURVE",
"911 -135 CURVE SMOOTH",
"911 -317 OFFCURVE",
"768 -408 OFFCURVE",
"483 -408 CURVE SMOOTH",
"261 -408 OFFCURVE",
"150 -333 OFFCURVE",
"150 -184 CURVE SMOOTH",
"150 -27 OFFCURVE",
"250 51 OFFCURVE",
"449 51 CURVE SMOOTH",
"627 51 LINE SMOOTH"
);
},
{
closed = 1;
nodes = (
"691 1030 OFFCURVE",
"795 937 OFFCURVE",
"795 752 CURVE SMOOTH",
"795 577 OFFCURVE",
"695 483 OFFCURVE",
"514 483 CURVE SMOOTH",
"429 483 OFFCURVE",
"360 506 OFFCURVE",
"309 552 CURVE SMOOTH",
"258 599 OFFCURVE",
"233 664 OFFCURVE",
"233 748 CURVE SMOOTH",
"233 925 OFFCURVE",
"339 1030 OFFCURVE",
"512 1030 CURVE SMOOTH"
);
}
);
width = 1071;
}
);
unicode = 0067;
},
{
glyphname = h;
lastChange = "2013-03-07 06:46:41 +0200";
layers = (
{
anchors = (
{
name = center;
position = "{604, 559}";
},
{
name = top;
position = "{604, 1118}";
}
);
layerId = "2BEA1A6F-25C4-4A40-9A7D-95BA05285D07";
name = Light;
paths = (
{
closed = 1;
nodes = (
"182 1556 LINE",
"182 0 LINE",
"281 0 LINE",
"281 600 LINE SMOOTH",
"281 747 OFFCURVE",
"311 854 OFFCURVE",
"371 919 CURVE SMOOTH",
"432 984 OFFCURVE",
"527 1018 OFFCURVE",
"657 1018 CURVE SMOOTH",
"850 1018 OFFCURVE",
"940 924 OFFCURVE",
"940 705 CURVE SMOOTH",
"940 0 LINE",
"1038 0 LINE",
"1038 711 LINE SMOOTH",
"1038 975 OFFCURVE",
"915 1108 OFFCURVE",
"668 1108 CURVE SMOOTH",
"484 1108 OFFCURVE",
"364 1053 OFFCURVE",
"283 922 CURVE",
"276 922 LINE",
"281 1061 LINE",
"281 1556 LINE"
);
}
);
width = 1208;
}
);
unicode = 0068;
},
{
glyphname = i;
lastChange = "2013-03-07 06:46:41 +0200";
layers = (
{
layerId = "2BEA1A6F-25C4-4A40-9A7D-95BA05285D07";
name = Light;
paths = (
{
closed = 1;
nodes = (
"182 1087 LINE",
"182 0 LINE",
"281 0 LINE",
"281 1087 LINE"
);
},
{
closed = 1;
nodes = (
"189 1485 OFFCURVE",
"168 1453 OFFCURVE",
"168 1389 CURVE SMOOTH",
"168 1324 OFFCURVE",
"189 1292 OFFCURVE",
"231 1292 CURVE SMOOTH",
"272 1292 OFFCURVE",
"297 1329 OFFCURVE",
"297 1389 CURVE SMOOTH",
"297 1450 OFFCURVE",
"272 1485 OFFCURVE",
"231 1485 CURVE SMOOTH"
);
}
);
width = 463;
}
);
unicode = 0069;
},
{
glyphname = dotlessi;
lastChange = "2013-03-07 06:46:41 +0200";
layers = (
{
layerId = "2BEA1A6F-25C4-4A40-9A7D-95BA05285D07";
name = Light;
paths = (
{
closed = 1;
nodes = (
"182 1087 LINE",
"182 0 LINE",
"281 0 LINE",
"281 1087 LINE"
);
}
);
width = 463;
}
);
unicode = 0131;
},
{
glyphname = iacute;
lastChange = "2013-03-07 06:46:41 +0200";
layers = (
{
layerId = "2BEA1A6F-25C4-4A40-9A7D-95BA05285D07";
name = Light;
paths = (
{
closed = 1;
nodes = (
"349 1569 LINE",
"314 1505 OFFCURVE",
"204 1362 OFFCURVE",
"107 1257 CURVE",
"107 1241 LINE",
"177 1241 LINE",
"316 1357 OFFCURVE",
"442 1483 OFFCURVE",
"490 1552 CURVE",
"490 1569 LINE"
);
},
{
closed = 1;
nodes = (
"182 1087 LINE",
"182 0 LINE",
"281 0 LINE",
"281 1087 LINE"
);
}
);
width = 463;
}
);
unicode = 00ED;
},
{
glyphname = icircumflex;
lastChange = "2013-03-07 06:46:41 +0200";
layers = (
{
layerId = "2BEA1A6F-25C4-4A40-9A7D-95BA05285D07";
name = Light;
paths = (
{
closed = 1;
nodes = (
"184 1569 LINE",
"129 1480 OFFCURVE",
"25 1346 OFFCURVE",
"-58 1257 CURVE",
"-58 1241 LINE",
"12 1241 LINE",
"87 1303 OFFCURVE",
"161 1372 OFFCURVE",
"233 1448 CURVE",
"299 1377 OFFCURVE",
"373 1308 OFFCURVE",
"454 1241 CURVE",
"524 1241 LINE",
"524 1257 LINE",
"408 1385 OFFCURVE",
"327 1489 OFFCURVE",
"282 1569 CURVE"
);
},
{
closed = 1;
nodes = (
"182 1087 LINE",
"182 0 LINE",
"281 0 LINE",
"281 1087 LINE"
);
}
);
width = 463;
}
);
unicode = 00EE;
},
{
glyphname = idieresis;
lastChange = "2013-03-07 06:46:41 +0200";
layers = (
{
layerId = "2BEA1A6F-25C4-4A40-9A7D-95BA05285D07";
name = Light;
paths = (
{
closed = 1;
nodes = (
"182 1087 LINE",
"182 0 LINE",
"281 0 LINE",
"281 1087 LINE"
);
},
{
closed = 1;
nodes = (
"-1 1475 OFFCURVE",
"-21 1450 OFFCURVE",
"-21 1389 CURVE SMOOTH",
"-21 1332 OFFCURVE",
"0 1303 OFFCURVE",
"42 1303 CURVE SMOOTH",
"85 1303 OFFCURVE",
"106 1332 OFFCURVE",
"106 1389 CURVE SMOOTH",
"106 1446 OFFCURVE",
"85 1475 OFFCURVE",
"42 1475 CURVE SMOOTH"
);
},
{
closed = 1;
nodes = (
"380 1475 OFFCURVE",
"360 1450 OFFCURVE",
"360 1389 CURVE SMOOTH",
"360 1332 OFFCURVE",
"381 1303 OFFCURVE",
"423 1303 CURVE SMOOTH",
"466 1303 OFFCURVE",
"487 1332 OFFCURVE",
"487 1389 CURVE SMOOTH",
"487 1446 OFFCURVE",
"466 1475 OFFCURVE",
"423 1475 CURVE SMOOTH"
);
}
);
width = 463;
}
);
unicode = 00EF;
},
{
glyphname = igrave;
lastChange = "2013-03-07 06:46:41 +0200";
layers = (
{
layerId = "2BEA1A6F-25C4-4A40-9A7D-95BA05285D07";
name = Light;
paths = (
{
closed = 1;
nodes = (
"-34 1569 LINE",
"-34 1552 LINE",
"10 1489 OFFCURVE",
"152 1346 OFFCURVE",
"280 1241 CURVE",
"349 1241 LINE",
"349 1257 LINE",
"256 1358 OFFCURVE",
"143 1505 OFFCURVE",
"108 1569 CURVE"
);
},
{
closed = 1;
nodes = (
"182 1087 LINE",
"182 0 LINE",
"281 0 LINE",
"281 1087 LINE"
);
}
);
width = 463;
}
);
unicode = 00EC;
},
{
glyphname = j;
lastChange = "2013-03-07 06:46:41 +0200";
layers = (
{
layerId = "2BEA1A6F-25C4-4A40-9A7D-95BA05285D07";
name = Light;
paths = (
{
closed = 1;
nodes = (
"182 1087 LINE",
"182 -225 LINE SMOOTH",
"182 -342 OFFCURVE",
"132 -401 OFFCURVE",
"31 -401 CURVE SMOOTH",
"-9 -401 OFFCURVE",
"-52 -394 OFFCURVE",
"-97 -381 CURVE",
"-97 -467 LINE",
"-61 -484 OFFCURVE",
"-16 -492 OFFCURVE",
"37 -492 CURVE SMOOTH",
"193 -492 OFFCURVE",
"281 -391 OFFCURVE",
"281 -211 CURVE SMOOTH",
"281 1087 LINE"
);
},
{
closed = 1;
nodes = (
"189 1485 OFFCURVE",
"168 1453 OFFCURVE",
"168 1389 CURVE SMOOTH",
"168 1324 OFFCURVE",
"189 1292 OFFCURVE",
"231 1292 CURVE SMOOTH",
"272 1292 OFFCURVE",
"297 1329 OFFCURVE",
"297 1389 CURVE SMOOTH",
"297 1450 OFFCURVE",
"272 1485 OFFCURVE",
"231 1485 CURVE SMOOTH"
);
}
);
width = 463;
}
);
unicode = 006A;
},
{
glyphname = k;
lastChange = "2013-03-07 06:46:41 +0200";
layers = (
{
anchors = (
{
name = bottom;
position = "{495, 0}";
}
);
layerId = "2BEA1A6F-25C4-4A40-9A7D-95BA05285D07";
name = Light;
paths = (
{
closed = 1;
nodes = (
"182 1556 LINE",
"182 0 LINE",
"281 0 LINE",
"281 387 LINE",
"459 549 LINE",
"872 0 LINE",
"990 0 LINE",
"526 623 LINE",
"954 1087 LINE",
"834 1087 LINE",
"279 477 LINE",
"274 477 LINE",
"281 776 LINE",
"281 1556 LINE"
);
}
);
width = 990;
}
);
unicode = 006B;
},
{
glyphname = l;
lastChange = "2013-03-07 06:46:41 +0200";
layers = (
{
anchors = (
{
name = bottom;
position = "{232, 0}";
},
{
name = top;
position = "{232, 1118}";
},
{
name = topright;
position = "{443, 1118}";
}
);
layerId = "2BEA1A6F-25C4-4A40-9A7D-95BA05285D07";
name = Light;
paths = (
{
closed = 1;
nodes = (
"182 1556 LINE",
"182 0 LINE",
"281 0 LINE",
"281 1556 LINE"
);
}
);
width = 463;
}
);
unicode = 006C;
},
{
glyphname = m;
lastChange = "2013-03-07 06:46:41 +0200";
layers = (
{
layerId = "2BEA1A6F-25C4-4A40-9A7D-95BA05285D07";
name = Light;
paths = (
{
closed = 1;
nodes = (
"1130 1108 OFFCURVE",
"1007 1039 OFFCURVE",
"936 915 CURVE",
"932 915 LINE",
"883 1044 OFFCURVE",
"773 1108 OFFCURVE",
"602 1108 CURVE SMOOTH",
"469 1108 OFFCURVE",
"351 1046 OFFCURVE",
"291 938 CURVE",
"285 938 LINE",
"264 1087 LINE",
"182 1087 LINE",
"182 0 LINE",
"281 0 LINE",
"281 600 LINE SMOOTH",
"281 892 OFFCURVE",
"380 1018 OFFCURVE",
"608 1018 CURVE SMOOTH",
"776 1018 OFFCURVE",
"860 926 OFFCURVE",
"860 743 CURVE SMOOTH",
"860 0 LINE",
"961 0 LINE",
"961 637 LINE SMOOTH",
"961 900 OFFCURVE",
"1065 1018 OFFCURVE",
"1288 1018 CURVE SMOOTH",
"1459 1018 OFFCURVE",
"1540 925 OFFCURVE",
"1540 713 CURVE SMOOTH",
"1540 0 LINE",
"1638 0 LINE",
"1638 711 LINE SMOOTH",
"1638 986 OFFCURVE",
"1519 1108 OFFCURVE",
"1282 1108 CURVE SMOOTH"
);
}
);
width = 1808;
}
);
unicode = 006D;
},
{
glyphname = n;
lastChange = "2013-03-07 06:46:41 +0200";
layers = (
{
anchors = (
{
name = bottom;
position = "{604, 0}";
},
{
name = top;
position = "{604, 1118}";
}
);
layerId = "2BEA1A6F-25C4-4A40-9A7D-95BA05285D07";
name = Light;
paths = (
{
closed = 1;
nodes = (
"487 1108 OFFCURVE",
"362 1051 OFFCURVE",
"291 938 CURVE",
"285 938 LINE",
"266 1087 LINE",
"182 1087 LINE",
"182 0 LINE",
"281 0 LINE",
"281 600 LINE SMOOTH",
"281 747 OFFCURVE",
"311 854 OFFCURVE",
"371 919 CURVE SMOOTH",
"432 984 OFFCURVE",
"527 1018 OFFCURVE",
"657 1018 CURVE SMOOTH",
"850 1018 OFFCURVE",
"940 924 OFFCURVE",
"940 705 CURVE SMOOTH",
"940 0 LINE",
"1038 0 LINE",
"1038 711 LINE SMOOTH",
"1038 975 OFFCURVE",
"915 1108 OFFCURVE",
"668 1108 CURVE SMOOTH"
);
}
);
width = 1208;
}
);
unicode = 006E;
},
{
glyphname = ntilde;
lastChange = "2013-03-07 06:46:41 +0200";
layers = (
{
layerId = "2BEA1A6F-25C4-4A40-9A7D-95BA05285D07";
name = Light;
paths = (
{
closed = 1;
nodes = (
"487 1108 OFFCURVE",
"362 1051 OFFCURVE",
"291 938 CURVE",
"285 938 LINE",
"266 1087 LINE",
"182 1087 LINE",
"182 0 LINE",
"281 0 LINE",
"281 600 LINE SMOOTH",
"281 895 OFFCURVE",
"397 1018 OFFCURVE",
"657 1018 CURVE SMOOTH",
"850 1018 OFFCURVE",
"940 924 OFFCURVE",
"940 705 CURVE SMOOTH",
"940 0 LINE",
"1038 0 LINE",
"1038 711 LINE SMOOTH",
"1038 976 OFFCURVE",
"915 1108 OFFCURVE",
"668 1108 CURVE SMOOTH"
);
},
{
closed = 1;
nodes = (
"904 1481 LINE",
"881 1370 OFFCURVE",
"840 1325 OFFCURVE",
"779 1325 CURVE SMOOTH",
"740 1325 OFFCURVE",
"697 1360 OFFCURVE",
"652 1397 CURVE SMOOTH",
"596 1442 OFFCURVE",
"546 1481 OFFCURVE",
"482 1481 CURVE SMOOTH",
"370 1481 OFFCURVE",
"295 1391 OFFCURVE",
"282 1243 CURVE",
"355 1243 LINE",
"379 1359 OFFCURVE",
"418 1399 OFFCURVE",
"478 1399 CURVE SMOOTH",
"521 1399 OFFCURVE",
"560 1368 OFFCURVE",
"603 1333 CURVE SMOOTH",
"686 1262 OFFCURVE",
"731 1243 OFFCURVE",
"779 1243 CURVE SMOOTH",
"884 1243 OFFCURVE",
"959 1326 OFFCURVE",
"980 1481 CURVE"
);
}
);
width = 1208;
}
);
unicode = 00F1;
},
{
glyphname = o;
lastChange = "2013-03-07 06:46:41 +0200";
layers = (
{
anchors = (
{
name = top;
position = "{600, 1118}";
}
);
layerId = "2BEA1A6F-25C4-4A40-9A7D-95BA05285D07";
name = Light;
paths = (
{
closed = 1;
nodes = (
"452 1108 OFFCURVE",
"334 1058 OFFCURVE",
"248 959 CURVE SMOOTH",
"162 860 OFFCURVE",
"119 722 OFFCURVE",
"119 545 CURVE SMOOTH",
"114 207 OFFCURVE",
"309 -25 OFFCURVE",
"596 -20 CURVE SMOOTH",
"747 -20 OFFCURVE",
"866 30 OFFCURVE",
"952 129 CURVE SMOOTH",
"1038 229 OFFCURVE",
"1081 368 OFFCURVE",
"1081 545 CURVE SMOOTH",
"1081 720 OFFCURVE",
"1038 857 OFFCURVE",
"953 957 CURVE SMOOTH",
"868 1058 OFFCURVE",
"751 1108 OFFCURVE",
"602 1108 CURVE SMOOTH"
);
},
{
closed = 1;
nodes = (
"718 1018 OFFCURVE",
"811 976 OFFCURVE",
"877 894 CURVE SMOOTH",
"944 811 OFFCURVE",
"976 695 OFFCURVE",
"976 545 CURVE SMOOTH",
"976 396 OFFCURVE",
"944 279 OFFCURVE",
"878 195 CURVE SMOOTH",
"813 112 OFFCURVE",
"720 70 OFFCURVE",
"600 70 CURVE SMOOTH",
"480 70 OFFCURVE",
"387 112 OFFCURVE",
"321 195 CURVE SMOOTH",
"256 279 OFFCURVE",
"223 396 OFFCURVE",
"223 545 CURVE SMOOTH",
"223 846 OFFCURVE",
"358 1018 OFFCURVE",
"598 1018 CURVE SMOOTH"
);
}
);
width = 1200;
}
);
unicode = 006F;
},
{
glyphname = oacute;
lastChange = "2013-03-07 06:46:41 +0200";
layers = (
{
layerId = "2BEA1A6F-25C4-4A40-9A7D-95BA05285D07";
name = Light;
paths = (
{
closed = 1;
nodes = (
"302 1108 OFFCURVE",
"119 900 OFFCURVE",
"119 545 CURVE SMOOTH",
"119 432 OFFCURVE",
"138 333 OFFCURVE",
"177 247 CURVE SMOOTH",
"254 75 OFFCURVE",
"405 -20 OFFCURVE",
"596 -20 CURVE SMOOTH",
"899 -20 OFFCURVE",
"1081 190 OFFCURVE",
"1081 545 CURVE SMOOTH",
"1081 894 OFFCURVE",
"901 1108 OFFCURVE",
"602 1108 CURVE SMOOTH"
);
},
{
closed = 1;
nodes = (
"838 1018 OFFCURVE",
"977 845 OFFCURVE",
"977 545 CURVE SMOOTH",
"977 246 OFFCURVE",
"840 70 OFFCURVE",
"600 70 CURVE SMOOTH",
"360 70 OFFCURVE",
"223 246 OFFCURVE",
"223 545 CURVE SMOOTH",
"223 846 OFFCURVE",
"358 1018 OFFCURVE",
"598 1018 CURVE SMOOTH"
);
},
{
closed = 1;
nodes = (
"741 1569 LINE",
"706 1505 OFFCURVE",
"596 1362 OFFCURVE",
"499 1257 CURVE",
"499 1241 LINE",
"569 1241 LINE",
"708 1357 OFFCURVE",
"834 1483 OFFCURVE",
"882 1552 CURVE",
"882 1569 LINE"
);
}
);
width = 1200;
}
);
unicode = 00F3;
},
{
glyphname = ocircumflex;
lastChange = "2013-03-07 06:46:41 +0200";
layers = (
{
layerId = "2BEA1A6F-25C4-4A40-9A7D-95BA05285D07";
name = Light;
paths = (
{
closed = 1;
nodes = (
"302 1108 OFFCURVE",
"119 900 OFFCURVE",
"119 545 CURVE SMOOTH",
"119 432 OFFCURVE",
"138 333 OFFCURVE",
"177 247 CURVE SMOOTH",
"254 75 OFFCURVE",
"405 -20 OFFCURVE",
"596 -20 CURVE SMOOTH",
"899 -20 OFFCURVE",
"1081 190 OFFCURVE",
"1081 545 CURVE SMOOTH",
"1081 894 OFFCURVE",
"901 1108 OFFCURVE",
"602 1108 CURVE SMOOTH"
);
},
{
closed = 1;
nodes = (
"838 1018 OFFCURVE",
"977 845 OFFCURVE",
"977 545 CURVE SMOOTH",
"977 246 OFFCURVE",
"840 70 OFFCURVE",
"600 70 CURVE SMOOTH",
"360 70 OFFCURVE",
"223 246 OFFCURVE",
"223 545 CURVE SMOOTH",
"223 846 OFFCURVE",
"358 1018 OFFCURVE",
"598 1018 CURVE SMOOTH"
);
},
{
closed = 1;
nodes = (
"551 1569 LINE",
"496 1480 OFFCURVE",
"392 1346 OFFCURVE",
"309 1257 CURVE",
"309 1241 LINE",
"379 1241 LINE",
"454 1303 OFFCURVE",
"528 1372 OFFCURVE",
"600 1448 CURVE",
"666 1377 OFFCURVE",
"740 1308 OFFCURVE",
"821 1241 CURVE",
"891 1241 LINE",
"891 1257 LINE",
"775 1385 OFFCURVE",
"694 1489 OFFCURVE",
"649 1569 CURVE"
);
}
);
width = 1200;
}
);
unicode = 00F4;
},
{
glyphname = odieresis;
lastChange = "2013-03-07 06:46:41 +0200";
layers = (
{
layerId = "2BEA1A6F-25C4-4A40-9A7D-95BA05285D07";
name = Light;
paths = (
{
closed = 1;
nodes = (
"302 1108 OFFCURVE",
"119 900 OFFCURVE",
"119 545 CURVE SMOOTH",
"119 432 OFFCURVE",
"138 333 OFFCURVE",
"177 247 CURVE SMOOTH",
"254 75 OFFCURVE",
"405 -20 OFFCURVE",
"596 -20 CURVE SMOOTH",
"899 -20 OFFCURVE",
"1081 190 OFFCURVE",
"1081 545 CURVE SMOOTH",
"1081 894 OFFCURVE",
"901 1108 OFFCURVE",
"602 1108 CURVE SMOOTH"
);
},
{
closed = 1;
nodes = (
"838 1018 OFFCURVE",
"977 845 OFFCURVE",
"977 545 CURVE SMOOTH",
"977 246 OFFCURVE",
"840 70 OFFCURVE",
"600 70 CURVE SMOOTH",
"360 70 OFFCURVE",
"223 246 OFFCURVE",
"223 545 CURVE SMOOTH",
"223 846 OFFCURVE",
"358 1018 OFFCURVE",
"598 1018 CURVE SMOOTH"
);
},
{
closed = 1;
nodes = (
"366 1475 OFFCURVE",
"346 1450 OFFCURVE",
"346 1389 CURVE SMOOTH",
"346 1332 OFFCURVE",
"367 1303 OFFCURVE",
"409 1303 CURVE SMOOTH",
"452 1303 OFFCURVE",
"473 1332 OFFCURVE",
"473 1389 CURVE SMOOTH",
"473 1446 OFFCURVE",
"452 1475 OFFCURVE",
"409 1475 CURVE SMOOTH"
);
},
{
closed = 1;
nodes = (
"747 1475 OFFCURVE",
"727 1450 OFFCURVE",
"727 1389 CURVE SMOOTH",
"727 1332 OFFCURVE",
"748 1303 OFFCURVE",
"790 1303 CURVE SMOOTH",
"833 1303 OFFCURVE",
"854 1332 OFFCURVE",
"854 1389 CURVE SMOOTH",
"854 1446 OFFCURVE",
"833 1475 OFFCURVE",
"790 1475 CURVE SMOOTH"
);
}
);
width = 1200;
}
);
unicode = 00F6;
},
{
glyphname = ograve;
lastChange = "2013-03-07 06:46:41 +0200";
layers = (
{
layerId = "2BEA1A6F-25C4-4A40-9A7D-95BA05285D07";
name = Light;
paths = (
{
closed = 1;
nodes = (
"302 1108 OFFCURVE",
"119 900 OFFCURVE",
"119 545 CURVE SMOOTH",
"119 432 OFFCURVE",
"138 333 OFFCURVE",
"177 247 CURVE SMOOTH",
"254 75 OFFCURVE",
"405 -20 OFFCURVE",
"596 -20 CURVE SMOOTH",
"899 -20 OFFCURVE",
"1081 190 OFFCURVE",
"1081 545 CURVE SMOOTH",
"1081 894 OFFCURVE",
"901 1108 OFFCURVE",
"602 1108 CURVE SMOOTH"
);
},
{
closed = 1;
nodes = (
"838 1018 OFFCURVE",
"977 845 OFFCURVE",
"977 545 CURVE SMOOTH",
"977 246 OFFCURVE",
"840 70 OFFCURVE",
"600 70 CURVE SMOOTH",
"360 70 OFFCURVE",
"223 246 OFFCURVE",
"223 545 CURVE SMOOTH",
"223 846 OFFCURVE",
"358 1018 OFFCURVE",
"598 1018 CURVE SMOOTH"
);
},
{
closed = 1;
nodes = (
"335 1569 LINE",
"335 1552 LINE",
"379 1489 OFFCURVE",
"521 1346 OFFCURVE",
"649 1241 CURVE",
"718 1241 LINE",
"718 1257 LINE",
"625 1358 OFFCURVE",
"512 1505 OFFCURVE",
"477 1569 CURVE"
);
}
);
width = 1200;
}
);
unicode = 00F2;
},
{
glyphname = oslash;
lastChange = "2013-03-07 06:46:41 +0200";
layers = (
{
layerId = "2BEA1A6F-25C4-4A40-9A7D-95BA05285D07";
name = Light;
paths = (
{
closed = 1;
nodes = (
"903 1004 LINE",
"822 1073 OFFCURVE",
"721 1108 OFFCURVE",
"602 1108 CURVE SMOOTH",
"302 1108 OFFCURVE",
"119 900 OFFCURVE",
"119 545 CURVE SMOOTH",
"119 379 OFFCURVE",
"159 245 OFFCURVE",
"240 143 CURVE",
"147 23 LINE",
"219 -35 LINE",
"305 78 LINE",
"384 13 OFFCURVE",
"481 -20 OFFCURVE",
"596 -20 CURVE SMOOTH",
"899 -20 OFFCURVE",
"1081 190 OFFCURVE",
"1081 545 CURVE SMOOTH",
"1081 708 OFFCURVE",
"1044 838 OFFCURVE",
"969 936 CURVE",
"1073 1073 LINE",
"999 1128 LINE"
);
},
{
closed = 1;
nodes = (
"953 775 OFFCURVE",
"977 672 OFFCURVE",
"977 545 CURVE SMOOTH",
"977 246 OFFCURVE",
"840 70 OFFCURVE",
"600 70 CURVE SMOOTH",
"504 70 OFFCURVE",
"425 97 OFFCURVE",
"362 152 CURVE",
"905 854 LINE"
);
},
{
closed = 1;
nodes = (
"697 1018 OFFCURVE",
"779 988 OFFCURVE",
"844 928 CURVE",
"301 223 LINE",
"249 304 OFFCURVE",
"223 412 OFFCURVE",
"223 545 CURVE SMOOTH",
"223 846 OFFCURVE",
"358 1018 OFFCURVE",
"598 1018 CURVE SMOOTH"
);
}
);
width = 1200;
}
);
unicode = 00F8;
},
{
glyphname = otilde;
lastChange = "2013-03-07 06:46:41 +0200";
layers = (
{
layerId = "2BEA1A6F-25C4-4A40-9A7D-95BA05285D07";
name = Light;
paths = (
{
closed = 1;
nodes = (
"302 1108 OFFCURVE",
"119 900 OFFCURVE",
"119 545 CURVE SMOOTH",
"119 432 OFFCURVE",
"138 333 OFFCURVE",
"177 247 CURVE SMOOTH",
"254 75 OFFCURVE",
"405 -20 OFFCURVE",
"596 -20 CURVE SMOOTH",
"899 -20 OFFCURVE",
"1081 190 OFFCURVE",
"1081 545 CURVE SMOOTH",
"1081 894 OFFCURVE",
"901 1108 OFFCURVE",
"602 1108 CURVE SMOOTH"
);
},
{
closed = 1;
nodes = (
"838 1018 OFFCURVE",
"977 845 OFFCURVE",
"977 545 CURVE SMOOTH",
"977 246 OFFCURVE",
"840 70 OFFCURVE",
"600 70 CURVE SMOOTH",
"360 70 OFFCURVE",
"223 246 OFFCURVE",
"223 545 CURVE SMOOTH",
"223 846 OFFCURVE",
"358 1018 OFFCURVE",
"598 1018 CURVE SMOOTH"
);
},
{
closed = 1;
nodes = (
"886 1481 LINE",
"863 1370 OFFCURVE",
"822 1325 OFFCURVE",
"761 1325 CURVE SMOOTH",
"722 1325 OFFCURVE",
"679 1360 OFFCURVE",
"634 1397 CURVE SMOOTH",
"578 1442 OFFCURVE",
"528 1481 OFFCURVE",
"464 1481 CURVE SMOOTH",
"352 1481 OFFCURVE",
"277 1391 OFFCURVE",
"264 1243 CURVE",
"337 1243 LINE",
"361 1359 OFFCURVE",
"400 1399 OFFCURVE",
"460 1399 CURVE SMOOTH",
"503 1399 OFFCURVE",
"542 1368 OFFCURVE",
"585 1333 CURVE SMOOTH",
"668 1262 OFFCURVE",
"713 1243 OFFCURVE",
"761 1243 CURVE SMOOTH",
"866 1243 OFFCURVE",
"941 1326 OFFCURVE",
"962 1481 CURVE"
);
}
);
width = 1200;
}
);
unicode = 00F5;
},
{
glyphname = oe;
lastChange = "2013-03-07 06:46:41 +0200";
layers = (
{
layerId = "2BEA1A6F-25C4-4A40-9A7D-95BA05285D07";
name = Light;
paths = (
{
closed = 1;
nodes = (
"1216 1108 OFFCURVE",
"1083 1015 OFFCURVE",
"1010 829 CURVE",
"934 1014 OFFCURVE",
"803 1108 OFFCURVE",
"602 1108 CURVE SMOOTH",
"302 1108 OFFCURVE",
"119 900 OFFCURVE",
"119 545 CURVE SMOOTH",
"119 432 OFFCURVE",
"138 333 OFFCURVE",
"177 247 CURVE SMOOTH",
"254 75 OFFCURVE",
"405 -20 OFFCURVE",
"596 -20 CURVE SMOOTH",
"800 -20 OFFCURVE",
"927 75 OFFCURVE",
"1006 246 CURVE",
"1079 71 OFFCURVE",
"1230 -20 OFFCURVE",
"1438 -20 CURVE SMOOTH",
"1563 -20 OFFCURVE",
"1657 -4 OFFCURVE",
"1780 49 CURVE",
"1780 139 LINE",
"1636 82 OFFCURVE",
"1562 70 OFFCURVE",
"1438 70 CURVE SMOOTH",
"1201 70 OFFCURVE",
"1064 223 OFFCURVE",
"1061 530 CURVE",
"1823 530 LINE",
"1823 610 LINE SMOOTH",
"1823 917 OFFCURVE",
"1665 1108 OFFCURVE",
"1409 1108 CURVE SMOOTH"
);
},
{
closed = 1;
nodes = (
"827 1018 OFFCURVE",
"956 844 OFFCURVE",
"956 545 CURVE SMOOTH",
"956 238 OFFCURVE",
"832 70 OFFCURVE",
"600 70 CURVE SMOOTH",
"360 70 OFFCURVE",
"223 246 OFFCURVE",
"223 545 CURVE SMOOTH",
"223 846 OFFCURVE",
"358 1018 OFFCURVE",
"598 1018 CURVE SMOOTH"
);
},
{
closed = 1;
nodes = (
"1602 1020 OFFCURVE",
"1718 870 OFFCURVE",
"1718 618 CURVE",
"1065 618 LINE",
"1085 877 OFFCURVE",
"1202 1020 OFFCURVE",
"1409 1020 CURVE SMOOTH"
);
}
);
width = 1942;
}
);
unicode = 0153;
},
{
glyphname = p;
lastChange = "2013-03-07 06:46:41 +0200";
layers = (
{
layerId = "2BEA1A6F-25C4-4A40-9A7D-95BA05285D07";
name = Light;
paths = (
{
closed = 1;
nodes = (
"485 1108 OFFCURVE",
"366 1049 OFFCURVE",
"291 932 CURVE",
"285 932 LINE",
"266 1087 LINE",
"182 1087 LINE",
"182 -492 LINE",
"281 -492 LINE",
"281 -78 LINE SMOOTH",
"281 -19 OFFCURVE",
"280 35 OFFCURVE",
"277 84 CURVE SMOOTH",
"274 168 LINE",
"281 168 LINE",
"358 43 OFFCURVE",
"480 -20 OFFCURVE",
"647 -20 CURVE SMOOTH",
"787 -20 OFFCURVE",
"897 29 OFFCURVE",
"977 127 CURVE SMOOTH",
"1059 226 OFFCURVE",
"1100 364 OFFCURVE",
"1100 543 CURVE SMOOTH",
"1100 911 OFFCURVE",
"942 1108 OFFCURVE",
"649 1108 CURVE SMOOTH"
);
},
{
closed = 1;
nodes = (
"880 1018 OFFCURVE",
"994 858 OFFCURVE",
"994 539 CURVE SMOOTH",
"994 390 OFFCURVE",
"964 275 OFFCURVE",
"903 192 CURVE SMOOTH",
"842 109 OFFCURVE",
"756 68 OFFCURVE",
"645 68 CURVE SMOOTH",
"516 68 OFFCURVE",
"423 104 OFFCURVE",
"366 177 CURVE SMOOTH",
"309 250 OFFCURVE",
"281 371 OFFCURVE",
"281 541 CURVE SMOOTH",
"281 573 LINE SMOOTH",
"281 730 OFFCURVE",
"311 844 OFFCURVE",
"370 913 CURVE SMOOTH",
"429 982 OFFCURVE",
"522 1018 OFFCURVE",
"649 1018 CURVE SMOOTH"
);
}
);
width = 1219;
}
);
unicode = 0070;
},
{
glyphname = thorn;
lastChange = "2013-03-07 06:46:41 +0200";
layers = (
{
layerId = "2BEA1A6F-25C4-4A40-9A7D-95BA05285D07";
name = Light;
paths = (
{
closed = 1;
nodes = (
"182 1556 LINE",
"182 -492 LINE",
"281 -492 LINE",
"281 -78 LINE SMOOTH",
"281 -19 OFFCURVE",
"280 35 OFFCURVE",
"277 84 CURVE SMOOTH",
"274 168 LINE",
"281 168 LINE",
"358 43 OFFCURVE",
"480 -20 OFFCURVE",
"647 -20 CURVE SMOOTH",
"927 -20 OFFCURVE",
"1100 186 OFFCURVE",
"1100 543 CURVE SMOOTH",
"1100 911 OFFCURVE",
"942 1108 OFFCURVE",
"649 1108 CURVE SMOOTH",
"480 1108 OFFCURVE",
"357 1045 OFFCURVE",
"281 918 CURVE",
"274 918 LINE",
"281 1165 LINE",
"281 1556 LINE"
);
},
{
closed = 1;
nodes = (
"879 1018 OFFCURVE",
"995 858 OFFCURVE",
"995 539 CURVE SMOOTH",
"995 242 OFFCURVE",
"868 68 OFFCURVE",
"645 68 CURVE SMOOTH",
"388 68 OFFCURVE",
"281 201 OFFCURVE",
"281 541 CURVE SMOOTH",
"281 559 LINE SMOOTH",
"281 891 OFFCURVE",
"390 1018 OFFCURVE",
"647 1018 CURVE SMOOTH"
);
}
);
width = 1219;
}
);
unicode = 00FE;
},
{
glyphname = q;
lastChange = "2013-03-07 06:46:41 +0200";
layers = (
{
layerId = "2BEA1A6F-25C4-4A40-9A7D-95BA05285D07";
name = Light;
paths = (
{
closed = 1;
nodes = (
"428 1108 OFFCURVE",
"316 1058 OFFCURVE",
"237 957 CURVE SMOOTH",
"158 857 OFFCURVE",
"119 715 OFFCURVE",
"119 532 CURVE SMOOTH",
"119 175 OFFCURVE",
"284 -20 OFFCURVE",
"569 -20 CURVE SMOOTH",
"736 -20 OFFCURVE",
"859 43 OFFCURVE",
"938 170 CURVE",
"944 170 LINE",
"940 86 OFFCURVE",
"938 3 OFFCURVE",
"938 -78 CURVE SMOOTH",
"938 -492 LINE",
"1036 -492 LINE",
"1036 1087 LINE",
"952 1087 LINE",
"934 934 LINE",
"928 934 LINE",
"850 1050 OFFCURVE",
"732 1108 OFFCURVE",
"575 1108 CURVE SMOOTH"
);
},
{
closed = 1;
nodes = (
"706 1018 OFFCURVE",
"796 981 OFFCURVE",
"853 909 CURVE SMOOTH",
"910 836 OFFCURVE",
"938 718 OFFCURVE",
"938 555 CURVE SMOOTH",
"938 543 LINE SMOOTH",
"938 372 OFFCURVE",
"910 250 OFFCURVE",
"853 177 CURVE SMOOTH",
"797 104 OFFCURVE",
"703 68 OFFCURVE",
"571 68 CURVE SMOOTH",
"346 68 OFFCURVE",
"223 225 OFFCURVE",
"223 530 CURVE SMOOTH",
"223 850 OFFCURVE",
"347 1018 OFFCURVE",
"582 1018 CURVE SMOOTH"
);
}
);
width = 1219;
}
);
unicode = 0071;
},
{
glyphname = r;
lastChange = "2013-03-07 06:46:41 +0200";
layers = (
{
anchors = (
{
name = bottom;
position = "{399, 0}";
},
{
name = top;
position = "{399, 1118}";
}
);
layerId = "2BEA1A6F-25C4-4A40-9A7D-95BA05285D07";
name = Light;
paths = (
{
closed = 1;
nodes = (
"538 1108 OFFCURVE",
"477 1092 OFFCURVE",
"426 1059 CURVE SMOOTH",
"375 1027 OFFCURVE",
"328 970 OFFCURVE",
"283 891 CURVE",
"276 891 LINE",
"266 1087 LINE",
"182 1087 LINE",
"182 0 LINE",
"281 0 LINE",
"281 600 LINE SMOOTH",
"281 720 OFFCURVE",
"311 819 OFFCURVE",
"370 898 CURVE SMOOTH",
"429 976 OFFCURVE",
"505 1016 OFFCURVE",
"598 1016 CURVE SMOOTH",
"647 1016 OFFCURVE",
"694 1010 OFFCURVE",
"739 998 CURVE",
"758 1094 LINE",
"705 1103 OFFCURVE",
"656 1108 OFFCURVE",
"610 1108 CURVE SMOOTH"
);
}
);
width = 797;
}
);
unicode = 0072;
},
{
glyphname = s;
lastChange = "2013-03-07 06:46:41 +0200";
layers = (
{
anchors = (
{
name = bottom;
position = "{477, 0}";
},
{
name = top;
position = "{477, 1118}";
}
);
layerId = "2BEA1A6F-25C4-4A40-9A7D-95BA05285D07";
name = Light;
paths = (
{
closed = 1;
nodes = (
"377 1108 OFFCURVE",
"282 1084 OFFCURVE",
"213 1037 CURVE SMOOTH",
"145 989 OFFCURVE",
"111 925 OFFCURVE",
"111 844 CURVE SMOOTH",
"111 741 OFFCURVE",
"156 674 OFFCURVE",
"244 617 CURVE SMOOTH",
"288 589 OFFCURVE",
"364 555 OFFCURVE",
"473 516 CURVE SMOOTH",
"574 480 OFFCURVE",
"647 443 OFFCURVE",
"691 406 CURVE SMOOTH",
"736 369 OFFCURVE",
"758 323 OFFCURVE",
"758 268 CURVE SMOOTH",
"758 149 OFFCURVE",
"645 72 OFFCURVE",
"430 72 CURVE SMOOTH",
"309 72 OFFCURVE",
"193 98 OFFCURVE",
"84 154 CURVE",
"84 47 LINE",
"169 2 OFFCURVE",
"285 -20 OFFCURVE",
"430 -20 CURVE SMOOTH",
"702 -20 OFFCURVE",
"856 88 OFFCURVE",
"856 283 CURVE SMOOTH",
"856 380 OFFCURVE",
"811 450 OFFCURVE",
"722 506 CURVE SMOOTH",
"677 535 OFFCURVE",
"606 567 OFFCURVE",
"508 602 CURVE SMOOTH",
"391 644 OFFCURVE",
"312 682 OFFCURVE",
"271 716 CURVE SMOOTH",
"231 750 OFFCURVE",
"211 795 OFFCURVE",
"211 852 CURVE SMOOTH",
"211 956 OFFCURVE",
"323 1018 OFFCURVE",
"500 1018 CURVE SMOOTH",
"591 1018 OFFCURVE",
"690 995 OFFCURVE",
"797 952 CURVE",
"834 1042 LINE",
"729 1086 OFFCURVE",
"617 1108 OFFCURVE",
"500 1108 CURVE SMOOTH"
);
}
);
width = 954;
}
);
unicode = 0073;
},
{
glyphname = scaron;
lastChange = "2013-03-07 06:46:41 +0200";
layers = (
{
layerId = "2BEA1A6F-25C4-4A40-9A7D-95BA05285D07";
name = Light;
paths = (
{
closed = 1;
nodes = (
"255 1108 OFFCURVE",
"111 1007 OFFCURVE",
"111 844 CURVE SMOOTH",
"111 741 OFFCURVE",
"156 674 OFFCURVE",
"244 618 CURVE SMOOTH",
"288 589 OFFCURVE",
"364 555 OFFCURVE",
"473 516 CURVE SMOOTH",
"676 444 OFFCURVE",
"758 377 OFFCURVE",
"758 268 CURVE SMOOTH",
"758 149 OFFCURVE",
"645 72 OFFCURVE",
"430 72 CURVE SMOOTH",
"309 72 OFFCURVE",
"193 99 OFFCURVE",
"84 154 CURVE",
"84 47 LINE",
"169 2 OFFCURVE",
"285 -20 OFFCURVE",
"430 -20 CURVE SMOOTH",
"702 -20 OFFCURVE",
"856 88 OFFCURVE",
"856 283 CURVE SMOOTH",
"856 332 OFFCURVE",
"845 374 OFFCURVE",
"823 410 CURVE SMOOTH",
"778 482 OFFCURVE",
"704 531 OFFCURVE",
"508 602 CURVE SMOOTH",
"391 644 OFFCURVE",
"312 682 OFFCURVE",
"272 716 CURVE SMOOTH",
"231 750 OFFCURVE",
"211 795 OFFCURVE",
"211 852 CURVE SMOOTH",
"211 956 OFFCURVE",
"323 1018 OFFCURVE",
"500 1018 CURVE SMOOTH",
"591 1018 OFFCURVE",
"690 996 OFFCURVE",
"797 952 CURVE",
"834 1042 LINE",
"729 1086 OFFCURVE",
"617 1108 OFFCURVE",
"500 1108 CURVE SMOOTH"
);
},
{
closed = 1;
nodes = (
"689 1569 LINE",
"614 1507 OFFCURVE",
"540 1438 OFFCURVE",
"468 1362 CURVE",
"397 1437 OFFCURVE",
"323 1506 OFFCURVE",
"247 1569 CURVE",
"177 1569 LINE",
"177 1552 LINE",
"288 1430 OFFCURVE",
"368 1326 OFFCURVE",
"419 1241 CURVE",
"517 1241 LINE",
"565 1323 OFFCURVE",
"646 1427 OFFCURVE",
"759 1552 CURVE",
"759 1569 LINE"
);
}
);
width = 954;
}
);
unicode = 0161;
},
{
glyphname = germandbls;
lastChange = "2013-03-07 06:46:41 +0200";
layers = (
{
layerId = "2BEA1A6F-25C4-4A40-9A7D-95BA05285D07";
name = Light;
paths = (
{
closed = 1;
nodes = (
"326 1567 OFFCURVE",
"182 1437 OFFCURVE",
"182 1206 CURVE SMOOTH",
"182 0 LINE",
"281 0 LINE",
"281 1214 LINE SMOOTH",
"281 1383 OFFCURVE",
"395 1479 OFFCURVE",
"588 1479 CURVE SMOOTH",
"764 1479 OFFCURVE",
"860 1410 OFFCURVE",
"860 1286 CURVE SMOOTH",
"860 1209 OFFCURVE",
"820 1150 OFFCURVE",
"721 1074 CURVE SMOOTH",
"622 997 OFFCURVE",
"582 936 OFFCURVE",
"582 856 CURVE SMOOTH",
"582 741 OFFCURVE",
"636 679 OFFCURVE",
"805 563 CURVE SMOOTH",
"952 463 OFFCURVE",
"993 394 OFFCURVE",
"993 283 CURVE SMOOTH",
"993 142 OFFCURVE",
"910 68 OFFCURVE",
"758 68 CURVE SMOOTH",
"666 68 OFFCURVE",
"544 103 OFFCURVE",
"457 154 CURVE",
"457 47 LINE",
"520 7 OFFCURVE",
"631 -20 OFFCURVE",
"758 -20 CURVE SMOOTH",
"969 -20 OFFCURVE",
"1092 99 OFFCURVE",
"1092 307 CURVE SMOOTH",
"1092 352 OFFCURVE",
"1085 392 OFFCURVE",
"1070 428 CURVE SMOOTH",
"1040 499 OFFCURVE",
"991 555 OFFCURVE",
"850 655 CURVE SMOOTH",
"807 685 OFFCURVE",
"773 711 OFFCURVE",
"748 733 CURVE SMOOTH",
"699 777 OFFCURVE",
"682 799 OFFCURVE",
"682 858 CURVE SMOOTH",
"682 884 OFFCURVE",
"692 909 OFFCURVE",
"712 934 CURVE SMOOTH",
"731 958 OFFCURVE",
"768 991 OFFCURVE",
"822 1034 CURVE SMOOTH",
"915 1108 OFFCURVE",
"961 1191 OFFCURVE",
"961 1284 CURVE SMOOTH",
"961 1468 OFFCURVE",
"829 1567 OFFCURVE",
"578 1567 CURVE SMOOTH"
);
}
);
width = 1194;
}
);
unicode = 00DF;
},
{
glyphname = t;
lastChange = "2013-03-07 06:46:41 +0200";
layers = (
{
anchors = (
{
name = bottom;
position = "{343, 0}";
},
{
name = center;
position = "{343, 559}";
}
);
layerId = "2BEA1A6F-25C4-4A40-9A7D-95BA05285D07";
name = Light;
paths = (
{
closed = 1;
nodes = (
"236 1350 LINE",
"186 1104 LINE",
"25 1059 LINE",
"25 1001 LINE",
"186 1001 LINE",
"186 299 LINE SMOOTH",
"186 79 OFFCURVE",
"275 -20 OFFCURVE",
"467 -20 CURVE SMOOTH",
"530 -20 OFFCURVE",
"585 -12 OFFCURVE",
"633 4 CURVE",
"633 84 LINE",
"586 73 OFFCURVE",
"532 68 OFFCURVE",
"469 68 CURVE SMOOTH",
"344 68 OFFCURVE",
"287 146 OFFCURVE",
"287 313 CURVE SMOOTH",
"287 1001 LINE",
"606 1001 LINE",
"606 1087 LINE",
"287 1087 LINE",
"287 1350 LINE"
);
}
);
width = 686;
}
);
unicode = 0074;
},
{
glyphname = u;
lastChange = "2013-03-07 06:46:41 +0200";
layers = (
{
anchors = (
{
name = ogonek;
position = "{1087, 10}";
},
{
name = top;
position = "{604, 1118}";
}
);
layerId = "2BEA1A6F-25C4-4A40-9A7D-95BA05285D07";
name = Light;
paths = (
{
closed = 1;
nodes = (
"928 1087 LINE",
"928 487 LINE SMOOTH",
"928 340 OFFCURVE",
"897 233 OFFCURVE",
"836 168 CURVE SMOOTH",
"775 103 OFFCURVE",
"680 70 OFFCURVE",
"551 70 CURVE SMOOTH",
"358 70 OFFCURVE",
"268 164 OFFCURVE",
"268 383 CURVE SMOOTH",
"268 1087 LINE",
"170 1087 LINE",
"170 377 LINE SMOOTH",
"170 112 OFFCURVE",
"294 -20 OFFCURVE",
"541 -20 CURVE SMOOTH",
"722 -20 OFFCURVE",
"847 37 OFFCURVE",
"918 150 CURVE",
"924 150 LINE",
"942 0 LINE",
"1026 0 LINE",
"1026 1087 LINE"
);
}
);
width = 1208;
}
);
unicode = 0075;
},
{
glyphname = uacute;
lastChange = "2013-03-07 06:46:41 +0200";
layers = (
{
layerId = "2BEA1A6F-25C4-4A40-9A7D-95BA05285D07";
name = Light;
paths = (
{
closed = 1;
nodes = (
"928 1087 LINE",
"928 487 LINE SMOOTH",
"928 192 OFFCURVE",
"810 70 OFFCURVE",
"551 70 CURVE SMOOTH",
"358 70 OFFCURVE",
"268 164 OFFCURVE",
"268 383 CURVE SMOOTH",
"268 1087 LINE",
"170 1087 LINE",
"170 377 LINE SMOOTH",
"170 112 OFFCURVE",
"294 -20 OFFCURVE",
"541 -20 CURVE SMOOTH",
"722 -20 OFFCURVE",
"847 37 OFFCURVE",
"918 150 CURVE",
"924 150 LINE",
"942 0 LINE",
"1026 0 LINE",
"1026 1087 LINE"
);
},
{
closed = 1;
nodes = (
"737 1569 LINE",
"702 1505 OFFCURVE",
"592 1362 OFFCURVE",
"495 1257 CURVE",
"495 1241 LINE",
"565 1241 LINE",
"704 1357 OFFCURVE",
"830 1483 OFFCURVE",
"878 1552 CURVE",
"878 1569 LINE"
);
}
);
width = 1208;
}
);
unicode = 00FA;
},
{
glyphname = ucircumflex;
lastChange = "2013-03-07 06:46:41 +0200";
layers = (
{
layerId = "2BEA1A6F-25C4-4A40-9A7D-95BA05285D07";
name = Light;
paths = (
{
closed = 1;
nodes = (
"928 1087 LINE",
"928 487 LINE SMOOTH",
"928 192 OFFCURVE",
"810 70 OFFCURVE",
"551 70 CURVE SMOOTH",
"358 70 OFFCURVE",
"268 164 OFFCURVE",
"268 383 CURVE SMOOTH",
"268 1087 LINE",
"170 1087 LINE",
"170 377 LINE SMOOTH",
"170 112 OFFCURVE",
"294 -20 OFFCURVE",
"541 -20 CURVE SMOOTH",
"722 -20 OFFCURVE",
"847 37 OFFCURVE",
"918 150 CURVE",
"924 150 LINE",
"942 0 LINE",
"1026 0 LINE",
"1026 1087 LINE"
);
},
{
closed = 1;
nodes = (
"555 1569 LINE",
"500 1480 OFFCURVE",
"396 1346 OFFCURVE",
"313 1257 CURVE",
"313 1241 LINE",
"383 1241 LINE",
"458 1303 OFFCURVE",
"532 1372 OFFCURVE",
"604 1448 CURVE",
"670 1377 OFFCURVE",
"744 1308 OFFCURVE",
"825 1241 CURVE",
"895 1241 LINE",
"895 1257 LINE",
"779 1385 OFFCURVE",
"698 1489 OFFCURVE",
"653 1569 CURVE"
);
}
);
width = 1208;
}
);
unicode = 00FB;
},
{
glyphname = udieresis;
lastChange = "2013-03-07 06:46:41 +0200";
layers = (
{
layerId = "2BEA1A6F-25C4-4A40-9A7D-95BA05285D07";
name = Light;
paths = (
{
closed = 1;
nodes = (
"928 1087 LINE",
"928 487 LINE SMOOTH",
"928 192 OFFCURVE",
"810 70 OFFCURVE",
"551 70 CURVE SMOOTH",
"358 70 OFFCURVE",
"268 164 OFFCURVE",
"268 383 CURVE SMOOTH",
"268 1087 LINE",
"170 1087 LINE",
"170 377 LINE SMOOTH",
"170 112 OFFCURVE",
"294 -20 OFFCURVE",
"541 -20 CURVE SMOOTH",
"722 -20 OFFCURVE",
"847 37 OFFCURVE",
"918 150 CURVE",
"924 150 LINE",
"942 0 LINE",
"1026 0 LINE",
"1026 1087 LINE"
);
},
{
closed = 1;
nodes = (
"370 1475 OFFCURVE",
"350 1450 OFFCURVE",
"350 1389 CURVE SMOOTH",
"350 1332 OFFCURVE",
"371 1303 OFFCURVE",
"413 1303 CURVE SMOOTH",
"456 1303 OFFCURVE",
"477 1332 OFFCURVE",
"477 1389 CURVE SMOOTH",
"477 1446 OFFCURVE",
"456 1475 OFFCURVE",
"413 1475 CURVE SMOOTH"
);
},
{
closed = 1;
nodes = (
"751 1475 OFFCURVE",
"731 1450 OFFCURVE",
"731 1389 CURVE SMOOTH",
"731 1332 OFFCURVE",
"752 1303 OFFCURVE",
"794 1303 CURVE SMOOTH",
"837 1303 OFFCURVE",
"858 1332 OFFCURVE",
"858 1389 CURVE SMOOTH",
"858 1446 OFFCURVE",
"837 1475 OFFCURVE",
"794 1475 CURVE SMOOTH"
);
}
);
width = 1208;
}
);
unicode = 00FC;
},
{
glyphname = ugrave;
lastChange = "2013-03-07 06:46:41 +0200";
layers = (
{
layerId = "2BEA1A6F-25C4-4A40-9A7D-95BA05285D07";
name = Light;
paths = (
{
closed = 1;
nodes = (
"928 1087 LINE",
"928 487 LINE SMOOTH",
"928 192 OFFCURVE",
"810 70 OFFCURVE",
"551 70 CURVE SMOOTH",
"358 70 OFFCURVE",
"268 164 OFFCURVE",
"268 383 CURVE SMOOTH",
"268 1087 LINE",
"170 1087 LINE",
"170 377 LINE SMOOTH",
"170 112 OFFCURVE",
"294 -20 OFFCURVE",
"541 -20 CURVE SMOOTH",
"722 -20 OFFCURVE",
"847 37 OFFCURVE",
"918 150 CURVE",
"924 150 LINE",
"942 0 LINE",
"1026 0 LINE",
"1026 1087 LINE"
);
},
{
closed = 1;
nodes = (
"304 1569 LINE",
"304 1552 LINE",
"348 1489 OFFCURVE",
"490 1346 OFFCURVE",
"618 1241 CURVE",
"687 1241 LINE",
"687 1257 LINE",
"594 1358 OFFCURVE",
"481 1505 OFFCURVE",
"446 1569 CURVE"
);
}
);
width = 1208;
}
);
unicode = 00F9;
},
{
glyphname = v;
lastChange = "2013-03-07 06:46:41 +0200";
layers = (
{
layerId = "2BEA1A6F-25C4-4A40-9A7D-95BA05285D07";
name = Light;
paths = (
{
closed = 1;
nodes = (
"838 1087 LINE",
"557 350 LINE SMOOTH",
"528 274 OFFCURVE",
"500 191 OFFCURVE",
"473 99 CURVE",
"467 99 LINE",
"448 171 OFFCURVE",
"420 253 OFFCURVE",
"383 348 CURVE SMOOTH",
"102 1087 LINE",
"0 1087 LINE",
"420 0 LINE",
"520 0 LINE",
"940 1087 LINE"
);
}
);
width = 940;
}
);
unicode = 0076;
},
{
glyphname = w;
lastChange = "2013-03-07 06:46:41 +0200";
layers = (
{
anchors = (
{
name = top;
position = "{741, 1118}";
}
);
layerId = "2BEA1A6F-25C4-4A40-9A7D-95BA05285D07";
name = Light;
paths = (
{
closed = 1;
nodes = (
"1350 1087 LINE",
"1184 463 LINE SMOOTH",
"1136 274 OFFCURVE",
"1109 158 OFFCURVE",
"1104 115 CURVE",
"1098 115 LINE",
"1087 166 OFFCURVE",
"1058 269 OFFCURVE",
"1010 426 CURVE SMOOTH",
"797 1087 LINE",
"707 1087 LINE",
"483 424 LINE SMOOTH",
"465 373 OFFCURVE",
"436 269 OFFCURVE",
"397 113 CURVE",
"391 113 LINE",
"378 186 OFFCURVE",
"352 301 OFFCURVE",
"311 457 CURVE SMOOTH",
"137 1087 LINE",
"31 1087 LINE",
"342 0 LINE",
"440 0 LINE",
"682 725 LINE",
"727 870 LINE",
"748 944 LINE",
"754 944 LINE",
"778 849 OFFCURVE",
"798 776 OFFCURVE",
"813 727 CURVE SMOOTH",
"1051 0 LINE",
"1155 0 LINE",
"1450 1087 LINE"
);
}
);
width = 1481;
}
);
unicode = 0077;
},
{
glyphname = x;
lastChange = "2013-03-07 06:46:41 +0200";
layers = (
{
layerId = "2BEA1A6F-25C4-4A40-9A7D-95BA05285D07";
name = Light;
paths = (
{
closed = 1;
nodes = (
"829 1087 LINE",
"508 629 LINE",
"184 1087 LINE",
"70 1087 LINE",
"449 559 LINE",
"55 0 LINE",
"164 0 LINE",
"508 485 LINE",
"850 0 LINE",
"965 0 LINE",
"565 559 LINE",
"938 1087 LINE"
);
}
);
width = 1020;
}
);
unicode = 0078;
},
{
glyphname = y;
lastChange = "2013-03-07 06:46:41 +0200";
layers = (
{
anchors = (
{
name = top;
position = "{470, 1118}";
}
);
layerId = "2BEA1A6F-25C4-4A40-9A7D-95BA05285D07";
name = Light;
paths = (
{
closed = 1;
nodes = (
"838 1087 LINE",
"608 483 LINE SMOOTH",
"545 312 OFFCURVE",
"499 184 OFFCURVE",
"471 97 CURVE",
"465 97 LINE",
"446 163 OFFCURVE",
"402 290 OFFCURVE",
"332 477 CURVE SMOOTH",
"102 1087 LINE",
"0 1087 LINE",
"416 0 LINE",
"362 -142 LINE SMOOTH",
"335 -215 OFFCURVE",
"310 -269 OFFCURVE",
"289 -302 CURVE SMOOTH",
"248 -370 OFFCURVE",
"197 -401 OFFCURVE",
"129 -401 CURVE SMOOTH",
"84 -401 OFFCURVE",
"43 -396 OFFCURVE",
"4 -385 CURVE",
"4 -471 LINE",
"51 -485 OFFCURVE",
"92 -492 OFFCURVE",
"131 -492 CURVE SMOOTH",
"232 -492 OFFCURVE",
"301 -456 OFFCURVE",
"354 -384 CURVE SMOOTH",
"381 -348 OFFCURVE",
"414 -279 OFFCURVE",
"453 -176 CURVE SMOOTH",
"940 1087 LINE"
);
}
);
width = 940;
}
);
unicode = 0079;
},
{
glyphname = yacute;
lastChange = "2013-03-07 06:46:41 +0200";
layers = (
{
layerId = "2BEA1A6F-25C4-4A40-9A7D-95BA05285D07";
name = Light;
paths = (
{
closed = 1;
nodes = (
"838 1087 LINE",
"608 483 LINE SMOOTH",
"545 312 OFFCURVE",
"499 184 OFFCURVE",
"471 98 CURVE",
"465 98 LINE",
"446 163 OFFCURVE",
"402 290 OFFCURVE",
"332 477 CURVE SMOOTH",
"102 1087 LINE",
"0 1087 LINE",
"416 0 LINE",
"400 -44 OFFCURVE",
"332 -235 OFFCURVE",
"290 -302 CURVE SMOOTH",
"248 -370 OFFCURVE",
"197 -401 OFFCURVE",
"129 -401 CURVE SMOOTH",
"84 -401 OFFCURVE",
"43 -396 OFFCURVE",
"4 -385 CURVE",
"4 -471 LINE",
"51 -485 OFFCURVE",
"93 -492 OFFCURVE",
"131 -492 CURVE SMOOTH",
"232 -492 OFFCURVE",
"301 -456 OFFCURVE",
"354 -384 CURVE SMOOTH",
"381 -348 OFFCURVE",
"414 -279 OFFCURVE",
"453 -176 CURVE SMOOTH",
"940 1087 LINE"
);
},
{
closed = 1;
nodes = (
"603 1569 LINE",
"568 1505 OFFCURVE",
"458 1362 OFFCURVE",
"361 1257 CURVE",
"361 1241 LINE",
"431 1241 LINE",
"570 1357 OFFCURVE",
"696 1483 OFFCURVE",
"744 1552 CURVE",
"744 1569 LINE"
);
}
);
width = 940;
}
);
unicode = 00FD;
},
{
glyphname = ydieresis;
lastChange = "2013-03-07 06:46:41 +0200";
layers = (
{
layerId = "2BEA1A6F-25C4-4A40-9A7D-95BA05285D07";
name = Light;
paths = (
{
closed = 1;
nodes = (
"838 1087 LINE",
"608 483 LINE SMOOTH",
"545 312 OFFCURVE",
"499 184 OFFCURVE",
"471 98 CURVE",
"465 98 LINE",
"446 163 OFFCURVE",
"402 290 OFFCURVE",
"332 477 CURVE SMOOTH",
"102 1087 LINE",
"0 1087 LINE",
"416 0 LINE",
"400 -44 OFFCURVE",
"332 -235 OFFCURVE",
"290 -302 CURVE SMOOTH",
"248 -370 OFFCURVE",
"197 -401 OFFCURVE",
"129 -401 CURVE SMOOTH",
"84 -401 OFFCURVE",
"43 -396 OFFCURVE",
"4 -385 CURVE",
"4 -471 LINE",
"51 -485 OFFCURVE",
"93 -492 OFFCURVE",
"131 -492 CURVE SMOOTH",
"232 -492 OFFCURVE",
"301 -456 OFFCURVE",
"354 -384 CURVE SMOOTH",
"381 -348 OFFCURVE",
"414 -279 OFFCURVE",
"453 -176 CURVE SMOOTH",
"940 1087 LINE"
);
},
{
closed = 1;
nodes = (
"234 1475 OFFCURVE",
"214 1450 OFFCURVE",
"214 1389 CURVE SMOOTH",
"214 1332 OFFCURVE",
"235 1303 OFFCURVE",
"277 1303 CURVE SMOOTH",
"320 1303 OFFCURVE",
"341 1332 OFFCURVE",
"341 1389 CURVE SMOOTH",
"341 1446 OFFCURVE",
"320 1475 OFFCURVE",
"277 1475 CURVE SMOOTH"
);
},
{
closed = 1;
nodes = (
"615 1475 OFFCURVE",
"595 1450 OFFCURVE",
"595 1389 CURVE SMOOTH",
"595 1332 OFFCURVE",
"616 1303 OFFCURVE",
"658 1303 CURVE SMOOTH",
"701 1303 OFFCURVE",
"722 1332 OFFCURVE",
"722 1389 CURVE SMOOTH",
"722 1446 OFFCURVE",
"701 1475 OFFCURVE",
"658 1475 CURVE SMOOTH"
);
}
);
width = 940;
}
);
unicode = 00FF;
},
{
glyphname = z;
lastChange = "2013-03-07 06:46:41 +0200";
layers = (
{
anchors = (
{
name = top;
position = "{472, 1118}";
}
);
layerId = "2BEA1A6F-25C4-4A40-9A7D-95BA05285D07";
name = Light;
paths = (
{
closed = 1;
nodes = (
"129 1087 LINE",
"129 998 LINE",
"727 998 LINE",
"82 63 LINE",
"82 0 LINE",
"858 0 LINE",
"858 88 LINE",
"207 88 LINE",
"856 1024 LINE",
"856 1087 LINE"
);
}
);
width = 944;
}
);
unicode = 007A;
},
{
glyphname = zcaron;
lastChange = "2013-03-07 06:46:41 +0200";
layers = (
{
layerId = "2BEA1A6F-25C4-4A40-9A7D-95BA05285D07";
name = Light;
paths = (
{
closed = 1;
nodes = (
"129 1087 LINE",
"129 999 LINE",
"727 999 LINE",
"82 63 LINE",
"82 0 LINE",
"858 0 LINE",
"858 88 LINE",
"207 88 LINE",
"856 1024 LINE",
"856 1087 LINE"
);
},
{
closed = 1;
nodes = (
"710 1569 LINE",
"635 1507 OFFCURVE",
"561 1438 OFFCURVE",
"489 1362 CURVE",
"418 1437 OFFCURVE",
"344 1506 OFFCURVE",
"268 1569 CURVE",
"198 1569 LINE",
"198 1552 LINE",
"309 1430 OFFCURVE",
"389 1326 OFFCURVE",
"440 1241 CURVE",
"538 1241 LINE",
"586 1323 OFFCURVE",
"667 1427 OFFCURVE",
"780 1552 CURVE",
"780 1569 LINE"
);
}
);
width = 944;
}
);
unicode = 017E;
},
{
glyphname = mu;
lastChange = "2013-03-07 06:46:41 +0200";
layers = (
{
layerId = "2BEA1A6F-25C4-4A40-9A7D-95BA05285D07";
name = Light;
paths = (
{
closed = 1;
nodes = (
"940 1087 LINE",
"940 487 LINE SMOOTH",
"940 340 OFFCURVE",
"909 233 OFFCURVE",
"848 168 CURVE SMOOTH",
"787 103 OFFCURVE",
"692 70 OFFCURVE",
"563 70 CURVE SMOOTH",
"371 70 OFFCURVE",
"281 164 OFFCURVE",
"281 383 CURVE SMOOTH",
"281 1087 LINE",
"182 1087 LINE",
"182 -492 LINE",
"281 -492 LINE",
"281 -78 LINE SMOOTH",
"281 -26 OFFCURVE",
"279 31 OFFCURVE",
"276 92 CURVE",
"344 16 OFFCURVE",
"431 -20 OFFCURVE",
"563 -20 CURVE SMOOTH",
"641 -20 OFFCURVE",
"713 -5 OFFCURVE",
"780 26 CURVE SMOOTH",
"847 57 OFFCURVE",
"897 98 OFFCURVE",
"930 150 CURVE",
"936 150 LINE",
"954 0 LINE",
"1038 0 LINE",
"1038 1087 LINE"
);
}
);
width = 1221;
}
);
unicode = 03BC;
},
{
glyphname = "alef-hb";
lastChange = "2013-03-07 06:46:41 +0200";
layers = (
{
anchors = (
{
name = bottom;
position = "{571, -152}";
},
{
name = bottomleft;
position = "{20, 0}";
},
{
name = center;
position = "{433, 372}";
},
{
name = top;
position = "{571, 1118}";
},
{
name = topleft;
position = "{158, 1160}";
}
);
layerId = "2BEA1A6F-25C4-4A40-9A7D-95BA05285D07";
name = Light;
paths = (
{
closed = 1;
nodes = (
"915 1290 LINE",
"915 819 LINE SMOOTH",
"915 650 OFFCURVE",
"880 570 OFFCURVE",
"782 517 CURVE SMOOTH",
"762 506 OFFCURVE",
"740 500 OFFCURVE",
"723 497 CURVE",
"243 1290 LINE",
"134 1290 LINE",
"379.647 883.738 LINE",
"137.086 838.547 OFFCURVE",
"112 605.18 OFFCURVE",
"112 449 CURVE SMOOTH",
"112 0 LINE",
"210 0 LINE",
"210 448 LINE SMOOTH",
"210 617 OFFCURVE",
"246 719 OFFCURVE",
"343 774 CURVE SMOOTH",
"379.35 794.867 OFFCURVE",
"412.98 798.516 OFFCURVE",
"431.082 798.672 CURVE",
"914 0 LINE",
"1024 0 LINE",
"774 413 LINE",
"989 469 OFFCURVE",
"1013 668 OFFCURVE",
"1013 818 CURVE SMOOTH",
"1013 1290 LINE"
);
}
);
width = 1141;
}
);
unicode = 05D0;
},
{
glyphname = "bet-hb";
lastChange = "2013-03-07 06:46:41 +0200";
layers = (
{
anchors = (
{
name = bottom;
position = "{508, -152}";
},
{
name = bottomleft;
position = "{20, 0}";
},
{
name = center;
position = "{371, 665}";
},
{
name = top;
position = "{508, 1118}";
},
{
name = topleft;
position = "{126, 1160}";
}
);
layerId = "2BEA1A6F-25C4-4A40-9A7D-95BA05285D07";
name = Light;
paths = (
{
closed = 1;
nodes = (
"246 1310 OFFCURVE",
"150 1305 OFFCURVE",
"72 1300 CURVE",
"72 1209 LINE",
"154 1214 OFFCURVE",
"253 1220 OFFCURVE",
"352 1220 CURVE SMOOTH",
"558 1220 OFFCURVE",
"723 1186 OFFCURVE",
"723 946 CURVE SMOOTH",
"723 88 LINE",
"73 88 LINE",
"73 0 LINE",
"976 0 LINE",
"976 88 LINE",
"825 88 LINE",
"825 946 LINE SMOOTH",
"825 1247 OFFCURVE",
"607 1310 OFFCURVE",
"352 1310 CURVE SMOOTH"
);
}
);
width = 1016;
}
);
unicode = 05D1;
},
{
glyphname = "gimel-hb";
lastChange = "2013-03-07 06:46:41 +0200";
layers = (
{
anchors = (
{
name = bottom;
position = "{385, -152}";
},
{
name = bottomleft;
position = "{20, 0}";
},
{
name = center;
position = "{238, 665}";
},
{
name = top;
position = "{385, 1118}";
},
{
name = topleft;
position = "{232, 1160}";
}
);
layerId = "2BEA1A6F-25C4-4A40-9A7D-95BA05285D07";
name = Light;
paths = (
{
closed = 1;
nodes = (
"277 1310 OFFCURVE",
"230 1301 OFFCURVE",
"200 1295 CURVE",
"200 1203 LINE",
"226 1208 OFFCURVE",
"292 1220 OFFCURVE",
"348 1220 CURVE SMOOTH",
"477 1220 OFFCURVE",
"498 1127 OFFCURVE",
"498 1015 CURVE SMOOTH",
"498 511 LINE SMOOTH",
"498 249 OFFCURVE",
"357 88 OFFCURVE",
"179 88 CURVE SMOOTH",
"112 88 OFFCURVE",
"57 101 OFFCURVE",
"57 101 CURVE",
"39 7 LINE",
"39 7 OFFCURVE",
"99 -4 OFFCURVE",
"170 -4 CURVE SMOOTH",
"376 -4 OFFCURVE",
"450 136 OFFCURVE",
"496 213 CURVE",
"503 213 LINE",
"513 0 LINE",
"600 0 LINE",
"600 1015 LINE SMOOTH",
"600 1184 OFFCURVE",
"535 1310 OFFCURVE",
"356 1310 CURVE SMOOTH"
);
}
);
width = 770;
}
);
unicode = 05D2;
},
{
glyphname = "dalet-hb";
lastChange = "2013-03-07 06:46:41 +0200";
layers = (
{
anchors = (
{
name = bottom;
position = "{685, -152}";
},
{
name = bottomleft;
position = "{20, 0}";
},
{
name = center;
position = "{367, 665}";
},
{
name = top;
position = "{487, 1118}";
},
{
name = topleft;
position = "{76, 1160}";
}
);
layerId = "2BEA1A6F-25C4-4A40-9A7D-95BA05285D07";
name = Light;
paths = (
{
closed = 1;
nodes = (
"45 1290 LINE",
"45 1202 LINE",
"774 1202 LINE",
"774 1202 OFFCURVE",
"633 1139 OFFCURVE",
"633 928 CURVE SMOOTH",
"633 0 LINE",
"735 0 LINE",
"735 928 LINE SMOOTH",
"735 1118 OFFCURVE",
"848 1177 OFFCURVE",
"949 1213 CURVE",
"949 1290 LINE"
);
}
);
width = 989;
}
);
unicode = 05D3;
},
{
glyphname = "he-hb";
lastChange = "2013-03-07 06:46:41 +0200";
layers = (
{
anchors = (
{
name = bottom;
position = "{628, -152}";
},
{
name = bottomleft;
position = "{20, 0}";
},
{
name = center;
position = "{628, 665}";
},
{
name = top;
position = "{628, 1118}";
},
{
name = topleft;
position = "{226, 1160}";
}
);
layerId = "2BEA1A6F-25C4-4A40-9A7D-95BA05285D07";
name = Light;
paths = (
{
closed = 1;
nodes = (
"419 1310 OFFCURVE",
"255 1295 OFFCURVE",
"182 1290 CURVE",
"182 1198 LINE",
"261 1204 OFFCURVE",
"438 1220 OFFCURVE",
"613 1220 CURVE SMOOTH",
"819 1220 OFFCURVE",
"983 1186 OFFCURVE",
"983 946 CURVE SMOOTH",
"983 0 LINE",
"1086 0 LINE",
"1086 946 LINE SMOOTH",
"1086 1247 OFFCURVE",
"868 1310 OFFCURVE",
"613 1310 CURVE SMOOTH"
);
},
{
closed = 1;
nodes = (
"182 813 LINE",
"182 0 LINE",
"284 0 LINE",
"284 813 LINE"
);
}
);
width = 1256;
}
);
unicode = 05D4;
},
{
glyphname = "vav-hb";
lastChange = "2013-03-07 06:46:41 +0200";
layers = (
{
anchors = (
{
name = bottom;
position = "{233, -152}";
},
{
name = bottomleft;
position = "{20, 0}";
},
{
name = center;
position = "{0, 665}";
},
{
name = top;
position = "{233, 1160}";
},
{
name = topleft;
position = "{204, 1160}";
}
);
layerId = "2BEA1A6F-25C4-4A40-9A7D-95BA05285D07";
name = Light;
paths = (
{
closed = 1;
nodes = (
"182 1290 LINE",
"182 0 LINE",
"284 0 LINE",
"284 1290 LINE"
);
}
);
width = 466;
}
);
unicode = 05D5;
},
{
glyphname = "zayin-hb";
lastChange = "2013-03-07 06:46:41 +0200";
layers = (
{
anchors = (
{
name = bottom;
position = "{224, -152}";
},
{
name = bottomleft;
position = "{20, 0}";
},
{
name = center;
position = "{0, 665}";
},
{
name = top;
position = "{233, 1118}";
},
{
name = topleft;
position = "{85, 1160}";
}
);
layerId = "2BEA1A6F-25C4-4A40-9A7D-95BA05285D07";
name = Light;
paths = (
{
closed = 1;
nodes = (
"37 1290 LINE",
"37 1202 LINE",
"326 1202 LINE",
"291 1171 OFFCURVE",
"181 1042 OFFCURVE",
"181 815 CURVE SMOOTH",
"181 0 LINE",
"283 0 LINE",
"283 815 LINE SMOOTH",
"283 1005 OFFCURVE",
"362 1155 OFFCURVE",
"435 1213 CURVE",
"435 1290 LINE"
);
}
);
width = 466;
}
);
unicode = 05D6;
},
{
glyphname = "het-hb";
lastChange = "2013-03-07 06:46:41 +0200";
layers = (
{
anchors = (
{
name = bottom;
position = "{628, -152}";
},
{
name = bottomleft;
position = "{20, 0}";
},
{
name = center;
position = "{628, 665}";
},
{
name = top;
position = "{628, 1118}";
},
{
name = topleft;
position = "{229, 1160}";
}
);
layerId = "2BEA1A6F-25C4-4A40-9A7D-95BA05285D07";
name = Light;
paths = (
{
closed = 1;
nodes = (
"419 1310 OFFCURVE",
"255 1294 OFFCURVE",
"182 1290 CURVE",
"182 0 LINE",
"284 0 LINE",
"284 1205 LINE",
"373 1212 OFFCURVE",
"493 1220 OFFCURVE",
"613 1220 CURVE SMOOTH",
"819 1220 OFFCURVE",
"983 1186 OFFCURVE",
"983 946 CURVE SMOOTH",
"983 0 LINE",
"1086 0 LINE",
"1086 946 LINE SMOOTH",
"1086 1247 OFFCURVE",
"868 1310 OFFCURVE",
"613 1310 CURVE SMOOTH"
);
}
);
width = 1256;
}
);
unicode = 05D7;
},
{
glyphname = "tet-hb";
lastChange = "2013-03-07 06:46:41 +0200";
layers = (
{
anchors = (
{
name = bottom;
position = "{655, -152}";
},
{
name = bottomleft;
position = "{20, 0}";
},
{
name = center;
position = "{644, 665}";
},
{
name = top;
position = "{629, 1118}";
},
{
name = topleft;
position = "{217, 1160}";
}
);
layerId = "2BEA1A6F-25C4-4A40-9A7D-95BA05285D07";
name = Light;
paths = (
{
closed = 1;
nodes = (
"622 1310 OFFCURVE",
"591 1307 OFFCURVE",
"562 1302 CURVE",
"562 1210 LINE",
"590 1216 OFFCURVE",
"621 1220 OFFCURVE",
"654 1220 CURVE SMOOTH",
"952 1220 OFFCURVE",
"1031 971 OFFCURVE",
"1031 645 CURVE SMOOTH",
"1031 318 OFFCURVE",
"952 70 OFFCURVE",
"654 70 CURVE SMOOTH",
"357 70 OFFCURVE",
"273 318 OFFCURVE",
"273 645 CURVE SMOOTH",
"273 1290 LINE",
"170 1290 LINE",
"170 645 LINE SMOOTH",
"170 178 OFFCURVE",
"359 -20 OFFCURVE",
"655 -20 CURVE SMOOTH",
"950 -20 OFFCURVE",
"1139 178 OFFCURVE",
"1139 645 CURVE SMOOTH",
"1139 1112 OFFCURVE",
"950 1310 OFFCURVE",
"655 1310 CURVE SMOOTH"
);
}
);
width = 1258;
}
);
unicode = 05D8;
},
{
glyphname = "yod-hb";
lastChange = "2013-03-07 06:46:41 +0200";
layers = (
{
anchors = (
{
name = bottom;
position = "{221, -152}";
},
{
name = bottomleft;
position = "{20, 0}";
},
{
name = center;
position = "{14, 898}";
},
{
name = top;
position = "{221, 1118}";
},
{
name = topleft;
position = "{192, 1160}";
}
);
layerId = "2BEA1A6F-25C4-4A40-9A7D-95BA05285D07";
name = Light;
paths = (
{
closed = 1;
nodes = (
"170 1290 LINE",
"170 482 LINE",
"179 482 LINE",
"272 596 LINE",
"272 1290 LINE"
);
}
);
width = 442;
}
);
unicode = 05D9;
},
{
glyphname = "finalkaf-hb";
lastChange = "2013-03-07 06:46:41 +0200";
layers = (
{
anchors = (
{
name = bottom;
position = "{280, 250}";
},
{
name = bottomleft;
position = "{20, 0}";
},
{
name = center;
position = "{362, 665}";
},
{
name = top;
position = "{484, 1118}";
},
{
name = topleft;
position = "{76, 1160}";
}
);
layerId = "2BEA1A6F-25C4-4A40-9A7D-95BA05285D07";
name = Light;
paths = (
{
closed = 1;
nodes = (
"129 1309 OFFCURVE",
"29 1261 OFFCURVE",
"29 1261 CURVE",
"29 1166 LINE",
"79 1181 OFFCURVE",
"154 1220 OFFCURVE",
"299 1220 CURVE SMOOTH",
"579 1220 OFFCURVE",
"695 1017 OFFCURVE",
"695 717 CURVE SMOOTH",
"695 -492 LINE",
"695 -492 OFFCURVE",
"799 -492 OFFCURVE",
"799 -492 CURVE",
"799 717 LINE SMOOTH",
"799 999 OFFCURVE",
"690 1309 OFFCURVE",
"299 1309 CURVE SMOOTH"
);
}
);
width = 968;
}
);
unicode = 05DA;
},
{
glyphname = "kaf-hb";
lastChange = "2013-03-07 06:46:41 +0200";
layers = (
{
anchors = (
{
name = bottom;
position = "{356, -152}";
},
{
name = bottomleft;
position = "{20, 0}";
},
{
name = center;
position = "{358, 665}";
},
{
name = top;
position = "{481, 1118}";
},
{
name = topleft;
position = "{108, 1160}";
}
);
layerId = "2BEA1A6F-25C4-4A40-9A7D-95BA05285D07";
name = Light;
paths = (
{
closed = 1;
nodes = (
"168 1309 OFFCURVE",
"72 1261 OFFCURVE",
"72 1261 CURVE",
"72 1166 LINE",
"122 1181 OFFCURVE",
"203 1220 OFFCURVE",
"342 1220 CURVE SMOOTH",
"622 1220 OFFCURVE",
"738 1017 OFFCURVE",
"738 717 CURVE SMOOTH",
"738 536 LINE SMOOTH",
"738 414 OFFCURVE",
"691 70 OFFCURVE",
"359 70 CURVE SMOOTH",
"183 70 OFFCURVE",
"72 124 OFFCURVE",
"72 124 CURVE",
"72 16 LINE",
"72 16 OFFCURVE",
"194 -20 OFFCURVE",
"360 -20 CURVE SMOOTH",
"824 -20 OFFCURVE",
"842 434 OFFCURVE",
"842 536 CURVE SMOOTH",
"842 717 LINE SMOOTH",
"842 999 OFFCURVE",
"733 1309 OFFCURVE",
"342 1309 CURVE SMOOTH"
);
}
);
width = 961;
}
);
unicode = 05DB;
},
{
glyphname = "lamed-hb";
lastChange = "2013-03-07 06:46:41 +0200";
layers = (
{
anchors = (
{
name = bottom;
position = "{512, -152}";
},
{
name = bottomleft;
position = "{20, 0}";
},
{
name = center;
position = "{318, 665}";
},
{
name = top;
position = "{465, 1118}";
},
{
name = topleft;
position = "{-76, 1160}";
}
);
layerId = "2BEA1A6F-25C4-4A40-9A7D-95BA05285D07";
name = Light;
paths = (
{
closed = 1;
nodes = (
"45 1569 LINE",
"45 1200 LINE",
"753 1200 LINE",
"550 494 LINE",
"550 496 LINE",
"461 0 LINE",
"565 0 LINE",
"656 507 LINE",
"848 1182 LINE",
"848 1296 LINE",
"147 1296 LINE",
"147 1569 LINE"
);
}
);
width = 930;
}
);
unicode = 05DC;
},
{
glyphname = "finalmem-hb";
lastChange = "2013-03-07 06:46:41 +0200";
layers = (
{
anchors = (
{
name = bottom;
position = "{623, -152}";
},
{
name = bottomleft;
position = "{20, 0}";
},
{
name = center;
position = "{623, 665}";
},
{
name = top;
position = "{623, 1118}";
},
{
name = topleft;
position = "{209, 1160}";
}
);
layerId = "2BEA1A6F-25C4-4A40-9A7D-95BA05285D07";
name = Light;
paths = (
{
closed = 1;
nodes = (
"409 1310 OFFCURVE",
"245 1294 OFFCURVE",
"172 1290 CURVE",
"172 0 LINE",
"1076 0 LINE",
"1076 946 LINE SMOOTH",
"1076 1247 OFFCURVE",
"858 1310 OFFCURVE",
"603 1310 CURVE SMOOTH"
);
},
{
closed = 1;
nodes = (
"809 1220 OFFCURVE",
"973 1186 OFFCURVE",
"973 946 CURVE SMOOTH",
"973 88 LINE",
"274 88 LINE",
"274 1205 LINE",
"363 1212 OFFCURVE",
"483 1220 OFFCURVE",
"603 1220 CURVE SMOOTH"
);
}
);
width = 1246;
}
);
unicode = 05DD;
},
{
glyphname = "mem-hb";
lastChange = "2013-03-07 06:46:41 +0200";
layers = (
{
anchors = (
{
name = bottom;
position = "{600, -152}";
},
{
name = bottomleft;
position = "{20, 0}";
},
{
name = center;
position = "{600, 665}";
},
{
name = top;
position = "{600, 1118}";
},
{
name = topleft;
position = "{144, 1160}";
}
);
layerId = "2BEA1A6F-25C4-4A40-9A7D-95BA05285D07";
name = Light;
paths = (
{
closed = 1;
nodes = (
"406 1310 OFFCURVE",
"296 1155 OFFCURVE",
"296 1155 CURVE SMOOTH",
"283 1155 LINE",
"269 1221 OFFCURVE",
"244 1273 OFFCURVE",
"234 1296 CURVE",
"125 1296 LINE",
"142 1251 LINE SMOOTH",
"170 1176 OFFCURVE",
"202 1103 OFFCURVE",
"193 1005 CURVE SMOOTH",
"97 0 LINE",
"199 0 LINE",
"296 1026 LINE",
"296 1026 OFFCURVE",
"369 1220 OFFCURVE",
"664 1220 CURVE SMOOTH",
"822 1220 OFFCURVE",
"929 1094 OFFCURVE",
"929 886 CURVE SMOOTH",
"929 88 LINE",
"645 88 LINE",
"645 0 LINE",
"1030 0 LINE",
"1030 886 LINE SMOOTH",
"1030 1141 OFFCURVE",
"908 1310 OFFCURVE",
"664 1310 CURVE SMOOTH"
);
}
);
width = 1200;
}
);
unicode = 05DE;
},
{
glyphname = "finalnun-hb";
lastChange = "2013-03-07 06:46:41 +0200";
layers = (
{
anchors = (
{
name = bottom;
position = "{-200, 250}";
},
{
name = bottomleft;
position = "{20, 0}";
},
{
name = center;
position = "{26, 665}";
},
{
name = top;
position = "{231, 1118}";
},
{
name = topleft;
position = "{146, 1160}";
}
);
layerId = "2BEA1A6F-25C4-4A40-9A7D-95BA05285D07";
name = Light;
paths = (
{
closed = 1;
nodes = (
"114 1290 LINE",
"133 1234 OFFCURVE",
"180 1088 OFFCURVE",
"180 905 CURVE SMOOTH",
"180 -492 LINE",
"282 -492 LINE",
"282 905 LINE SMOOTH",
"282 1095 OFFCURVE",
"217 1290 OFFCURVE",
"217 1290 CURVE SMOOTH"
);
}
);
width = 462;
}
);
unicode = 05DF;
},
{
glyphname = "nun-hb";
lastChange = "2013-03-07 06:46:41 +0200";
layers = (
{
anchors = (
{
name = bottom;
position = "{442, -152}";
},
{
name = bottomleft;
position = "{20, 0}";
},
{
name = center;
position = "{392, 665}";
},
{
name = top;
position = "{442, 1118}";
},
{
name = topleft;
position = "{311, 1160}";
}
);
layerId = "2BEA1A6F-25C4-4A40-9A7D-95BA05285D07";
name = Light;
paths = (
{
closed = 1;
nodes = (
"360 1310 OFFCURVE",
"306 1301 OFFCURVE",
"276 1295 CURVE",
"276 1203 LINE",
"302 1208 OFFCURVE",
"350 1220 OFFCURVE",
"440 1220 CURVE SMOOTH",
"569 1220 OFFCURVE",
"612 1127 OFFCURVE",
"612 1015 CURVE SMOOTH",
"612 333 LINE",
"612 215 OFFCURVE",
"585 88 OFFCURVE",
"585 88 CURVE",
"585 88 OFFCURVE",
"129 88 OFFCURVE",
"129 88 CURVE SMOOTH",
"129 88 OFFCURVE",
"129 0 OFFCURVE",
"129 0 CURVE",
"675 0 LINE",
"675 0 OFFCURVE",
"714 181 OFFCURVE",
"714 333 CURVE",
"714 1015 LINE SMOOTH",
"714 1184 OFFCURVE",
"627 1310 OFFCURVE",
"448 1310 CURVE SMOOTH"
);
}
);
width = 884;
}
);
unicode = 05E0;
},
{
glyphname = "samekh-hb";
lastChange = "2013-03-07 06:46:41 +0200";
layers = (
{
anchors = (
{
name = bottom;
position = "{604, -152}";
},
{
name = bottomleft;
position = "{20, 0}";
},
{
name = center;
position = "{604, 665}";
},
{
name = top;
position = "{604, 1118}";
},
{
name = topleft;
position = "{176, 1160}";
}
);
layerId = "2BEA1A6F-25C4-4A40-9A7D-95BA05285D07";
name = Light;
paths = (
{
closed = 1;
nodes = (
"466 1310 OFFCURVE",
"255 1302 OFFCURVE",
"139 1296 CURVE",
"139 1204 LINE",
"195 1207 OFFCURVE",
"267 1209 OFFCURVE",
"306 1211 CURVE",
"191 1111 OFFCURVE",
"119 932 OFFCURVE",
"119 648 CURVE SMOOTH",
"119 181 OFFCURVE",
"307 -20 OFFCURVE",
"603 -20 CURVE SMOOTH",
"898 -20 OFFCURVE",
"1088 181 OFFCURVE",
"1088 648 CURVE SMOOTH",
"1088 1115 OFFCURVE",
"896 1310 OFFCURVE",
"603 1310 CURVE SMOOTH"
);
},
{
closed = 1;
nodes = (
"923 1220 OFFCURVE",
"979 932 OFFCURVE",
"979 648 CURVE SMOOTH",
"979 321 OFFCURVE",
"900 70 OFFCURVE",
"602 70 CURVE SMOOTH",
"305 70 OFFCURVE",
"226 321 OFFCURVE",
"226 648 CURVE SMOOTH",
"226 915 OFFCURVE",
"284 1089 OFFCURVE",
"415 1214 CURVE",
"415 1214 OFFCURVE",
"495 1220 OFFCURVE",
"603 1220 CURVE SMOOTH"
);
}
);
width = 1207;
}
);
unicode = 05E1;
},
{
glyphname = "ayin-hb";
lastChange = "2013-03-07 06:46:41 +0200";
layers = (
{
anchors = (
{
name = bottom;
position = "{581, -152}";
},
{
name = bottomleft;
position = "{20, 0}";
},
{
name = center;
position = "{685, 665}";
},
{
name = top;
position = "{581, 1118}";
},
{
name = topleft;
position = "{182, 1160}";
}
);
layerId = "2BEA1A6F-25C4-4A40-9A7D-95BA05285D07";
name = Light;
paths = (
{
closed = 1;
nodes = (
"1014 1290 LINE",
"959 735 LINE SMOOTH",
"930.218 447.954 OFFCURVE",
"759.23 239.576 OFFCURVE",
"538.299 139.521 CURVE",
"401 706 LINE",
"250 1290 LINE",
"151 1290 LINE",
"461.631 109.797 LINE",
"421.772 96.823 OFFCURVE",
"380.738 87.173 OFFCURVE",
"339 81 CURVE SMOOTH",
"55 39 LINE",
"55 -49 LINE",
"169 -33 OFFCURVE",
"346 -6 OFFCURVE",
"346 -6 CURVE",
"774 55 OFFCURVE",
"1015 382 OFFCURVE",
"1050 735 CURVE SMOOTH",
"1106 1290 LINE"
);
}
);
width = 1161;
}
);
unicode = 05E2;
},
{
glyphname = "finalpe-hb";
lastChange = "2013-03-07 06:46:41 +0200";
layers = (
{
anchors = (
{
name = bottom;
position = "{511, 250}";
},
{
name = bottomleft;
position = "{20, 0}";
},
{
name = center;
position = "{568, 855}";
},
{
name = top;
position = "{611, 1118}";
},
{
name = topleft;
position = "{194, 1160}";
}
);
layerId = "2BEA1A6F-25C4-4A40-9A7D-95BA05285D07";
name = Light;
paths = (
{
closed = 1;
nodes = (
"342 1310 OFFCURVE",
"99 1161 OFFCURVE",
"99 859 CURVE SMOOTH",
"99 610 OFFCURVE",
"256 441 OFFCURVE",
"466 441 CURVE SMOOTH",
"471 441 LINE",
"487 520 LINE",
"473 522 LINE SMOOTH",
"273 551 OFFCURVE",
"188 662 OFFCURVE",
"188 859 CURVE SMOOTH",
"188 1006 OFFCURVE",
"285 1220 OFFCURVE",
"567 1220 CURVE SMOOTH",
"865 1220 OFFCURVE",
"950 971 OFFCURVE",
"950 645 CURVE SMOOTH",
"950 -492 LINE",
"1052 -492 LINE",
"1052 645 LINE SMOOTH",
"1052 1112 OFFCURVE",
"863 1310 OFFCURVE",
"568 1310 CURVE SMOOTH"
);
}
);
width = 1222;
}
);
unicode = 05E3;
},
{
glyphname = "pe-hb";
lastChange = "2013-03-07 06:46:41 +0200";
layers = (
{
anchors = (
{
name = bottom;
position = "{595, -152}";
},
{
name = bottomleft;
position = "{20, 0}";
},
{
name = center;
position = "{595, 846}";
},
{
name = top;
position = "{595, 1118}";
},
{
name = topleft;
position = "{192, 1160}";
}
);
layerId = "2BEA1A6F-25C4-4A40-9A7D-95BA05285D07";
name = Light;
paths = (
{
closed = 1;
nodes = (
"361 1310 OFFCURVE",
"119 1161 OFFCURVE",
"119 859 CURVE SMOOTH",
"119 610 OFFCURVE",
"275 441 OFFCURVE",
"485 441 CURVE SMOOTH",
"490 441 LINE",
"506 520 LINE",
"492 520 LINE SMOOTH",
"322 520 OFFCURVE",
"207 662 OFFCURVE",
"207 859 CURVE SMOOTH",
"207 1006 OFFCURVE",
"304 1220 OFFCURVE",
"586 1220 CURVE SMOOTH",
"884 1220 OFFCURVE",
"963 971 OFFCURVE",
"963 645 CURVE SMOOTH",
"963 318 OFFCURVE",
"884 70 OFFCURVE",
"586 70 CURVE SMOOTH",
"427 70 OFFCURVE",
"262 89 OFFCURVE",
"262 89 CURVE",
"262 0 LINE",
"262 0 OFFCURVE",
"393 -20 OFFCURVE",
"587 -20 CURVE SMOOTH",
"882 -20 OFFCURVE",
"1071 178 OFFCURVE",
"1071 645 CURVE SMOOTH",
"1071 1112 OFFCURVE",
"882 1310 OFFCURVE",
"587 1310 CURVE SMOOTH"
);
}
);
width = 1190;
}
);
unicode = 05E4;
},
{
glyphname = "finaltsadi-hb";
lastChange = "2013-03-07 06:46:41 +0200";
layers = (
{
anchors = (
{
name = bottom;
position = "{-114, 250}";
},
{
name = bottomleft;
position = "{20, 0}";
},
{
name = center;
position = "{462, 877}";
},
{
name = top;
position = "{449, 1118}";
},
{
name = topleft;
position = "{44, 1160}";
}
);
layerId = "2BEA1A6F-25C4-4A40-9A7D-95BA05285D07";
name = Light;
paths = (
{
closed = 1;
nodes = (
"699 1290 LINE",
"699 901 LINE SMOOTH",
"699 732 OFFCURVE",
"628 616 OFFCURVE",
"521 586 CURVE SMOOTH",
"371 544 LINE",
"371 544 OFFCURVE",
"194 1043 OFFCURVE",
"102 1290 CURVE",
"0 1290 LINE",
"269 550 LINE",
"269 -492 LINE",
"371 -492 LINE",
"371 448 LINE",
"522 489 LINE SMOOTH",
"762 552 OFFCURVE",
"800 745 OFFCURVE",
"800 901 CURVE SMOOTH",
"800 1290 LINE"
);
}
);
width = 898;
}
);
unicode = 05E5;
},
{
glyphname = "tsadi-hb";
lastChange = "2013-03-07 06:46:41 +0200";
layers = (
{
anchors = (
{
name = bottom;
position = "{537, -152}";
},
{
name = bottomleft;
position = "{20, 0}";
},
{
name = center;
position = "{261, 495}";
},
{
name = top;
position = "{537, 1118}";
},
{
name = topleft;
position = "{120, 1160}";
}
);
layerId = "2BEA1A6F-25C4-4A40-9A7D-95BA05285D07";
name = Light;
paths = (
{
closed = 1;
nodes = (
"887 1290 LINE",
"862 1036 LINE SMOOTH",
"842 839 OFFCURVE",
"756 681 OFFCURVE",
"634 568 CURVE",
"579 650 LINE",
"194 1290 LINE",
"86 1290 LINE",
"520 580 LINE",
"849 88 LINE",
"82 88 LINE",
"82 0 LINE",
"970 0 LINE",
"970 63 LINE",
"685 492 LINE",
"841 633 OFFCURVE",
"933 830 OFFCURVE",
"953 1036 CURVE SMOOTH",
"977 1290 LINE"
);
}
);
width = 1074;
}
);
unicode = 05E6;
},
{
glyphname = "qof-hb";
lastChange = "2013-03-07 06:46:41 +0200";
layers = (
{
anchors = (
{
name = bottom;
position = "{733, -152}";
},
{
name = bottomleft;
position = "{20, 0}";
},
{
name = center;
position = "{568, 665}";
},
{
name = top;
position = "{587, 1118}";
},
{
name = topleft;
position = "{214, 1160}";
}
);
layerId = "2BEA1A6F-25C4-4A40-9A7D-95BA05285D07";
name = Light;
paths = (
{
closed = 1;
nodes = (
"182 1290 LINE",
"182 1202 LINE",
"990 1202 LINE",
"818 593 LINE SMOOTH",
"768 415 OFFCURVE",
"683 124 OFFCURVE",
"683 17 CURVE SMOOTH",
"683 0 LINE",
"783 0 LINE",
"783 17 LINE SMOOTH",
"783 117 OFFCURVE",
"869 411 OFFCURVE",
"920 593 CURVE SMOOTH",
"1092 1202 LINE",
"1092 1290 LINE"
);
},
{
closed = 1;
nodes = (
"183 759 LINE",
"183 -492 LINE",
"285 -492 LINE",
"285 759 LINE"
);
}
);
width = 1174;
}
);
unicode = 05E7;
},
{
glyphname = "resh-hb";
lastChange = "2013-03-07 06:46:41 +0200";
layers = (
{
anchors = (
{
name = bottom;
position = "{776, -152}";
},
{
name = bottomleft;
position = "{20, 0}";
},
{
name = center;
position = "{338, 665}";
},
{
name = top;
position = "{497, 1118}";
},
{
name = topleft;
position = "{94, 1160}";
}
);
layerId = "2BEA1A6F-25C4-4A40-9A7D-95BA05285D07";
name = Light;
paths = (
{
closed = 1;
nodes = (
"213 1310 OFFCURVE",
"45 1300 OFFCURVE",
"45 1300 CURVE",
"45 1209 LINE",
"45 1209 OFFCURVE",
"208 1220 OFFCURVE",
"351 1220 CURVE SMOOTH",
"557 1220 OFFCURVE",
"722 1186 OFFCURVE",
"722 946 CURVE SMOOTH",
"722 0 LINE",
"824 0 LINE",
"824 946 LINE SMOOTH",
"824 1247 OFFCURVE",
"606 1310 OFFCURVE",
"351 1310 CURVE SMOOTH"
);
}
);
width = 993;
}
);
unicode = 05E8;
},
{
glyphname = "shin-hb";
lastChange = "2013-03-07 06:46:41 +0200";
layers = (
{
anchors = (
{
name = bottom;
position = "{606, -152}";
},
{
name = bottomleft;
position = "{20, 0}";
},
{
name = center;
position = "{761, 450}";
},
{
name = top;
position = "{685, 1160}";
},
{
name = topleft;
position = "{102, 1160}";
},
{
name = topright;
position = "{1349, 1160}";
}
);
layerId = "2BEA1A6F-25C4-4A40-9A7D-95BA05285D07";
name = Light;
paths = (
{
closed = 1;
nodes = (
"1222 1290 LINE",
"1168 735 LINE SMOOTH",
"1132 366 OFFCURVE",
"867 86 OFFCURVE",
"553 87 CURVE SMOOTH",
"268 88 LINE",
"240 426 LINE",
"244 427 LINE",
"583 499 OFFCURVE",
"690 666 OFFCURVE",
"727 1036 CURVE SMOOTH",
"752 1290 LINE",
"661 1290 LINE",
"636 1036 LINE SMOOTH",
"601 682 OFFCURVE",
"486 579 OFFCURVE",
"244 515 CURVE SMOOTH",
"232 512 LINE",
"167 1290 LINE",
"72 1290 LINE",
"181 0 LINE",
"553 0 LINE SMOOTH",
"984 0 OFFCURVE",
"1224 382 OFFCURVE",
"1259 735 CURVE SMOOTH",
"1314 1290 LINE"
);
}
);
width = 1369;
}
);
unicode = 05E9;
},
{
glyphname = "tav-hb";
lastChange = "2013-03-07 06:46:41 +0200";
layers = (
{
anchors = (
{
name = bottom;
position = "{616, -152}";
},
{
name = bottomleft;
position = "{20, 0}";
},
{
name = center;
position = "{639, 665}";
},
{
name = top;
position = "{616, 1118}";
},
{
name = topleft;
position = "{155, 1160}";
}
);
layerId = "2BEA1A6F-25C4-4A40-9A7D-95BA05285D07";
name = Light;
paths = (
{
closed = 1;
nodes = (
"395 1310 OFFCURVE",
"183 1295 OFFCURVE",
"110 1290 CURVE",
"110 1198 LINE",
"256 1208 LINE",
"256 308 LINE SMOOTH",
"256 154 OFFCURVE",
"190 90 OFFCURVE",
"92 90 CURVE SMOOTH",
"73 90 OFFCURVE",
"44 91 OFFCURVE",
"25 93 CURVE",
"25 9 LINE",
"45 5 OFFCURVE",
"70 0 OFFCURVE",
"92 0 CURVE SMOOTH",
"276 0 OFFCURVE",
"358 109 OFFCURVE",
"358 308 CURVE SMOOTH",
"358 1213 LINE",
"434 1217 OFFCURVE",
"516 1220 OFFCURVE",
"589 1220 CURVE SMOOTH",
"795 1220 OFFCURVE",
"960 1186 OFFCURVE",
"960 946 CURVE SMOOTH",
"960 0 LINE",
"1062 0 LINE",
"1062 946 LINE SMOOTH",
"1062 1247 OFFCURVE",
"844 1310 OFFCURVE",
"589 1310 CURVE SMOOTH"
);
}
);
width = 1232;
}
);
unicode = 05EA;
},
{
glyphname = zero;
lastChange = "2013-03-07 06:46:41 +0200";
layers = (
{
layerId = "2BEA1A6F-25C4-4A40-9A7D-95BA05285D07";
name = Light;
paths = (
{
closed = 1;
nodes = (
"267 1485 OFFCURVE",
"115 1244 OFFCURVE",
"115 735 CURVE SMOOTH",
"115 236 OFFCURVE",
"277 -20 OFFCURVE",
"582 -20 CURVE SMOOTH",
"899 -20 OFFCURVE",
"1055 222 OFFCURVE",
"1055 735 CURVE SMOOTH",
"1055 1227 OFFCURVE",
"890 1485 OFFCURVE",
"582 1485 CURVE SMOOTH"
);
},
{
closed = 1;
nodes = (
"834 1395 OFFCURVE",
"944 1167 OFFCURVE",
"944 735 CURVE SMOOTH",
"944 296 OFFCURVE",
"834 70 OFFCURVE",
"582 70 CURVE SMOOTH",
"341 70 OFFCURVE",
"223 282 OFFCURVE",
"223 735 CURVE SMOOTH",
"223 1167 OFFCURVE",
"330 1395 OFFCURVE",
"582 1395 CURVE SMOOTH"
);
}
);
width = 1169;
}
);
unicode = 0030;
},
{
glyphname = one;
lastChange = "2013-03-07 06:46:41 +0200";
layers = (
{
layerId = "2BEA1A6F-25C4-4A40-9A7D-95BA05285D07";
name = Light;
paths = (
{
closed = 1;
nodes = (
"596 1462 LINE",
"199 1165 LINE",
"256 1094 LINE",
"565 1337 LINE SMOOTH",
"576 1346 OFFCURVE",
"586 1356 OFFCURVE",
"596 1366 CURVE",
"588 1262 OFFCURVE",
"584 1162 OFFCURVE",
"584 1065 CURVE SMOOTH",
"584 0 LINE",
"682 0 LINE",
"682 1462 LINE"
);
}
);
width = 1169;
}
);
unicode = 0031;
},
{
glyphname = two;
lastChange = "2013-03-07 06:46:41 +0200";
layers = (
{
layerId = "2BEA1A6F-25C4-4A40-9A7D-95BA05285D07";
name = Light;
paths = (
{
closed = 1;
nodes = (
"404 1483 OFFCURVE",
"269 1432 OFFCURVE",
"147 1329 CURVE",
"201 1260 LINE",
"312 1349 OFFCURVE",
"429 1393 OFFCURVE",
"551 1393 CURVE SMOOTH",
"642 1393 OFFCURVE",
"717 1366 OFFCURVE",
"774 1311 CURVE SMOOTH",
"831 1256 OFFCURVE",
"860 1185 OFFCURVE",
"860 1098 CURVE SMOOTH",
"860 977 OFFCURVE",
"820 874 OFFCURVE",
"732 754 CURVE SMOOTH",
"688 694 OFFCURVE",
"611 607 OFFCURVE",
"502 494 CURVE SMOOTH",
"113 88 LINE",
"113 0 LINE",
"1028 0 LINE",
"1028 95 LINE",
"246 95 LINE",
"246 99 LINE",
"621 485 LINE SMOOTH",
"751 618 OFFCURVE",
"840 729 OFFCURVE",
"889 819 CURVE SMOOTH",
"938 910 OFFCURVE",
"963 1003 OFFCURVE",
"963 1100 CURVE SMOOTH",
"963 1219 OFFCURVE",
"926 1313 OFFCURVE",
"853 1381 CURVE SMOOTH",
"780 1449 OFFCURVE",
"680 1483 OFFCURVE",
"553 1483 CURVE SMOOTH"
);
}
);
width = 1169;
}
);
unicode = 0032;
},
{
glyphname = three;
lastChange = "2013-03-07 06:46:41 +0200";
layers = (
{
layerId = "2BEA1A6F-25C4-4A40-9A7D-95BA05285D07";
name = Light;
paths = (
{
closed = 1;
nodes = (
"475 1483 OFFCURVE",
"394 1469 OFFCURVE",
"314 1441 CURVE SMOOTH",
"234 1414 OFFCURVE",
"166 1376 OFFCURVE",
"109 1329 CURVE",
"158 1262 LINE",
"233 1311 OFFCURVE",
"300 1346 OFFCURVE",
"360 1366 CURVE SMOOTH",
"420 1387 OFFCURVE",
"486 1397 OFFCURVE",
"559 1397 CURVE SMOOTH",
"652 1397 OFFCURVE",
"728 1372 OFFCURVE",
"785 1323 CURVE SMOOTH",
"843 1274 OFFCURVE",
"872 1209 OFFCURVE",
"872 1128 CURVE SMOOTH",
"872 1029 OFFCURVE",
"836 951 OFFCURVE",
"765 893 CURVE SMOOTH",
"694 836 OFFCURVE",
"598 807 OFFCURVE",
"477 807 CURVE SMOOTH",
"317 807 LINE",
"317 711 LINE",
"475 711 LINE SMOOTH",
"768 711 OFFCURVE",
"922 603 OFFCURVE",
"922 410 CURVE SMOOTH",
"922 193 OFFCURVE",
"774 68 OFFCURVE",
"479 68 CURVE SMOOTH",
"418 68 OFFCURVE",
"352 76 OFFCURVE",
"282 92 CURVE SMOOTH",
"213 110 OFFCURVE",
"150 133 OFFCURVE",
"93 162 CURVE",
"93 63 LINE",
"205 8 OFFCURVE",
"334 -20 OFFCURVE",
"483 -20 CURVE SMOOTH",
"832 -20 OFFCURVE",
"1024 137 OFFCURVE",
"1024 410 CURVE SMOOTH",
"1024 613 OFFCURVE",
"899 735 OFFCURVE",
"664 764 CURVE",
"664 770 LINE",
"760 787 OFFCURVE",
"836 827 OFFCURVE",
"893 889 CURVE SMOOTH",
"950 951 OFFCURVE",
"978 1027 OFFCURVE",
"978 1118 CURVE SMOOTH",
"978 1350 OFFCURVE",
"826 1483 OFFCURVE",
"557 1483 CURVE SMOOTH"
);
}
);
width = 1169;
}
);
unicode = 0033;
},
{
glyphname = four;
lastChange = "2013-03-07 06:46:41 +0200";
layers = (
{
layerId = "2BEA1A6F-25C4-4A40-9A7D-95BA05285D07";
name = Light;
paths = (
{
closed = 1;
nodes = (
"768 1470 LINE",
"43 440 LINE",
"43 373 LINE",
"795 373 LINE",
"795 0 LINE",
"889 0 LINE",
"889 373 LINE",
"1141 373 LINE",
"1141 459 LINE",
"889 459 LINE",
"889 1470 LINE"
);
},
{
closed = 1;
nodes = (
"800 1247 OFFCURVE",
"795 1078 OFFCURVE",
"795 877 CURVE SMOOTH",
"795 459 LINE",
"162 459 LINE",
"678 1196 LINE SMOOTH",
"747 1297 OFFCURVE",
"788 1359 OFFCURVE",
"801 1384 CURVE",
"809 1384 LINE"
);
}
);
width = 1169;
}
);
unicode = 0034;
},
{
glyphname = five;
lastChange = "2013-03-07 06:46:41 +0200";
layers = (
{
layerId = "2BEA1A6F-25C4-4A40-9A7D-95BA05285D07";
name = Light;
paths = (
{
closed = 1;
nodes = (
"244 1462 LINE",
"186 793 LINE",
"246 754 LINE",
"341 780 OFFCURVE",
"431 793 OFFCURVE",
"518 793 CURVE SMOOTH",
"647 793 OFFCURVE",
"750 762 OFFCURVE",
"825 700 CURVE SMOOTH",
"900 638 OFFCURVE",
"938 553 OFFCURVE",
"938 444 CURVE SMOOTH",
"938 329 OFFCURVE",
"899 237 OFFCURVE",
"822 169 CURVE SMOOTH",
"745 102 OFFCURVE",
"642 68 OFFCURVE",
"514 68 CURVE SMOOTH",
"451 68 OFFCURVE",
"391 75 OFFCURVE",
"335 89 CURVE SMOOTH",
"279 104 OFFCURVE",
"215 129 OFFCURVE",
"143 166 CURVE",
"143 63 LINE",
"231 9 OFFCURVE",
"369 -20 OFFCURVE",
"514 -20 CURVE SMOOTH",
"678 -20 OFFCURVE",
"807 22 OFFCURVE",
"900 105 CURVE SMOOTH",
"992 188 OFFCURVE",
"1040 305 OFFCURVE",
"1040 455 CURVE SMOOTH",
"1040 587 OFFCURVE",
"994 691 OFFCURVE",
"905 766 CURVE SMOOTH",
"816 841 OFFCURVE",
"693 879 OFFCURVE",
"537 879 CURVE SMOOTH",
"478 879 OFFCURVE",
"397 869 OFFCURVE",
"293 850 CURVE",
"338 1366 LINE",
"948 1366 LINE",
"948 1462 LINE"
);
}
);
width = 1169;
}
);
unicode = 0035;
},
{
glyphname = six;
lastChange = "2013-03-07 06:46:41 +0200";
layers = (
{
layerId = "2BEA1A6F-25C4-4A40-9A7D-95BA05285D07";
name = Light;
paths = (
{
closed = 1;
nodes = (
"373 1489 OFFCURVE",
"131 1197 OFFCURVE",
"131 623 CURVE SMOOTH",
"131 420 OFFCURVE",
"174 262 OFFCURVE",
"259 149 CURVE SMOOTH",
"345 36 OFFCURVE",
"462 -20 OFFCURVE",
"610 -20 CURVE SMOOTH",
"747 -20 OFFCURVE",
"856 23 OFFCURVE",
"937 109 CURVE SMOOTH",
"1018 196 OFFCURVE",
"1059 314 OFFCURVE",
"1059 463 CURVE SMOOTH",
"1059 600 OFFCURVE",
"1020 708 OFFCURVE",
"943 786 CURVE SMOOTH",
"866 864 OFFCURVE",
"760 903 OFFCURVE",
"623 903 CURVE SMOOTH",
"478 903 OFFCURVE",
"343 836 OFFCURVE",
"242 705 CURVE",
"229 705 LINE",
"252 1158 OFFCURVE",
"439 1401 OFFCURVE",
"768 1401 CURVE SMOOTH",
"837 1401 OFFCURVE",
"895 1392 OFFCURVE",
"944 1374 CURVE",
"944 1462 LINE",
"892 1477 OFFCURVE",
"835 1485 OFFCURVE",
"772 1485 CURVE SMOOTH"
);
},
{
closed = 1;
nodes = (
"724 821 OFFCURVE",
"806 790 OFFCURVE",
"866 727 CURVE SMOOTH",
"926 664 OFFCURVE",
"956 577 OFFCURVE",
"956 465 CURVE SMOOTH",
"956 210 OFFCURVE",
"829 68 OFFCURVE",
"610 68 CURVE SMOOTH",
"474 68 OFFCURVE",
"356 154 OFFCURVE",
"289 290 CURVE SMOOTH",
"256 359 OFFCURVE",
"240 430 OFFCURVE",
"240 504 CURVE",
"236 659 OFFCURVE",
"419 827 OFFCURVE",
"621 821 CURVE SMOOTH"
);
}
);
width = 1169;
}
);
unicode = 0036;
},
{
glyphname = seven;
lastChange = "2013-03-07 06:46:41 +0200";
layers = (
{
layerId = "2BEA1A6F-25C4-4A40-9A7D-95BA05285D07";
name = Light;
paths = (
{
closed = 1;
nodes = (
"109 1462 LINE",
"109 1366 LINE",
"936 1366 LINE",
"334 0 LINE",
"451 0 LINE",
"1055 1389 LINE",
"1055 1462 LINE"
);
}
);
width = 1169;
}
);
unicode = 0037;
},
{
glyphname = eight;
lastChange = "2013-03-07 06:46:41 +0200";
layers = (
{
layerId = "2BEA1A6F-25C4-4A40-9A7D-95BA05285D07";
name = Light;
paths = (
{
closed = 1;
nodes = (
"348 1490 OFFCURVE",
"163 1347 OFFCURVE",
"168 1137 CURVE SMOOTH",
"168 1058 OFFCURVE",
"190 990 OFFCURVE",
"234 934 CURVE SMOOTH",
"278 878 OFFCURVE",
"354 825 OFFCURVE",
"461 774 CURVE",
"229 681 OFFCURVE",
"121 550 OFFCURVE",
"121 375 CURVE SMOOTH",
"121 118 OFFCURVE",
"283 -20 OFFCURVE",
"578 -20 CURVE SMOOTH",
"720 -20 OFFCURVE",
"833 16 OFFCURVE",
"917 88 CURVE SMOOTH",
"1002 160 OFFCURVE",
"1044 256 OFFCURVE",
"1044 377 CURVE SMOOTH",
"1044 466 OFFCURVE",
"1018 542 OFFCURVE",
"966 605 CURVE SMOOTH",
"914 668 OFFCURVE",
"824 725 OFFCURVE",
"696 778 CURVE",
"907 875 OFFCURVE",
"994 985 OFFCURVE",
"994 1135 CURVE SMOOTH",
"994 1243 OFFCURVE",
"957 1329 OFFCURVE",
"881 1392 CURVE SMOOTH",
"806 1455 OFFCURVE",
"706 1487 OFFCURVE",
"582 1487 CURVE SMOOTH"
);
},
{
closed = 1;
nodes = (
"710 676 OFFCURVE",
"811 622 OFFCURVE",
"863 570 CURVE SMOOTH",
"916 519 OFFCURVE",
"942 452 OFFCURVE",
"942 369 CURVE SMOOTH",
"942 277 OFFCURVE",
"909 204 OFFCURVE",
"842 150 CURVE SMOOTH",
"775 96 OFFCURVE",
"687 70 OFFCURVE",
"578 70 CURVE SMOOTH",
"354 70 OFFCURVE",
"223 176 OFFCURVE",
"223 360 CURVE SMOOTH",
"223 447 OFFCURVE",
"249 519 OFFCURVE",
"300 576 CURVE SMOOTH",
"351 633 OFFCURVE",
"438 686 OFFCURVE",
"561 733 CURVE"
);
},
{
closed = 1;
nodes = (
"677 1397 OFFCURVE",
"754 1374 OFFCURVE",
"810 1327 CURVE SMOOTH",
"867 1280 OFFCURVE",
"895 1217 OFFCURVE",
"895 1137 CURVE SMOOTH",
"895 1066 OFFCURVE",
"871 1005 OFFCURVE",
"824 954 CURVE SMOOTH",
"777 903 OFFCURVE",
"699 857 OFFCURVE",
"590 815 CURVE",
"497 854 OFFCURVE",
"430 887 OFFCURVE",
"390 916 CURVE SMOOTH",
"351 945 OFFCURVE",
"320 977 OFFCURVE",
"299 1013 CURVE SMOOTH",
"278 1049 OFFCURVE",
"268 1090 OFFCURVE",
"268 1137 CURVE SMOOTH",
"268 1218 OFFCURVE",
"296 1281 OFFCURVE",
"353 1327 CURVE SMOOTH",
"410 1374 OFFCURVE",
"486 1397 OFFCURVE",
"580 1397 CURVE SMOOTH"
);
}
);
width = 1169;
}
);
unicode = 0038;
},
{
glyphname = nine;
lastChange = "2013-03-07 06:46:41 +0200";
layers = (
{
layerId = "2BEA1A6F-25C4-4A40-9A7D-95BA05285D07";
name = Light;
paths = (
{
closed = 1;
nodes = (
"426 1485 OFFCURVE",
"318 1440 OFFCURVE",
"235 1349 CURVE SMOOTH",
"152 1258 OFFCURVE",
"111 1140 OFFCURVE",
"111 992 CURVE SMOOTH",
"111 856 OFFCURVE",
"149 750 OFFCURVE",
"224 675 CURVE SMOOTH",
"300 600 OFFCURVE",
"406 563 OFFCURVE",
"541 563 CURVE SMOOTH",
"688 563 OFFCURVE",
"829 634 OFFCURVE",
"926 762 CURVE",
"938 762 LINE",
"917 306 OFFCURVE",
"724 63 OFFCURVE",
"395 63 CURVE SMOOTH",
"374 63 OFFCURVE",
"343 65 OFFCURVE",
"302 70 CURVE SMOOTH",
"262 75 OFFCURVE",
"228 83 OFFCURVE",
"199 92 CURVE",
"199 6 LINE",
"258 -11 OFFCURVE",
"322 -20 OFFCURVE",
"391 -20 CURVE SMOOTH",
"800 -24 OFFCURVE",
"1038 262 OFFCURVE",
"1036 842 CURVE",
"1039 1243 OFFCURVE",
"846 1490 OFFCURVE",
"559 1485 CURVE SMOOTH"
);
},
{
closed = 1;
nodes = (
"704 1397 OFFCURVE",
"820 1316 OFFCURVE",
"881 1180 CURVE SMOOTH",
"912 1112 OFFCURVE",
"928 1039 OFFCURVE",
"928 961 CURVE SMOOTH",
"928 910 OFFCURVE",
"911 859 OFFCURVE",
"876 809 CURVE SMOOTH",
"842 760 OFFCURVE",
"796 720 OFFCURVE",
"737 690 CURVE SMOOTH",
"679 660 OFFCURVE",
"616 645 OFFCURVE",
"549 645 CURVE SMOOTH",
"333 645 OFFCURVE",
"213 767 OFFCURVE",
"213 998 CURVE SMOOTH",
"213 1122 OFFCURVE",
"244 1219 OFFCURVE",
"307 1290 CURVE SMOOTH",
"370 1361 OFFCURVE",
"454 1397 OFFCURVE",
"559 1397 CURVE SMOOTH"
);
}
);
width = 1169;
}
);
unicode = 0039;
},
{
glyphname = onehalf;
lastChange = "2013-03-07 06:46:41 +0200";
layers = (
{
layerId = "2BEA1A6F-25C4-4A40-9A7D-95BA05285D07";
name = Light;
paths = (
{
closed = 1;
nodes = (
"978 1462 LINE",
"168 0 LINE",
"262 0 LINE",
"1073 1462 LINE"
);
},
{
closed = 1;
nodes = (
"285 1462 LINE",
"11 1298 LINE",
"58 1221 LINE",
"196 1302 OFFCURVE",
"274 1351 OFFCURVE",
"291 1366 CURVE",
"283 1277 OFFCURVE",
"279 1199 OFFCURVE",
"279 1133 CURVE SMOOTH",
"279 586 LINE",
"377 586 LINE",
"377 1462 LINE"
);
},
{
closed = 1;
nodes = (
"1021 898 OFFCURVE",
"931 864 OFFCURVE",
"852 795 CURVE",
"901 730 LINE",
"973 785 OFFCURVE",
"1046 812 OFFCURVE",
"1118 812 CURVE SMOOTH",
"1221 812 OFFCURVE",
"1288 753 OFFCURVE",
"1288 658 CURVE SMOOTH",
"1288 607 OFFCURVE",
"1272 557 OFFCURVE",
"1241 509 CURVE SMOOTH",
"1210 461 OFFCURVE",
"1152 397 OFFCURVE",
"1069 316 CURVE SMOOTH",
"827 79 LINE",
"827 0 LINE",
"1403 0 LINE",
"1403 89 LINE",
"956 89 LINE",
"1134 262 OFFCURVE",
"1237 364 OFFCURVE",
"1264 395 CURVE SMOOTH",
"1292 426 OFFCURVE",
"1315 456 OFFCURVE",
"1333 485 CURVE SMOOTH",
"1369 544 OFFCURVE",
"1386 597 OFFCURVE",
"1386 660 CURVE SMOOTH",
"1386 808 OFFCURVE",
"1287 898 OFFCURVE",
"1122 898 CURVE SMOOTH"
);
}
);
width = 1516;
}
);
unicode = 00BD;
},
{
glyphname = onequarter;
lastChange = "2013-03-07 06:46:41 +0200";
layers = (
{
layerId = "2BEA1A6F-25C4-4A40-9A7D-95BA05285D07";
name = Light;
paths = (
{
closed = 1;
nodes = (
"1054 1462 LINE",
"243 0 LINE",
"337 0 LINE",
"1148 1462 LINE"
);
},
{
closed = 1;
nodes = (
"333 1462 LINE",
"59 1298 LINE",
"106 1221 LINE",
"244 1302 OFFCURVE",
"322 1351 OFFCURVE",
"339 1366 CURVE",
"331 1277 OFFCURVE",
"327 1199 OFFCURVE",
"327 1133 CURVE SMOOTH",
"327 586 LINE",
"425 586 LINE",
"425 1462 LINE"
);
},
{
closed = 1;
nodes = (
"1167 883 LINE",
"760 302 LINE",
"760 242 LINE",
"1173 242 LINE",
"1173 0 LINE",
"1263 0 LINE",
"1263 242 LINE",
"1392 242 LINE",
"1392 320 LINE",
"1263 320 LINE",
"1263 883 LINE"
);
},
{
closed = 1;
nodes = (
"1176 706 OFFCURVE",
"1173 629 OFFCURVE",
"1173 541 CURVE SMOOTH",
"1173 320 LINE",
"864 320 LINE",
"1051 583 OFFCURVE",
"1149 722 OFFCURVE",
"1159 737 CURVE SMOOTH",
"1170 753 OFFCURVE",
"1177 765 OFFCURVE",
"1181 773 CURVE"
);
}
);
width = 1516;
}
);
unicode = 00BC;
},
{
glyphname = threequarters;
lastChange = "2013-03-07 06:46:41 +0200";
layers = (
{
layerId = "2BEA1A6F-25C4-4A40-9A7D-95BA05285D07";
name = Light;
paths = (
{
closed = 1;
nodes = (
"1206 1462 LINE",
"395 0 LINE",
"489 0 LINE",
"1300 1462 LINE"
);
},
{
closed = 1;
nodes = (
"235 1483 OFFCURVE",
"138 1452 OFFCURVE",
"51 1389 CURVE",
"97 1319 LINE",
"177 1371 OFFCURVE",
"259 1397 OFFCURVE",
"344 1397 CURVE SMOOTH",
"451 1397 OFFCURVE",
"518 1338 OFFCURVE",
"518 1249 CURVE SMOOTH",
"518 1146 OFFCURVE",
"447 1085 OFFCURVE",
"307 1085 CURVE SMOOTH",
"172 1085 LINE",
"172 1001 LINE",
"303 1001 LINE SMOOTH",
"462 1001 OFFCURVE",
"541 951 OFFCURVE",
"541 840 CURVE SMOOTH",
"541 724 OFFCURVE",
"460 655 OFFCURVE",
"307 655 CURVE SMOOTH",
"220 655 OFFCURVE",
"132 676 OFFCURVE",
"41 717 CURVE",
"41 629 LINE",
"121 589 OFFCURVE",
"209 569 OFFCURVE",
"305 569 CURVE SMOOTH",
"517 569 OFFCURVE",
"641 669 OFFCURVE",
"641 842 CURVE SMOOTH",
"641 953 OFFCURVE",
"579 1023 OFFCURVE",
"455 1053 CURVE",
"552 1082 OFFCURVE",
"616 1156 OFFCURVE",
"616 1260 CURVE SMOOTH",
"616 1397 OFFCURVE",
"513 1483 OFFCURVE",
"344 1483 CURVE SMOOTH"
);
},
{
closed = 1;
nodes = (
"1270 883 LINE",
"863 302 LINE",
"863 242 LINE",
"1276 242 LINE",
"1276 0 LINE",
"1366 0 LINE",
"1366 242 LINE",
"1495 242 LINE",
"1495 320 LINE",
"1366 320 LINE",
"1366 883 LINE"
);
},
{
closed = 1;
nodes = (
"1279 706 OFFCURVE",
"1276 629 OFFCURVE",
"1276 541 CURVE SMOOTH",
"1276 320 LINE",
"967 320 LINE",
"1154 583 OFFCURVE",
"1252 722 OFFCURVE",
"1262 737 CURVE SMOOTH",
"1273 753 OFFCURVE",
"1280 765 OFFCURVE",
"1284 773 CURVE"
);
}
);
width = 1516;
}
);
unicode = 00BE;
},
{
glyphname = onesuperior;
lastChange = "2013-03-07 06:46:41 +0200";
layers = (
{
layerId = "2BEA1A6F-25C4-4A40-9A7D-95BA05285D07";
name = Light;
paths = (
{
closed = 1;
nodes = (
"350 1462 LINE",
"76 1298 LINE",
"123 1221 LINE",
"261 1302 OFFCURVE",
"339 1351 OFFCURVE",
"356 1366 CURVE",
"348 1277 OFFCURVE",
"344 1199 OFFCURVE",
"344 1133 CURVE SMOOTH",
"344 586 LINE",
"442 586 LINE",
"442 1462 LINE"
);
}
);
width = 688;
}
);
unicode = 00B9;
},
{
glyphname = twosuperior;
lastChange = "2013-03-07 06:46:41 +0200";
layers = (
{
layerId = "2BEA1A6F-25C4-4A40-9A7D-95BA05285D07";
name = Light;
paths = (
{
closed = 1;
nodes = (
"247 1483 OFFCURVE",
"157 1449 OFFCURVE",
"78 1380 CURVE",
"127 1315 LINE",
"200 1370 OFFCURVE",
"272 1397 OFFCURVE",
"344 1397 CURVE SMOOTH",
"447 1397 OFFCURVE",
"514 1338 OFFCURVE",
"514 1243 CURVE SMOOTH",
"514 1192 OFFCURVE",
"498 1142 OFFCURVE",
"467 1094 CURVE SMOOTH",
"436 1046 OFFCURVE",
"378 981 OFFCURVE",
"295 901 CURVE SMOOTH",
"53 664 LINE",
"53 586 LINE",
"629 586 LINE",
"629 674 LINE",
"182 674 LINE",
"360 847 OFFCURVE",
"463 949 OFFCURVE",
"490 979 CURVE SMOOTH",
"518 1011 OFFCURVE",
"541 1041 OFFCURVE",
"559 1070 CURVE SMOOTH",
"595 1129 OFFCURVE",
"612 1182 OFFCURVE",
"612 1245 CURVE SMOOTH",
"612 1393 OFFCURVE",
"513 1483 OFFCURVE",
"348 1483 CURVE SMOOTH"
);
}
);
width = 688;
}
);
unicode = 00B2;
},
{
glyphname = threesuperior;
lastChange = "2013-03-07 06:46:41 +0200";
layers = (
{
layerId = "2BEA1A6F-25C4-4A40-9A7D-95BA05285D07";
name = Light;
paths = (
{
closed = 1;
nodes = (
"235 1483 OFFCURVE",
"138 1452 OFFCURVE",
"51 1389 CURVE",
"97 1319 LINE",
"177 1371 OFFCURVE",
"259 1397 OFFCURVE",
"344 1397 CURVE SMOOTH",
"451 1397 OFFCURVE",
"518 1338 OFFCURVE",
"518 1249 CURVE SMOOTH",
"518 1146 OFFCURVE",
"447 1085 OFFCURVE",
"307 1085 CURVE SMOOTH",
"172 1085 LINE",
"172 1001 LINE",
"303 1001 LINE SMOOTH",
"462 1001 OFFCURVE",
"541 951 OFFCURVE",
"541 840 CURVE SMOOTH",
"541 724 OFFCURVE",
"460 655 OFFCURVE",
"307 655 CURVE SMOOTH",
"220 655 OFFCURVE",
"132 676 OFFCURVE",
"41 717 CURVE",
"41 629 LINE",
"121 589 OFFCURVE",
"209 569 OFFCURVE",
"305 569 CURVE SMOOTH",
"517 569 OFFCURVE",
"641 669 OFFCURVE",
"641 842 CURVE SMOOTH",
"641 953 OFFCURVE",
"579 1023 OFFCURVE",
"455 1053 CURVE",
"552 1082 OFFCURVE",
"616 1156 OFFCURVE",
"616 1260 CURVE SMOOTH",
"616 1397 OFFCURVE",
"513 1483 OFFCURVE",
"344 1483 CURVE SMOOTH"
);
}
);
width = 688;
}
);
unicode = 00B3;
},
{
glyphname = asterisk;
lastChange = "2013-03-07 06:46:41 +0200";
layers = (
{
layerId = "2BEA1A6F-25C4-4A40-9A7D-95BA05285D07";
name = Light;
paths = (
{
closed = 1;
nodes = (
"485 1556 LINE",
"524 1151 LINE",
"123 1255 LINE",
"104 1124 LINE",
"494 1085 LINE",
"252 745 LINE",
"377 674 LINE",
"557 1053 LINE",
"748 674 LINE",
"872 745 LINE",
"625 1085 LINE",
"1020 1124 LINE",
"998 1255 LINE",
"594 1151 LINE",
"631 1556 LINE"
);
}
);
width = 1128;
}
);
unicode = 002A;
},
{
glyphname = backslash;
lastChange = "2013-03-07 06:46:41 +0200";
layers = (
{
layerId = "2BEA1A6F-25C4-4A40-9A7D-95BA05285D07";
name = Light;
paths = (
{
closed = 1;
nodes = (
"25 1462 LINE",
"571 0 LINE",
"674 0 LINE",
"127 1462 LINE"
);
}
);
width = 698;
}
);
unicode = 005C;
},
{
glyphname = bullet;
lastChange = "2013-03-07 06:46:41 +0200";
layers = (
{
layerId = "2BEA1A6F-25C4-4A40-9A7D-95BA05285D07";
name = Light;
paths = (
{
closed = 1;
nodes = (
"288 928 OFFCURVE",
"231 867 OFFCURVE",
"231 748 CURVE SMOOTH",
"231 632 OFFCURVE",
"289 567 OFFCURVE",
"385 567 CURVE SMOOTH",
"481 567 OFFCURVE",
"539 635 OFFCURVE",
"539 748 CURVE SMOOTH",
"539 863 OFFCURVE",
"482 928 OFFCURVE",
"385 928 CURVE SMOOTH"
);
}
);
width = 770;
}
);
unicode = 2022;
},
{
glyphname = colon;
lastChange = "2013-03-07 06:46:41 +0200";
layers = (
{
layerId = "2BEA1A6F-25C4-4A40-9A7D-95BA05285D07";
name = Light;
paths = (
{
closed = 1;
nodes = (
"189 1069 OFFCURVE",
"162 1036 OFFCURVE",
"162 970 CURVE SMOOTH",
"162 900 OFFCURVE",
"197 872 OFFCURVE",
"242 872 CURVE SMOOTH",
"289 872 OFFCURVE",
"324 900 OFFCURVE",
"324 970 CURVE SMOOTH",
"324 1036 OFFCURVE",
"297 1069 OFFCURVE",
"242 1069 CURVE SMOOTH"
);
},
{
closed = 1;
nodes = (
"189 176 OFFCURVE",
"162 143 OFFCURVE",
"162 78 CURVE SMOOTH",
"162 13 OFFCURVE",
"189 -20 OFFCURVE",
"242 -20 CURVE SMOOTH",
"297 -20 OFFCURVE",
"324 13 OFFCURVE",
"324 78 CURVE SMOOTH",
"324 143 OFFCURVE",
"297 176 OFFCURVE",
"242 176 CURVE SMOOTH"
);
}
);
width = 487;
}
);
unicode = 003A;
},
{
glyphname = comma;
lastChange = "2013-03-07 06:46:41 +0200";
layers = (
{
layerId = "2BEA1A6F-25C4-4A40-9A7D-95BA05285D07";
name = Light;
paths = (
{
closed = 1;
nodes = (
"178 238 LINE",
"156 87 OFFCURVE",
"119 -81 OFFCURVE",
"68 -264 CURVE",
"133 -264 LINE",
"199 -120 OFFCURVE",
"257 40 OFFCURVE",
"307 217 CURVE",
"295 238 LINE"
);
}
);
width = 440;
}
);
unicode = 002C;
},
{
glyphname = ellipsis;
lastChange = "2013-03-07 06:46:41 +0200";
layers = (
{
layerId = "2BEA1A6F-25C4-4A40-9A7D-95BA05285D07";
name = Light;
paths = (
{
closed = 1;
nodes = (
"1168 176 OFFCURVE",
"1141 143 OFFCURVE",
"1141 78 CURVE SMOOTH",
"1141 13 OFFCURVE",
"1168 -20 OFFCURVE",
"1221 -20 CURVE SMOOTH",
"1276 -20 OFFCURVE",
"1303 13 OFFCURVE",
"1303 78 CURVE SMOOTH",
"1303 143 OFFCURVE",
"1276 176 OFFCURVE",
"1221 176 CURVE SMOOTH"
);
},
{
closed = 1;
nodes = (
"189 176 OFFCURVE",
"162 143 OFFCURVE",
"162 78 CURVE SMOOTH",
"162 13 OFFCURVE",
"189 -20 OFFCURVE",
"242 -20 CURVE SMOOTH",
"297 -20 OFFCURVE",
"324 13 OFFCURVE",
"324 78 CURVE SMOOTH",
"324 143 OFFCURVE",
"297 176 OFFCURVE",
"242 176 CURVE SMOOTH"
);
},
{
closed = 1;
nodes = (
"678 176 OFFCURVE",
"651 143 OFFCURVE",
"651 78 CURVE SMOOTH",
"651 13 OFFCURVE",
"678 -20 OFFCURVE",
"731 -20 CURVE SMOOTH",
"786 -20 OFFCURVE",
"813 13 OFFCURVE",
"813 78 CURVE SMOOTH",
"813 143 OFFCURVE",
"786 176 OFFCURVE",
"731 176 CURVE SMOOTH"
);
}
);
width = 1466;
}
);
unicode = 2026;
},
{
glyphname = exclam;
lastChange = "2013-03-07 06:46:41 +0200";
layers = (
{
layerId = "2BEA1A6F-25C4-4A40-9A7D-95BA05285D07";
name = Light;
paths = (
{
closed = 1;
nodes = (
"186 1462 LINE",
"215 377 LINE",
"276 377 LINE",
"305 1462 LINE"
);
},
{
closed = 1;
nodes = (
"191 176 OFFCURVE",
"164 143 OFFCURVE",
"164 78 CURVE SMOOTH",
"164 13 OFFCURVE",
"191 -20 OFFCURVE",
"244 -20 CURVE SMOOTH",
"299 -20 OFFCURVE",
"326 13 OFFCURVE",
"326 78 CURVE SMOOTH",
"326 143 OFFCURVE",
"299 176 OFFCURVE",
"244 176 CURVE SMOOTH"
);
}
);
width = 492;
}
);
unicode = 0021;
},
{
glyphname = exclamdown;
lastChange = "2013-03-07 06:46:41 +0200";
layers = (
{
layerId = "2BEA1A6F-25C4-4A40-9A7D-95BA05285D07";
name = Light;
paths = (
{
closed = 1;
nodes = (
"215 711 LINE",
"186 -375 LINE",
"305 -375 LINE",
"276 711 LINE"
);
},
{
closed = 1;
nodes = (
"193 1108 OFFCURVE",
"166 1075 OFFCURVE",
"166 1010 CURVE SMOOTH",
"166 939 OFFCURVE",
"201 911 OFFCURVE",
"246 911 CURVE SMOOTH",
"293 911 OFFCURVE",
"328 939 OFFCURVE",
"328 1010 CURVE SMOOTH",
"328 1075 OFFCURVE",
"301 1108 OFFCURVE",
"246 1108 CURVE SMOOTH"
);
}
);
width = 492;
}
);
unicode = 00A1;
},
{
glyphname = numbersign;
lastChange = "2013-03-07 06:46:41 +0200";
layers = (
{
layerId = "2BEA1A6F-25C4-4A40-9A7D-95BA05285D07";
name = Light;
paths = (
{
closed = 1;
nodes = (
"984 1462 LINE",
"897 1008 LINE",
"532 1008 LINE",
"621 1462 LINE",
"530 1462 LINE",
"444 1008 LINE",
"133 1008 LINE",
"133 928 LINE",
"430 928 LINE",
"354 530 LINE",
"55 530 LINE",
"55 451 LINE",
"338 451 LINE",
"252 0 LINE",
"340 0 LINE",
"426 451 LINE",
"786 451 LINE",
"698 0 LINE",
"788 0 LINE",
"874 451 LINE",
"1194 451 LINE",
"1194 530 LINE",
"891 530 LINE",
"967 928 LINE",
"1268 928 LINE",
"1268 1008 LINE",
"982 1008 LINE",
"1071 1462 LINE"
);
},
{
closed = 1;
nodes = (
"803 530 LINE",
"440 530 LINE",
"518 928 LINE",
"881 928 LINE"
);
}
);
width = 1323;
}
);
unicode = 0023;
},
{
glyphname = period;
lastChange = "2013-03-07 06:46:41 +0200";
layers = (
{
layerId = "2BEA1A6F-25C4-4A40-9A7D-95BA05285D07";
name = Light;
paths = (
{
closed = 1;
nodes = (
"189 176 OFFCURVE",
"162 143 OFFCURVE",
"162 78 CURVE SMOOTH",
"162 13 OFFCURVE",
"189 -20 OFFCURVE",
"242 -20 CURVE SMOOTH",
"297 -20 OFFCURVE",
"324 13 OFFCURVE",
"324 78 CURVE SMOOTH",
"324 143 OFFCURVE",
"297 176 OFFCURVE",
"242 176 CURVE SMOOTH"
);
}
);
width = 487;
}
);
unicode = 002E;
},
{
glyphname = periodcentered;
lastChange = "2013-03-07 06:46:41 +0200";
layers = (
{
layerId = "2BEA1A6F-25C4-4A40-9A7D-95BA05285D07";
name = Light;
paths = (
{
closed = 1;
nodes = (
"189 819 OFFCURVE",
"162 786 OFFCURVE",
"162 721 CURVE SMOOTH",
"162 656 OFFCURVE",
"189 623 OFFCURVE",
"242 623 CURVE SMOOTH",
"297 623 OFFCURVE",
"324 656 OFFCURVE",
"324 721 CURVE SMOOTH",
"324 786 OFFCURVE",
"297 819 OFFCURVE",
"242 819 CURVE SMOOTH"
);
}
);
width = 487;
}
);
unicode = 00B7;
},
{
glyphname = question;
lastChange = "2013-03-07 06:46:41 +0200";
layers = (
{
layerId = "2BEA1A6F-25C4-4A40-9A7D-95BA05285D07";
name = Light;
paths = (
{
closed = 1;
nodes = (
"342 1483 OFFCURVE",
"291 1478 OFFCURVE",
"241 1467 CURVE SMOOTH",
"192 1456 OFFCURVE",
"130 1435 OFFCURVE",
"57 1403 CURVE",
"93 1323 LINE",
"201 1375 OFFCURVE",
"286 1397 OFFCURVE",
"391 1397 CURVE SMOOTH",
"482 1397 OFFCURVE",
"555 1372 OFFCURVE",
"610 1322 CURVE SMOOTH",
"666 1272 OFFCURVE",
"694 1205 OFFCURVE",
"694 1120 CURVE SMOOTH",
"694 1016 OFFCURVE",
"656 942 OFFCURVE",
"560 861 CURVE SMOOTH",
"469 782 LINE SMOOTH",
"402 723 OFFCURVE",
"355 667 OFFCURVE",
"330 615 CURVE SMOOTH",
"305 563 OFFCURVE",
"293 496 OFFCURVE",
"293 414 CURVE SMOOTH",
"293 377 LINE",
"375 377 LINE",
"375 391 LINE SMOOTH",
"375 456 OFFCURVE",
"380 504 OFFCURVE",
"390 537 CURVE SMOOTH",
"401 570 OFFCURVE",
"417 601 OFFCURVE",
"440 630 CURVE SMOOTH",
"463 660 OFFCURVE",
"496 693 OFFCURVE",
"539 729 CURVE SMOOTH",
"688 854 OFFCURVE",
"788 933 OFFCURVE",
"788 1114 CURVE SMOOTH",
"788 1229 OFFCURVE",
"753 1319 OFFCURVE",
"683 1384 CURVE SMOOTH",
"613 1450 OFFCURVE",
"517 1483 OFFCURVE",
"395 1483 CURVE SMOOTH"
);
},
{
closed = 1;
nodes = (
"287 176 OFFCURVE",
"260 143 OFFCURVE",
"260 78 CURVE SMOOTH",
"260 13 OFFCURVE",
"287 -20 OFFCURVE",
"340 -20 CURVE SMOOTH",
"395 -20 OFFCURVE",
"422 13 OFFCURVE",
"422 78 CURVE SMOOTH",
"422 143 OFFCURVE",
"395 176 OFFCURVE",
"340 176 CURVE SMOOTH"
);
}
);
width = 862;
}
);
unicode = 003F;
},
{
glyphname = questiondown;
lastChange = "2013-03-07 06:46:41 +0200";
layers = (
{
layerId = "2BEA1A6F-25C4-4A40-9A7D-95BA05285D07";
name = Light;
paths = (
{
closed = 1;
nodes = (
"487 711 LINE",
"487 696 LINE SMOOTH",
"487 631 OFFCURVE",
"482 583 OFFCURVE",
"472 550 CURVE SMOOTH",
"462 518 OFFCURVE",
"445 487 OFFCURVE",
"422 456 CURVE SMOOTH",
"399 426 OFFCURVE",
"367 393 OFFCURVE",
"324 358 CURVE SMOOTH",
"235 284 OFFCURVE",
"178 231 OFFCURVE",
"152 199 CURVE SMOOTH",
"127 167 OFFCURVE",
"107 133 OFFCURVE",
"93 96 CURVE SMOOTH",
"81 61 OFFCURVE",
"74 20 OFFCURVE",
"74 -27 CURVE SMOOTH",
"74 -140 OFFCURVE",
"109 -230 OFFCURVE",
"178 -296 CURVE SMOOTH",
"248 -362 OFFCURVE",
"344 -395 OFFCURVE",
"467 -395 CURVE SMOOTH",
"519 -395 OFFCURVE",
"570 -390 OFFCURVE",
"619 -379 CURVE SMOOTH",
"669 -368 OFFCURVE",
"731 -347 OFFCURVE",
"805 -315 CURVE",
"768 -236 LINE",
"704 -263 LINE SMOOTH",
"632 -294 OFFCURVE",
"554 -309 OFFCURVE",
"471 -309 CURVE SMOOTH",
"378 -309 OFFCURVE",
"305 -284 OFFCURVE",
"250 -233 CURVE SMOOTH",
"195 -182 OFFCURVE",
"168 -116 OFFCURVE",
"168 -33 CURVE SMOOTH",
"168 72 OFFCURVE",
"206 145 OFFCURVE",
"303 226 CURVE SMOOTH",
"393 305 LINE SMOOTH",
"458 362 OFFCURVE",
"503 416 OFFCURVE",
"529 469 CURVE SMOOTH",
"556 522 OFFCURVE",
"569 591 OFFCURVE",
"569 674 CURVE SMOOTH",
"569 711 LINE"
);
},
{
closed = 1;
nodes = (
"467 1108 OFFCURVE",
"440 1075 OFFCURVE",
"440 1010 CURVE SMOOTH",
"440 939 OFFCURVE",
"475 911 OFFCURVE",
"520 911 CURVE SMOOTH",
"567 911 OFFCURVE",
"602 939 OFFCURVE",
"602 1010 CURVE SMOOTH",
"602 1075 OFFCURVE",
"575 1108 OFFCURVE",
"520 1108 CURVE SMOOTH"
);
}
);
width = 862;
}
);
unicode = 00BF;
},
{
glyphname = quotedbl;
lastChange = "2013-03-07 06:46:41 +0200";
layers = (
{
layerId = "2BEA1A6F-25C4-4A40-9A7D-95BA05285D07";
name = Light;
paths = (
{
closed = 1;
nodes = (
"463 1462 LINE",
"496 934 LINE",
"557 934 LINE",
"590 1462 LINE"
);
},
{
closed = 1;
nodes = (
"133 1462 LINE",
"166 934 LINE",
"227 934 LINE",
"260 1462 LINE"
);
}
);
width = 723;
}
);
unicode = 0022;
},
{
glyphname = quotesingle;
lastChange = "2013-03-07 06:46:41 +0200";
layers = (
{
layerId = "2BEA1A6F-25C4-4A40-9A7D-95BA05285D07";
name = Light;
paths = (
{
closed = 1;
nodes = (
"133 1462 LINE",
"166 934 LINE",
"227 934 LINE",
"260 1462 LINE"
);
}
);
width = 393;
}
);
unicode = 0027;
},
{
glyphname = semicolon;
lastChange = "2013-03-07 06:46:41 +0200";
layers = (
{
layerId = "2BEA1A6F-25C4-4A40-9A7D-95BA05285D07";
name = Light;
paths = (
{
closed = 1;
nodes = (
"186 238 LINE",
"176 166 OFFCURVE",
"160 81 OFFCURVE",
"138 -18 CURVE SMOOTH",
"116 -117 OFFCURVE",
"94 -199 OFFCURVE",
"76 -264 CURVE",
"141 -264 LINE",
"207 -120 OFFCURVE",
"265 40 OFFCURVE",
"315 217 CURVE",
"303 238 LINE"
);
},
{
closed = 1;
nodes = (
"189 1069 OFFCURVE",
"162 1036 OFFCURVE",
"162 970 CURVE SMOOTH",
"162 900 OFFCURVE",
"197 872 OFFCURVE",
"242 872 CURVE SMOOTH",
"289 872 OFFCURVE",
"324 900 OFFCURVE",
"324 970 CURVE SMOOTH",
"324 1036 OFFCURVE",
"297 1069 OFFCURVE",
"242 1069 CURVE SMOOTH"
);
}
);
width = 487;
}
);
unicode = 003B;
},
{
glyphname = slash;
lastChange = "2013-03-07 06:46:41 +0200";
layers = (
{
layerId = "2BEA1A6F-25C4-4A40-9A7D-95BA05285D07";
name = Light;
paths = (
{
closed = 1;
nodes = (
"569 1462 LINE",
"25 0 LINE",
"129 0 LINE",
"674 1462 LINE"
);
}
);
width = 698;
}
);
unicode = 002F;
},
{
glyphname = underscore;
lastChange = "2013-03-07 06:46:41 +0200";
layers = (
{
layerId = "2BEA1A6F-25C4-4A40-9A7D-95BA05285D07";
name = Light;
paths = (
{
closed = 1;
nodes = (
"-4 -184 LINE",
"-4 -266 LINE",
"846 -266 LINE",
"846 -184 LINE"
);
}
);
width = 842;
}
);
unicode = 005F;
},
{
glyphname = braceleft;
lastChange = "2013-03-07 06:46:41 +0200";
layers = (
{
layerId = "2BEA1A6F-25C4-4A40-9A7D-95BA05285D07";
name = Light;
paths = (
{
closed = 1;
nodes = (
"411 1458 OFFCURVE",
"291 1356 OFFCURVE",
"291 1157 CURVE SMOOTH",
"291 807 LINE SMOOTH",
"291 675 OFFCURVE",
"224 611 OFFCURVE",
"61 608 CURVE",
"61 528 LINE",
"214 525 OFFCURVE",
"291 456 OFFCURVE",
"291 319 CURVE SMOOTH",
"291 -18 LINE SMOOTH",
"291 -122 OFFCURVE",
"318 -199 OFFCURVE",
"373 -249 CURVE SMOOTH",
"428 -299 OFFCURVE",
"521 -324 OFFCURVE",
"651 -324 CURVE",
"651 -233 LINE",
"460 -229 OFFCURVE",
"389 -163 OFFCURVE",
"389 -27 CURVE SMOOTH",
"389 295 LINE SMOOTH",
"389 459 OFFCURVE",
"332 538 OFFCURVE",
"203 565 CURVE",
"203 573 LINE",
"268 587 OFFCURVE",
"316 615 OFFCURVE",
"345 658 CURVE SMOOTH",
"374 701 OFFCURVE",
"389 765 OFFCURVE",
"389 852 CURVE SMOOTH",
"389 1157 LINE SMOOTH",
"389 1296 OFFCURVE",
"467 1365 OFFCURVE",
"651 1372 CURVE",
"651 1462 LINE"
);
}
);
width = 723;
}
);
unicode = 007B;
},
{
glyphname = braceright;
lastChange = "2013-03-07 06:46:41 +0200";
layers = (
{
layerId = "2BEA1A6F-25C4-4A40-9A7D-95BA05285D07";
name = Light;
paths = (
{
closed = 1;
nodes = (
"72 1372 LINE",
"257 1365 OFFCURVE",
"334 1294 OFFCURVE",
"334 1157 CURVE SMOOTH",
"334 852 LINE SMOOTH",
"334 677 OFFCURVE",
"391 600 OFFCURVE",
"520 573 CURVE",
"520 565 LINE",
"391 538 OFFCURVE",
"334 459 OFFCURVE",
"334 295 CURVE SMOOTH",
"334 -27 LINE SMOOTH",
"334 -164 OFFCURVE",
"260 -230 OFFCURVE",
"72 -233 CURVE",
"72 -324 LINE",
"202 -324 OFFCURVE",
"294 -299 OFFCURVE",
"349 -248 CURVE SMOOTH",
"404 -198 OFFCURVE",
"432 -121 OFFCURVE",
"432 -18 CURVE SMOOTH",
"432 319 LINE SMOOTH",
"432 456 OFFCURVE",
"509 525 OFFCURVE",
"662 528 CURVE",
"662 608 LINE",
"501 611 OFFCURVE",
"432 674 OFFCURVE",
"432 807 CURVE SMOOTH",
"432 1157 LINE SMOOTH",
"432 1357 OFFCURVE",
"304 1462 OFFCURVE",
"72 1462 CURVE"
);
}
);
width = 723;
}
);
unicode = 007D;
},
{
glyphname = bracketleft;
lastChange = "2013-03-07 06:46:41 +0200";
layers = (
{
layerId = "2BEA1A6F-25C4-4A40-9A7D-95BA05285D07";
name = Light;
paths = (
{
closed = 1;
nodes = (
"174 1462 LINE",
"174 -324 LINE",
"602 -324 LINE",
"602 -229 LINE",
"272 -229 LINE",
"272 1368 LINE",
"602 1368 LINE",
"602 1462 LINE"
);
}
);
width = 653;
}
);
unicode = 005B;
},
{
glyphname = bracketright;
lastChange = "2013-03-07 06:46:41 +0200";
layers = (
{
layerId = "2BEA1A6F-25C4-4A40-9A7D-95BA05285D07";
name = Light;
paths = (
{
closed = 1;
nodes = (
"51 1462 LINE",
"51 1368 LINE",
"381 1368 LINE",
"381 -229 LINE",
"51 -229 LINE",
"51 -324 LINE",
"479 -324 LINE",
"479 1462 LINE"
);
}
);
width = 653;
}
);
unicode = 005D;
},
{
glyphname = parenleft;
lastChange = "2013-03-07 06:46:41 +0200";
layers = (
{
layerId = "2BEA1A6F-25C4-4A40-9A7D-95BA05285D07";
name = Light;
paths = (
{
closed = 1;
nodes = (
"383 1462 LINE",
"188 1230 OFFCURVE",
"82 914 OFFCURVE",
"82 561 CURVE SMOOTH",
"82 213 OFFCURVE",
"187 -96 OFFCURVE",
"383 -324 CURVE",
"494 -324 LINE",
"291 -55 OFFCURVE",
"190 241 OFFCURVE",
"190 563 CURVE SMOOTH",
"190 734 OFFCURVE",
"216 896 OFFCURVE",
"269 1049 CURVE SMOOTH",
"322 1203 OFFCURVE",
"397 1341 OFFCURVE",
"496 1462 CURVE"
);
}
);
width = 557;
}
);
unicode = 0028;
},
{
glyphname = parenright;
lastChange = "2013-03-07 06:46:41 +0200";
layers = (
{
layerId = "2BEA1A6F-25C4-4A40-9A7D-95BA05285D07";
name = Light;
paths = (
{
closed = 1;
nodes = (
"61 1462 LINE",
"160 1341 OFFCURVE",
"235 1204 OFFCURVE",
"288 1050 CURVE SMOOTH",
"341 897 OFFCURVE",
"367 734 OFFCURVE",
"367 563 CURVE SMOOTH",
"367 241 OFFCURVE",
"266 -55 OFFCURVE",
"63 -324 CURVE",
"174 -324 LINE",
"369 -99 OFFCURVE",
"475 210 OFFCURVE",
"475 561 CURVE SMOOTH",
"475 736 OFFCURVE",
"449 901 OFFCURVE",
"398 1055 CURVE SMOOTH",
"347 1210 OFFCURVE",
"272 1345 OFFCURVE",
"174 1462 CURVE"
);
}
);
width = 557;
}
);
unicode = 0029;
},
{
glyphname = emdash;
lastChange = "2013-03-07 06:46:41 +0200";
layers = (
{
layerId = "2BEA1A6F-25C4-4A40-9A7D-95BA05285D07";
name = Light;
paths = (
{
closed = 1;
nodes = (
"82 594 LINE",
"82 512 LINE",
"1966 512 LINE",
"1966 594 LINE"
);
}
);
width = 2048;
}
);
unicode = 2014;
},
{
glyphname = endash;
lastChange = "2013-03-07 06:46:41 +0200";
layers = (
{
layerId = "2BEA1A6F-25C4-4A40-9A7D-95BA05285D07";
name = Light;
paths = (
{
closed = 1;
nodes = (
"82 594 LINE",
"82 512 LINE",
"942 512 LINE",
"942 594 LINE"
);
}
);
width = 1024;
}
);
unicode = 2013;
},
{
glyphname = hyphen;
lastChange = "2013-03-07 06:46:41 +0200";
layers = (
{
layerId = "2BEA1A6F-25C4-4A40-9A7D-95BA05285D07";
name = Light;
paths = (
{
closed = 1;
nodes = (
"92 594 LINE",
"92 512 LINE",
"567 512 LINE",
"567 594 LINE"
);
}
);
width = 659;
}
);
unicode = 002D;
},
{
glyphname = uni00AD;
lastChange = "2013-03-07 06:46:41 +0200";
layers = (
{
layerId = "2BEA1A6F-25C4-4A40-9A7D-95BA05285D07";
name = Light;
paths = (
{
closed = 1;
nodes = (
"92 594 LINE",
"92 512 LINE",
"567 512 LINE",
"567 594 LINE"
);
}
);
width = 659;
}
);
unicode = 00AD;
},
{
glyphname = guillemotleft;
lastChange = "2013-03-07 06:46:41 +0200";
layers = (
{
layerId = "2BEA1A6F-25C4-4A40-9A7D-95BA05285D07";
name = Light;
paths = (
{
closed = 1;
nodes = (
"442 543 LINE",
"442 516 LINE",
"752 125 LINE",
"813 168 LINE",
"559 530 LINE",
"813 893 LINE",
"752 936 LINE"
);
},
{
closed = 1;
nodes = (
"82 543 LINE",
"82 516 LINE",
"391 125 LINE",
"453 168 LINE",
"199 530 LINE",
"453 893 LINE",
"391 936 LINE"
);
}
);
width = 885;
}
);
unicode = 00AB;
},
{
glyphname = guillemotright;
lastChange = "2013-03-07 06:46:41 +0200";
layers = (
{
layerId = "2BEA1A6F-25C4-4A40-9A7D-95BA05285D07";
name = Light;
paths = (
{
closed = 1;
nodes = (
"432 893 LINE",
"686 530 LINE",
"432 168 LINE",
"494 125 LINE",
"803 518 LINE",
"803 545 LINE",
"494 936 LINE"
);
},
{
closed = 1;
nodes = (
"72 893 LINE",
"326 530 LINE",
"72 168 LINE",
"133 125 LINE",
"442 518 LINE",
"442 545 LINE",
"133 936 LINE"
);
}
);
width = 885;
}
);
unicode = 00BB;
},
{
glyphname = guilsinglleft;
lastChange = "2013-03-07 06:46:41 +0200";
layers = (
{
layerId = "2BEA1A6F-25C4-4A40-9A7D-95BA05285D07";
name = Light;
paths = (
{
closed = 1;
nodes = (
"82 543 LINE",
"82 516 LINE",
"391 125 LINE",
"453 168 LINE",
"199 530 LINE",
"453 893 LINE",
"391 936 LINE"
);
}
);
width = 524;
}
);
unicode = 2039;
},
{
glyphname = guilsinglright;
lastChange = "2013-03-07 06:46:41 +0200";
layers = (
{
layerId = "2BEA1A6F-25C4-4A40-9A7D-95BA05285D07";
name = Light;
paths = (
{
closed = 1;
nodes = (
"72 893 LINE",
"326 530 LINE",
"72 168 LINE",
"133 125 LINE",
"442 518 LINE",
"442 545 LINE",
"133 936 LINE"
);
}
);
width = 524;
}
);
unicode = 203A;
},
{
glyphname = quotedblbase;
lastChange = "2013-03-07 06:46:41 +0200";
layers = (
{
layerId = "2BEA1A6F-25C4-4A40-9A7D-95BA05285D07";
name = Light;
paths = (
{
closed = 1;
nodes = (
"496 238 LINE",
"486 170 OFFCURVE",
"470 86 OFFCURVE",
"448 -14 CURVE SMOOTH",
"426 -115 OFFCURVE",
"405 -198 OFFCURVE",
"385 -263 CURVE",
"451 -263 LINE",
"478 -205 OFFCURVE",
"507 -132 OFFCURVE",
"540 -43 CURVE SMOOTH",
"573 46 OFFCURVE",
"601 133 OFFCURVE",
"625 218 CURVE",
"612 238 LINE"
);
},
{
closed = 1;
nodes = (
"178 238 LINE",
"167 162 OFFCURVE",
"150 76 OFFCURVE",
"129 -21 CURVE SMOOTH",
"108 -118 OFFCURVE",
"87 -199 OFFCURVE",
"68 -263 CURVE",
"133 -263 LINE",
"199 -119 OFFCURVE",
"257 41 OFFCURVE",
"307 218 CURVE",
"295 238 LINE"
);
}
);
width = 768;
}
);
unicode = 201E;
},
{
glyphname = quotedblleft;
lastChange = "2013-03-07 06:46:41 +0200";
layers = (
{
layerId = "2BEA1A6F-25C4-4A40-9A7D-95BA05285D07";
name = Light;
paths = (
{
closed = 1;
nodes = (
"520 1462 LINE",
"492 1401 OFFCURVE",
"462 1326 OFFCURVE",
"429 1236 CURVE SMOOTH",
"396 1146 OFFCURVE",
"369 1061 OFFCURVE",
"346 980 CURVE",
"358 961 LINE",
"475 961 LINE",
"485 1029 OFFCURVE",
"501 1113 OFFCURVE",
"523 1213 CURVE SMOOTH",
"545 1314 OFFCURVE",
"566 1397 OFFCURVE",
"586 1462 CURVE"
);
},
{
closed = 1;
nodes = (
"203 1462 LINE",
"174 1401 OFFCURVE",
"143 1325 OFFCURVE",
"110 1232 CURVE SMOOTH",
"77 1139 OFFCURVE",
"50 1056 OFFCURVE",
"29 980 CURVE",
"41 961 LINE",
"158 961 LINE",
"165 1020 OFFCURVE",
"180 1101 OFFCURVE",
"203 1205 CURVE SMOOTH",
"226 1309 OFFCURVE",
"248 1395 OFFCURVE",
"268 1462 CURVE"
);
}
);
width = 614;
}
);
unicode = 201C;
},
{
glyphname = quotedblright;
lastChange = "2013-03-07 06:46:41 +0200";
layers = (
{
layerId = "2BEA1A6F-25C4-4A40-9A7D-95BA05285D07";
name = Light;
paths = (
{
closed = 1;
nodes = (
"457 1462 LINE",
"447 1394 OFFCURVE",
"431 1310 OFFCURVE",
"409 1209 CURVE SMOOTH",
"387 1109 OFFCURVE",
"366 1026 OFFCURVE",
"346 961 CURVE",
"412 961 LINE",
"439 1019 OFFCURVE",
"468 1092 OFFCURVE",
"501 1181 CURVE SMOOTH",
"534 1270 OFFCURVE",
"562 1357 OFFCURVE",
"586 1442 CURVE",
"573 1462 LINE"
);
},
{
closed = 1;
nodes = (
"139 1462 LINE",
"128 1386 OFFCURVE",
"111 1299 OFFCURVE",
"90 1202 CURVE SMOOTH",
"69 1105 OFFCURVE",
"48 1025 OFFCURVE",
"29 961 CURVE",
"93 961 LINE",
"160 1105 OFFCURVE",
"218 1265 OFFCURVE",
"268 1442 CURVE",
"256 1462 LINE"
);
}
);
width = 614;
}
);
unicode = 201D;
},
{
glyphname = quoteleft;
lastChange = "2013-03-07 06:46:41 +0200";
layers = (
{
layerId = "2BEA1A6F-25C4-4A40-9A7D-95BA05285D07";
name = Light;
paths = (
{
closed = 1;
nodes = (
"203 1462 LINE",
"174 1401 OFFCURVE",
"143 1325 OFFCURVE",
"110 1232 CURVE SMOOTH",
"77 1139 OFFCURVE",
"50 1056 OFFCURVE",
"29 980 CURVE",
"41 961 LINE",
"158 961 LINE",
"165 1020 OFFCURVE",
"180 1101 OFFCURVE",
"203 1205 CURVE SMOOTH",
"226 1309 OFFCURVE",
"248 1395 OFFCURVE",
"268 1462 CURVE"
);
}
);
width = 297;
}
);
unicode = 2018;
},
{
glyphname = quoteright;
lastChange = "2013-03-07 06:46:41 +0200";
layers = (
{
layerId = "2BEA1A6F-25C4-4A40-9A7D-95BA05285D07";
name = Light;
paths = (
{
closed = 1;
nodes = (
"139 1462 LINE",
"128 1386 OFFCURVE",
"111 1299 OFFCURVE",
"90 1202 CURVE SMOOTH",
"69 1105 OFFCURVE",
"48 1025 OFFCURVE",
"29 961 CURVE",
"93 961 LINE",
"160 1105 OFFCURVE",
"218 1265 OFFCURVE",
"268 1442 CURVE",
"256 1462 LINE"
);
}
);
width = 297;
}
);
unicode = 2019;
},
{
glyphname = quotesinglbase;
lastChange = "2013-03-07 06:46:41 +0200";
layers = (
{
layerId = "2BEA1A6F-25C4-4A40-9A7D-95BA05285D07";
name = Light;
paths = (
{
closed = 1;
nodes = (
"178 238 LINE",
"167 162 OFFCURVE",
"150 76 OFFCURVE",
"129 -21 CURVE SMOOTH",
"108 -118 OFFCURVE",
"87 -199 OFFCURVE",
"68 -263 CURVE",
"133 -263 LINE",
"199 -119 OFFCURVE",
"257 41 OFFCURVE",
"307 218 CURVE",
"295 238 LINE"
);
}
);
width = 451;
}
);
unicode = 201A;
},
{
glyphname = "geresh-hb";
lastChange = "2013-03-07 06:46:41 +0200";
layers = (
{
layerId = "2BEA1A6F-25C4-4A40-9A7D-95BA05285D07";
name = Light;
paths = (
{
closed = 1;
nodes = (
"139 1290 LINE",
"128 1214 OFFCURVE",
"111 1127 OFFCURVE",
"90 1030 CURVE SMOOTH",
"69 933 OFFCURVE",
"48 853 OFFCURVE",
"29 789 CURVE",
"93 789 LINE",
"160 933 OFFCURVE",
"218 1093 OFFCURVE",
"268 1270 CURVE",
"256 1290 LINE"
);
}
);
width = 297;
}
);
unicode = 05F3;
},
{
glyphname = "gershayim-hb";
lastChange = "2013-03-07 06:46:41 +0200";
layers = (
{
layerId = "2BEA1A6F-25C4-4A40-9A7D-95BA05285D07";
name = Light;
paths = (
{
closed = 1;
nodes = (
"457 1290 LINE",
"447 1222 OFFCURVE",
"431 1138 OFFCURVE",
"409 1037 CURVE SMOOTH",
"387 937 OFFCURVE",
"366 854 OFFCURVE",
"346 789 CURVE",
"412 789 LINE",
"439 847 OFFCURVE",
"468 920 OFFCURVE",
"501 1009 CURVE SMOOTH",
"534 1098 OFFCURVE",
"562 1185 OFFCURVE",
"586 1270 CURVE",
"573 1290 LINE"
);
},
{
closed = 1;
nodes = (
"139 1290 LINE",
"128 1214 OFFCURVE",
"111 1127 OFFCURVE",
"90 1030 CURVE SMOOTH",
"69 933 OFFCURVE",
"48 853 OFFCURVE",
"29 789 CURVE",
"93 789 LINE",
"160 933 OFFCURVE",
"218 1093 OFFCURVE",
"268 1270 CURVE",
"256 1290 LINE"
);
}
);
width = 614;
}
);
unicode = 05F4;
},
{
glyphname = "maqaf-hb";
lastChange = "2013-03-07 07:04:30 +0200";
layers = (
{
layerId = "2BEA1A6F-25C4-4A40-9A7D-95BA05285D07";
name = Light;
paths = (
{
closed = 1;
nodes = (
"92 1290 LINE",
"92 1208 LINE",
"567 1208 LINE",
"567 1290 LINE"
);
}
);
width = 659;
}
);
unicode = 05BE;
},
{
glyphname = florin;
lastChange = "2013-03-07 06:46:41 +0200";
layers = (
{
layerId = "2BEA1A6F-25C4-4A40-9A7D-95BA05285D07";
name = Light;
paths = (
{
closed = 1;
nodes = (
"608 1483 OFFCURVE",
"510 1364 OFFCURVE",
"510 1096 CURVE SMOOTH",
"510 950 LINE",
"303 913 LINE",
"303 854 LINE",
"510 854 LINE",
"510 -184 LINE SMOOTH",
"510 -329 OFFCURVE",
"451 -401 OFFCURVE",
"334 -401 CURVE SMOOTH",
"290 -401 OFFCURVE",
"242 -395 OFFCURVE",
"190 -383 CURVE",
"190 -473 LINE",
"227 -486 OFFCURVE",
"273 -492 OFFCURVE",
"330 -492 CURVE SMOOTH",
"511 -492 OFFCURVE",
"608 -381 OFFCURVE",
"608 -174 CURVE SMOOTH",
"608 854 LINE",
"889 854 LINE",
"889 942 LINE",
"608 942 LINE",
"608 1104 LINE SMOOTH",
"608 1312 OFFCURVE",
"672 1395 OFFCURVE",
"825 1395 CURVE SMOOTH",
"872 1395 OFFCURVE",
"926 1385 OFFCURVE",
"984 1366 CURVE",
"1010 1452 LINE",
"943 1473 OFFCURVE",
"882 1483 OFFCURVE",
"827 1483 CURVE SMOOTH"
);
}
);
width = 1169;
}
);
unicode = 0192;
},
{
glyphname = Euro;
lastChange = "2013-03-07 06:46:41 +0200";
layers = (
{
layerId = "2BEA1A6F-25C4-4A40-9A7D-95BA05285D07";
name = Light;
paths = (
{
closed = 1;
nodes = (
"658 1485 OFFCURVE",
"537 1434 OFFCURVE",
"441 1332 CURVE SMOOTH",
"345 1230 OFFCURVE",
"284 1088 OFFCURVE",
"258 907 CURVE",
"74 907 LINE",
"74 825 LINE",
"246 825 LINE",
"242 723 LINE",
"242 673 OFFCURVE",
"243 635 OFFCURVE",
"246 610 CURVE",
"74 610 LINE",
"74 528 LINE",
"254 528 LINE",
"310 171 OFFCURVE",
"499 -20 OFFCURVE",
"803 -20 CURVE SMOOTH",
"898 -20 OFFCURVE",
"985 -6 OFFCURVE",
"1094 39 CURVE",
"1094 133 LINE",
"1001 90 OFFCURVE",
"906 68 OFFCURVE",
"807 68 CURVE SMOOTH",
"684 68 OFFCURVE",
"584 108 OFFCURVE",
"505 189 CURVE SMOOTH",
"427 270 OFFCURVE",
"378 383 OFFCURVE",
"358 528 CURVE",
"801 528 LINE",
"801 610 LINE",
"352 610 LINE",
"349 625 OFFCURVE",
"348 654 OFFCURVE",
"348 697 CURVE SMOOTH",
"348 721 LINE",
"352 825 LINE",
"862 825 LINE",
"862 907 LINE",
"360 907 LINE",
"415 1226 OFFCURVE",
"571 1397 OFFCURVE",
"803 1397 CURVE SMOOTH",
"895 1397 OFFCURVE",
"984 1373 OFFCURVE",
"1073 1325 CURVE",
"1112 1411 LINE",
"1012 1464 OFFCURVE",
"920 1485 OFFCURVE",
"803 1485 CURVE SMOOTH"
);
}
);
width = 1169;
}
);
unicode = 20AC;
},
{
glyphname = cent;
lastChange = "2013-03-07 06:46:41 +0200";
layers = (
{
layerId = "2BEA1A6F-25C4-4A40-9A7D-95BA05285D07";
name = Light;
paths = (
{
closed = 1;
nodes = (
"602 1483 LINE",
"602 1309 LINE",
"478 1287 OFFCURVE",
"382 1226 OFFCURVE",
"313 1126 CURVE SMOOTH",
"245 1027 OFFCURVE",
"211 900 OFFCURVE",
"211 745 CURVE SMOOTH",
"211 588 OFFCURVE",
"245 462 OFFCURVE",
"313 365 CURVE SMOOTH",
"382 268 OFFCURVE",
"478 210 OFFCURVE",
"602 190 CURVE",
"602 -20 LINE",
"684 -20 LINE",
"684 184 LINE",
"696 184 LINE SMOOTH",
"801 184 OFFCURVE",
"890 203 OFFCURVE",
"963 240 CURVE",
"963 332 LINE",
"872 293 OFFCURVE",
"783 274 OFFCURVE",
"696 274 CURVE SMOOTH",
"576 274 OFFCURVE",
"482 315 OFFCURVE",
"415 398 CURVE SMOOTH",
"348 481 OFFCURVE",
"315 598 OFFCURVE",
"315 748 CURVE SMOOTH",
"315 1063 OFFCURVE",
"456 1229 OFFCURVE",
"705 1229 CURVE SMOOTH",
"774 1229 OFFCURVE",
"853 1212 OFFCURVE",
"942 1178 CURVE",
"972 1262 LINE",
"877 1299 OFFCURVE",
"785 1317 OFFCURVE",
"698 1317 CURVE SMOOTH",
"684 1317 LINE",
"684 1483 LINE"
);
}
);
width = 1169;
}
);
unicode = 00A2;
},
{
glyphname = dollar;
lastChange = "2013-03-07 06:46:41 +0200";
layers = (
{
layerId = "2BEA1A6F-25C4-4A40-9A7D-95BA05285D07";
name = Light;
paths = (
{
closed = 1;
nodes = (
"537 1554 LINE",
"537 1362 LINE",
"430 1349 OFFCURVE",
"345 1314 OFFCURVE",
"282 1257 CURVE SMOOTH",
"219 1201 OFFCURVE",
"188 1132 OFFCURVE",
"188 1049 CURVE SMOOTH",
"188 934 OFFCURVE",
"229 858 OFFCURVE",
"322 799 CURVE SMOOTH",
"369 770 OFFCURVE",
"440 740 OFFCURVE",
"537 711 CURVE",
"537 203 LINE",
"478 203 OFFCURVE",
"413 211 OFFCURVE",
"343 228 CURVE SMOOTH",
"274 245 OFFCURVE",
"214 265 OFFCURVE",
"164 289 CURVE",
"164 186 LINE",
"207 166 OFFCURVE",
"264 149 OFFCURVE",
"336 135 CURVE SMOOTH",
"409 122 OFFCURVE",
"476 114 OFFCURVE",
"537 113 CURVE",
"537 -119 LINE",
"618 -119 LINE",
"618 117 LINE",
"851 146 OFFCURVE",
"990 263 OFFCURVE",
"990 440 CURVE SMOOTH",
"990 524 OFFCURVE",
"964 592 OFFCURVE",
"911 644 CURVE SMOOTH",
"858 696 OFFCURVE",
"760 744 OFFCURVE",
"618 788 CURVE",
"618 1274 LINE",
"736 1267 OFFCURVE",
"842 1243 OFFCURVE",
"936 1202 CURVE",
"968 1292 LINE",
"866 1334 OFFCURVE",
"749 1358 OFFCURVE",
"618 1364 CURVE",
"618 1554 LINE"
);
},
{
closed = 1;
nodes = (
"801 627 OFFCURVE",
"881 557 OFFCURVE",
"881 444 CURVE SMOOTH",
"881 313 OFFCURVE",
"781 226 OFFCURVE",
"618 209 CURVE",
"618 680 LINE"
);
},
{
closed = 1;
nodes = (
"537 815 LINE",
"369 866 OFFCURVE",
"297 934 OFFCURVE",
"297 1049 CURVE SMOOTH",
"297 1160 OFFCURVE",
"378 1247 OFFCURVE",
"537 1268 CURVE"
);
}
);
width = 1169;
}
);
unicode = 0024;
},
{
glyphname = "sheqel-hb";
lastChange = "2013-03-07 06:46:41 +0200";
layers = (
{
layerId = "2BEA1A6F-25C4-4A40-9A7D-95BA05285D07";
name = Light;
paths = (
{
closed = 1;
nodes = (
"1325 1290 LINE",
"1325 651 LINE SMOOTH",
"1325 279 OFFCURVE",
"1128 88 OFFCURVE",
"794 88 CURVE SMOOTH",
"641 88 LINE",
"641 1026 LINE",
"539 1026 LINE",
"539 0 LINE",
"794 0 LINE SMOOTH",
"1182 0 OFFCURVE",
"1427 235 OFFCURVE",
"1427 651 CURVE SMOOTH",
"1427 1290 LINE"
);
},
{
closed = 1;
nodes = (
"170 1290 LINE",
"170 0 LINE",
"272 0 LINE",
"272 1202 LINE",
"585 1202 LINE SMOOTH",
"813 1202 OFFCURVE",
"940 1169 OFFCURVE",
"940 929 CURVE SMOOTH",
"940 264 LINE",
"1042 264 LINE",
"1042 929 LINE SMOOTH",
"1042 1230 OFFCURVE",
"875 1290 OFFCURVE",
"585 1290 CURVE SMOOTH"
);
}
);
width = 1597;
}
);
unicode = 20AA;
},
{
glyphname = sterling;
lastChange = "2013-03-07 06:46:41 +0200";
layers = (
{
layerId = "2BEA1A6F-25C4-4A40-9A7D-95BA05285D07";
name = Light;
paths = (
{
closed = 1;
nodes = (
"446 1481 OFFCURVE",
"311 1327 OFFCURVE",
"311 1055 CURVE SMOOTH",
"311 758 LINE",
"99 758 LINE",
"99 676 LINE",
"311 676 LINE",
"311 418 LINE SMOOTH",
"311 238 OFFCURVE",
"225 112 OFFCURVE",
"78 84 CURVE",
"78 0 LINE",
"1073 0 LINE",
"1073 95 LINE",
"264 95 LINE",
"368 160 OFFCURVE",
"412 265 OFFCURVE",
"412 420 CURVE SMOOTH",
"412 676 LINE",
"823 676 LINE",
"823 758 LINE",
"412 758 LINE",
"412 1059 LINE SMOOTH",
"412 1288 OFFCURVE",
"502 1393 OFFCURVE",
"690 1393 CURVE SMOOTH",
"782 1393 OFFCURVE",
"880 1371 OFFCURVE",
"984 1327 CURVE",
"1020 1413 LINE",
"917 1458 OFFCURVE",
"807 1481 OFFCURVE",
"690 1481 CURVE SMOOTH"
);
}
);
width = 1169;
}
);
unicode = 00A3;
},
{
glyphname = yen;
lastChange = "2013-03-07 06:46:41 +0200";
layers = (
{
layerId = "2BEA1A6F-25C4-4A40-9A7D-95BA05285D07";
name = Light;
paths = (
{
closed = 1;
nodes = (
"1014 1462 LINE",
"586 666 LINE",
"160 1462 LINE",
"43 1462 LINE",
"473 674 LINE",
"195 674 LINE",
"195 592 LINE",
"532 592 LINE",
"532 387 LINE",
"195 387 LINE",
"195 305 LINE",
"532 305 LINE",
"532 0 LINE",
"637 0 LINE",
"637 305 LINE",
"974 305 LINE",
"974 387 LINE",
"637 387 LINE",
"637 592 LINE",
"974 592 LINE",
"974 674 LINE",
"692 674 LINE",
"1124 1462 LINE"
);
}
);
width = 1169;
}
);
unicode = 00A5;
},
{
glyphname = asciitilde;
lastChange = "2013-03-07 06:46:41 +0200";
layers = (
{
layerId = "2BEA1A6F-25C4-4A40-9A7D-95BA05285D07";
name = Light;
paths = (
{
closed = 1;
nodes = (
"261 829 OFFCURVE",
"183 792 OFFCURVE",
"111 719 CURVE",
"111 625 LINE",
"186 704 OFFCURVE",
"269 745 OFFCURVE",
"334 745 CURVE SMOOTH",
"399 745 OFFCURVE",
"472 726 OFFCURVE",
"555 688 CURVE SMOOTH",
"658 640 OFFCURVE",
"748 616 OFFCURVE",
"825 616 CURVE SMOOTH",
"922 616 OFFCURVE",
"994 664 OFFCURVE",
"1059 729 CURVE",
"1059 825 LINE",
"975 740 OFFCURVE",
"909 700 OFFCURVE",
"834 700 CURVE SMOOTH",
"771 700 OFFCURVE",
"698 719 OFFCURVE",
"614 758 CURVE SMOOTH",
"547 787 OFFCURVE",
"495 806 OFFCURVE",
"459 815 CURVE SMOOTH",
"423 824 OFFCURVE",
"385 829 OFFCURVE",
"344 829 CURVE SMOOTH"
);
}
);
width = 1169;
}
);
unicode = 007E;
},
{
glyphname = divide;
lastChange = "2013-03-07 06:46:41 +0200";
layers = (
{
layerId = "2BEA1A6F-25C4-4A40-9A7D-95BA05285D07";
name = Light;
paths = (
{
closed = 1;
nodes = (
"111 764 LINE",
"111 682 LINE",
"1059 682 LINE",
"1059 764 LINE"
);
},
{
closed = 1;
nodes = (
"531 469 OFFCURVE",
"504 436 OFFCURVE",
"504 371 CURVE SMOOTH",
"504 300 OFFCURVE",
"539 272 OFFCURVE",
"584 272 CURVE SMOOTH",
"631 272 OFFCURVE",
"666 300 OFFCURVE",
"666 371 CURVE SMOOTH",
"666 436 OFFCURVE",
"639 469 OFFCURVE",
"584 469 CURVE SMOOTH"
);
},
{
closed = 1;
nodes = (
"531 1174 OFFCURVE",
"504 1141 OFFCURVE",
"504 1075 CURVE SMOOTH",
"504 1006 OFFCURVE",
"539 976 OFFCURVE",
"584 976 CURVE SMOOTH",
"631 976 OFFCURVE",
"666 1006 OFFCURVE",
"666 1075 CURVE SMOOTH",
"666 1141 OFFCURVE",
"639 1174 OFFCURVE",
"584 1174 CURVE SMOOTH"
);
}
);
width = 1169;
}
);
unicode = 00F7;
},
{
glyphname = equal;
lastChange = "2013-03-07 06:46:41 +0200";
layers = (
{
layerId = "2BEA1A6F-25C4-4A40-9A7D-95BA05285D07";
name = Light;
paths = (
{
closed = 1;
nodes = (
"111 967 LINE",
"111 885 LINE",
"1059 885 LINE",
"1059 967 LINE"
);
},
{
closed = 1;
nodes = (
"111 559 LINE",
"111 477 LINE",
"1059 477 LINE",
"1059 559 LINE"
);
}
);
width = 1169;
}
);
unicode = 003D;
},
{
glyphname = greater;
lastChange = "2013-03-07 06:46:41 +0200";
layers = (
{
layerId = "2BEA1A6F-25C4-4A40-9A7D-95BA05285D07";
name = Light;
paths = (
{
closed = 1;
nodes = (
"111 1122 LINE",
"934 717 LINE",
"111 362 LINE",
"111 266 LINE",
"1059 682 LINE",
"1059 743 LINE",
"111 1217 LINE"
);
}
);
width = 1169;
}
);
unicode = 003E;
},
{
glyphname = less;
lastChange = "2013-03-07 06:46:41 +0200";
layers = (
{
layerId = "2BEA1A6F-25C4-4A40-9A7D-95BA05285D07";
name = Light;
paths = (
{
closed = 1;
nodes = (
"111 743 LINE",
"111 682 LINE",
"1059 266 LINE",
"1059 362 LINE",
"236 717 LINE",
"1059 1122 LINE",
"1059 1217 LINE"
);
}
);
width = 1169;
}
);
unicode = 003C;
},
{
glyphname = logicalnot;
lastChange = "2013-03-07 06:46:41 +0200";
layers = (
{
layerId = "2BEA1A6F-25C4-4A40-9A7D-95BA05285D07";
name = Light;
paths = (
{
closed = 1;
nodes = (
"111 764 LINE",
"111 682 LINE",
"956 682 LINE",
"956 270 LINE",
"1038 270 LINE",
"1038 764 LINE"
);
}
);
width = 1169;
}
);
unicode = 00AC;
},
{
glyphname = multiply;
lastChange = "2013-03-07 06:46:41 +0200";
layers = (
{
layerId = "2BEA1A6F-25C4-4A40-9A7D-95BA05285D07";
name = Light;
paths = (
{
closed = 1;
nodes = (
"584 780 LINE",
"176 1188 LINE",
"119 1130 LINE",
"526 723 LINE",
"121 315 LINE",
"178 258 LINE",
"584 666 LINE",
"990 258 LINE",
"1049 315 LINE",
"643 723 LINE",
"1051 1130 LINE",
"992 1188 LINE"
);
}
);
width = 1169;
}
);
unicode = 00D7;
},
{
glyphname = percent;
lastChange = "2013-03-07 06:46:41 +0200";
layers = (
{
layerId = "2BEA1A6F-25C4-4A40-9A7D-95BA05285D07";
name = Light;
paths = (
{
closed = 1;
nodes = (
"1184 1462 LINE",
"373 0 LINE",
"469 0 LINE",
"1280 1462 LINE"
);
},
{
closed = 1;
nodes = (
"522 1395 OFFCURVE",
"590 1271 OFFCURVE",
"590 1026 CURVE SMOOTH",
"590 777 OFFCURVE",
"526 653 OFFCURVE",
"397 653 CURVE SMOOTH",
"269 653 OFFCURVE",
"211 778 OFFCURVE",
"211 1026 CURVE SMOOTH",
"211 1271 OFFCURVE",
"269 1395 OFFCURVE",
"397 1395 CURVE SMOOTH"
);
},
{
closed = 1;
nodes = (
"210 1483 OFFCURVE",
"113 1323 OFFCURVE",
"113 1026 CURVE SMOOTH",
"113 733 OFFCURVE",
"220 565 OFFCURVE",
"397 565 CURVE SMOOTH",
"585 565 OFFCURVE",
"688 725 OFFCURVE",
"688 1026 CURVE SMOOTH",
"688 1170 OFFCURVE",
"663 1282 OFFCURVE",
"612 1362 CURVE SMOOTH",
"561 1443 OFFCURVE",
"490 1483 OFFCURVE",
"397 1483 CURVE SMOOTH"
);
},
{
closed = 1;
nodes = (
"1066 895 OFFCURVE",
"965 738 OFFCURVE",
"965 438 CURVE SMOOTH",
"965 293 OFFCURVE",
"989 179 OFFCURVE",
"1040 97 CURVE SMOOTH",
"1090 17 OFFCURVE",
"1160 -23 OFFCURVE",
"1251 -23 CURVE SMOOTH",
"1439 -23 OFFCURVE",
"1540 137 OFFCURVE",
"1540 438 CURVE SMOOTH",
"1540 583 OFFCURVE",
"1515 695 OFFCURVE",
"1464 775 CURVE SMOOTH",
"1413 855 OFFCURVE",
"1342 895 OFFCURVE",
"1251 895 CURVE SMOOTH"
);
},
{
closed = 1;
nodes = (
"1378 807 OFFCURVE",
"1442 684 OFFCURVE",
"1442 438 CURVE SMOOTH",
"1442 191 OFFCURVE",
"1378 68 OFFCURVE",
"1249 68 CURVE SMOOTH",
"1121 68 OFFCURVE",
"1063 191 OFFCURVE",
"1063 438 CURVE SMOOTH",
"1063 686 OFFCURVE",
"1121 807 OFFCURVE",
"1249 807 CURVE SMOOTH"
);
}
);
width = 1653;
}
);
unicode = 0025;
},
{
glyphname = perthousand;
lastChange = "2013-03-07 06:46:41 +0200";
layers = (
{
layerId = "2BEA1A6F-25C4-4A40-9A7D-95BA05285D07";
name = Light;
paths = (
{
closed = 1;
nodes = (
"1184 1462 LINE",
"373 0 LINE",
"469 0 LINE",
"1280 1462 LINE"
);
},
{
closed = 1;
nodes = (
"522 1395 OFFCURVE",
"590 1271 OFFCURVE",
"590 1026 CURVE SMOOTH",
"590 777 OFFCURVE",
"526 653 OFFCURVE",
"397 653 CURVE SMOOTH",
"269 653 OFFCURVE",
"211 778 OFFCURVE",
"211 1026 CURVE SMOOTH",
"211 1271 OFFCURVE",
"269 1395 OFFCURVE",
"397 1395 CURVE SMOOTH"
);
},
{
closed = 1;
nodes = (
"210 1483 OFFCURVE",
"113 1323 OFFCURVE",
"113 1026 CURVE SMOOTH",
"113 733 OFFCURVE",
"220 565 OFFCURVE",
"397 565 CURVE SMOOTH",
"585 565 OFFCURVE",
"688 725 OFFCURVE",
"688 1026 CURVE SMOOTH",
"688 1170 OFFCURVE",
"663 1282 OFFCURVE",
"612 1362 CURVE SMOOTH",
"561 1443 OFFCURVE",
"490 1483 OFFCURVE",
"397 1483 CURVE SMOOTH"
);
},
{
closed = 1;
nodes = (
"1066 895 OFFCURVE",
"965 738 OFFCURVE",
"965 438 CURVE SMOOTH",
"965 293 OFFCURVE",
"989 179 OFFCURVE",
"1040 97 CURVE SMOOTH",
"1090 17 OFFCURVE",
"1160 -23 OFFCURVE",
"1251 -23 CURVE SMOOTH",
"1439 -23 OFFCURVE",
"1540 137 OFFCURVE",
"1540 438 CURVE SMOOTH",
"1540 583 OFFCURVE",
"1515 695 OFFCURVE",
"1464 775 CURVE SMOOTH",
"1413 855 OFFCURVE",
"1342 895 OFFCURVE",
"1251 895 CURVE SMOOTH"
);
},
{
closed = 1;
nodes = (
"1378 807 OFFCURVE",
"1442 684 OFFCURVE",
"1442 438 CURVE SMOOTH",
"1442 191 OFFCURVE",
"1378 68 OFFCURVE",
"1249 68 CURVE SMOOTH",
"1121 68 OFFCURVE",
"1063 191 OFFCURVE",
"1063 438 CURVE SMOOTH",
"1063 686 OFFCURVE",
"1121 807 OFFCURVE",
"1249 807 CURVE SMOOTH"
);
},
{
closed = 1;
nodes = (
"1742 895 OFFCURVE",
"1642 738 OFFCURVE",
"1642 438 CURVE SMOOTH",
"1642 291 OFFCURVE",
"1667 178 OFFCURVE",
"1718 96 CURVE SMOOTH",
"1769 17 OFFCURVE",
"1839 -23 OFFCURVE",
"1929 -23 CURVE SMOOTH",
"2117 -23 OFFCURVE",
"2218 137 OFFCURVE",
"2218 438 CURVE SMOOTH",
"2218 583 OFFCURVE",
"2193 695 OFFCURVE",
"2142 775 CURVE SMOOTH",
"2091 855 OFFCURVE",
"2020 895 OFFCURVE",
"1929 895 CURVE SMOOTH"
);
},
{
closed = 1;
nodes = (
"2056 807 OFFCURVE",
"2120 684 OFFCURVE",
"2120 438 CURVE SMOOTH",
"2120 191 OFFCURVE",
"2056 68 OFFCURVE",
"1927 68 CURVE SMOOTH",
"1799 68 OFFCURVE",
"1741 191 OFFCURVE",
"1741 438 CURVE SMOOTH",
"1741 686 OFFCURVE",
"1799 807 OFFCURVE",
"1927 807 CURVE SMOOTH"
);
}
);
width = 2331;
}
);
unicode = 2030;
},
{
glyphname = plus;
lastChange = "2013-03-07 06:46:41 +0200";
layers = (
{
layerId = "2BEA1A6F-25C4-4A40-9A7D-95BA05285D07";
name = Light;
paths = (
{
closed = 1;
nodes = (
"543 1198 LINE",
"543 764 LINE",
"111 764 LINE",
"111 682 LINE",
"543 682 LINE",
"543 250 LINE",
"625 250 LINE",
"625 682 LINE",
"1059 682 LINE",
"1059 764 LINE",
"625 764 LINE",
"625 1198 LINE"
);
}
);
width = 1169;
}
);
unicode = 002B;
},
{
glyphname = plusminus;
lastChange = "2013-03-07 06:46:41 +0200";
layers = (
{
layerId = "2BEA1A6F-25C4-4A40-9A7D-95BA05285D07";
name = Light;
paths = (
{
closed = 1;
nodes = (
"543 1198 LINE",
"543 764 LINE",
"111 764 LINE",
"111 682 LINE",
"543 682 LINE",
"543 250 LINE",
"625 250 LINE",
"625 682 LINE",
"1059 682 LINE",
"1059 764 LINE",
"625 764 LINE",
"625 1198 LINE"
);
},
{
closed = 1;
nodes = (
"111 83 LINE",
"111 0 LINE",
"1059 0 LINE",
"1059 83 LINE"
);
}
);
width = 1169;
}
);
unicode = 00B1;
},
{
glyphname = ampersand;
lastChange = "2013-03-07 06:46:41 +0200";
layers = (
{
layerId = "2BEA1A6F-25C4-4A40-9A7D-95BA05285D07";
name = Light;
paths = (
{
closed = 1;
nodes = (
"511 1485 OFFCURVE",
"425 1457 OFFCURVE",
"361 1401 CURVE SMOOTH",
"298 1345 OFFCURVE",
"266 1269 OFFCURVE",
"266 1174 CURVE SMOOTH",
"266 1075 OFFCURVE",
"308 987 OFFCURVE",
"396 893 CURVE SMOOTH",
"471 811 LINE",
"337 739 OFFCURVE",
"245 671 OFFCURVE",
"196 606 CURVE SMOOTH",
"147 541 OFFCURVE",
"123 463 OFFCURVE",
"123 371 CURVE SMOOTH",
"123 248 OFFCURVE",
"163 152 OFFCURVE",
"242 83 CURVE SMOOTH",
"322 14 OFFCURVE",
"432 -20 OFFCURVE",
"571 -20 CURVE SMOOTH",
"716 -20 OFFCURVE",
"827 9 OFFCURVE",
"923 65 CURVE SMOOTH",
"970 92 OFFCURVE",
"1026 137 OFFCURVE",
"1087 197 CURVE",
"1280 0 LINE",
"1415 0 LINE",
"1149 268 LINE",
"1246 388 OFFCURVE",
"1316 530 OFFCURVE",
"1358 694 CURVE",
"1262 694 LINE",
"1219 539 OFFCURVE",
"1164 432 OFFCURVE",
"1083 336 CURVE",
"631 793 LINE",
"753 864 OFFCURVE",
"837 929 OFFCURVE",
"884 986 CURVE SMOOTH",
"931 1046 OFFCURVE",
"954 1110 OFFCURVE",
"954 1180 CURVE SMOOTH",
"954 1275 OFFCURVE",
"924 1350 OFFCURVE",
"863 1404 CURVE SMOOTH",
"803 1458 OFFCURVE",
"721 1485 OFFCURVE",
"618 1485 CURVE SMOOTH"
);
},
{
closed = 1;
nodes = (
"1022 260 LINE",
"953 191 OFFCURVE",
"883 142 OFFCURVE",
"812 113 CURVE SMOOTH",
"741 84 OFFCURVE",
"663 70 OFFCURVE",
"578 70 CURVE SMOOTH",
"468 70 OFFCURVE",
"382 96 OFFCURVE",
"320 151 CURVE SMOOTH",
"258 205 OFFCURVE",
"227 280 OFFCURVE",
"227 375 CURVE SMOOTH",
"227 480 OFFCURVE",
"262 555 OFFCURVE",
"342 622 CURVE SMOOTH",
"383 656 OFFCURVE",
"448 697 OFFCURVE",
"539 745 CURVE"
);
},
{
closed = 1;
nodes = (
"689 1395 OFFCURVE",
"745 1375 OFFCURVE",
"786 1336 CURVE SMOOTH",
"827 1297 OFFCURVE",
"848 1247 OFFCURVE",
"848 1184 CURVE SMOOTH",
"848 1121 OFFCURVE",
"827 1064 OFFCURVE",
"786 1015 CURVE SMOOTH",
"745 966 OFFCURVE",
"671 913 OFFCURVE",
"565 856 CURVE",
"490 927 OFFCURVE",
"440 984 OFFCURVE",
"413 1030 CURVE SMOOTH",
"386 1075 OFFCURVE",
"373 1123 OFFCURVE",
"373 1176 CURVE SMOOTH",
"373 1313 OFFCURVE",
"466 1395 OFFCURVE",
"618 1395 CURVE SMOOTH"
);
}
);
width = 1460;
}
);
unicode = 0026;
},
